{
.appVersion = "1179";
copyright = "Copyright (c) 2010, Sebastian Kosch (sebastian@aldusleaf.org),\012with Reserved Font Name \"Crimson Text\".\012This Font Software is licensed under the SIL Open Font License, Version 1.1.\012This license is available with a FAQ at: http://scripts.sil.org/OFL";
customParameters = (
{
name = vendorID;
value = aldu;
},
{
name = panose;
value = (
2,
0,
7,
3,
0,
0,
0,
0,
0,
0
);
},
{
name = unicodeRanges;
value = (
0,
1,
2,
3,
6,
7,
31,
33,
37,
38,
60
);
},
{
name = codePageRanges;
value = (
1252,
1250,
1254,
1257
);
},
{
name = glyphOrder;
value = (
.notdef,
.null,
CR,
space,
exclam,
quotedbl,
numbersign,
dollar,
percent,
ampersand,
quotesingle,
parenleft,
parenright,
asterisk,
plus,
comma,
hyphen,
period,
slash,
zero,
one,
two,
three,
four,
five,
six,
seven,
eight,
nine,
colon,
semicolon,
less,
equal,
greater,
question,
at,
A,
B,
C,
D,
E,
F,
G,
H,
I,
J,
K,
L,
M,
N,
O,
P,
Q,
R,
S,
T,
U,
V,
W,
X,
Y,
Z,
bracketleft,
backslash,
bracketright,
asciicircum,
underscore,
grave,
a,
b,
c,
d,
e,
f,
g,
h,
i,
j,
k,
l,
m,
n,
o,
p,
q,
r,
s,
t,
u,
v,
w,
x,
y,
z,
braceleft,
bar,
braceright,
asciitilde,
uni00A0,
exclamdown,
cent,
sterling,
currency,
yen,
brokenbar,
section,
dieresis,
copyright,
ordfeminine,
guillemotleft,
logicalnot,
registered,
macron,
degree,
plusminus,
uni00B2,
uni00B3,
acute,
uni00B5,
paragraph,
periodcentered,
cedilla,
uni00B9,
ordmasculine,
guillemotright,
onequarter,
onehalf,
threequarters,
questiondown,
Agrave,
Aacute,
Acircumflex,
Atilde,
Adieresis,
Aring,
AE,
Ccedilla,
Egrave,
Eacute,
Ecircumflex,
Edieresis,
Igrave,
Iacute,
Icircumflex,
Idieresis,
Eth,
Ntilde,
Ograve,
Oacute,
Ocircumflex,
Otilde,
Odieresis,
multiply,
Oslash,
Ugrave,
Uacute,
Ucircumflex,
Udieresis,
Yacute,
Thorn,
germandbls,
agrave,
aacute,
acircumflex,
atilde,
adieresis,
aring,
ae,
ccedilla,
egrave,
eacute,
ecircumflex,
edieresis,
igrave,
iacute,
icircumflex,
idieresis,
eth,
ntilde,
ograve,
oacute,
ocircumflex,
otilde,
odieresis,
divide,
oslash,
ugrave,

glyphs = (
{
glyphname = .notdef;
layers = (
{
layerId = "3968EB47-B6D1-4984-BCC6-AA3E1527005D";
paths = (
{
closed = 1;
nodes = (
"306 0 LINE",
"306 682 LINE",
"34 682 LINE",
"34 0 LINE"
);
},
{
closed = 1;
nodes = (
"68 648 LINE",
"272 648 LINE",
"272 34 LINE",
"68 34 LINE"
);
}
);
userData = {
assembly = "PUSHB[ ]\011/* 2 values pushed */
1 0 
MDAP[1]\011/* MoveDirectAbsPt */
ALIGNRP[ ]\011/* AlignRelativePt */
PUSHB[ ]\011/* 3 values pushed */
7 4 23 
MIRP[01101]\011/* MoveIndirectRelPt */
SHP[0]\011/* ShiftPointByLastPoint */
PUSHB[ ]\011/* 2 values pushed */
6 5 
MDRP[11100]\011/* MoveDirectRelPt */
ALIGNRP[ ]\011/* AlignRelativePt */
PUSHB[ ]\011/* 3 values pushed */
3 2 23 
MIRP[01101]\011/* MoveIndirectRelPt */
SHP[0]\011/* ShiftPointByLastPoint */
SVTCA[0]\011/* SetFreedomAndProjectionVectorToAxis */
PUSHB[ ]\011/* 2 values pushed */
3 0 
MDAP[1]\011/* MoveDirectAbsPt */
ALIGNRP[ ]\011/* AlignRelativePt */
PUSHB[ ]\011/* 3 values pushed */
5 4 23 
MIRP[01101]\011/* MoveIndirectRelPt */
SHP[0]\011/* ShiftPointByLastPoint */
PUSHB[ ]\011/* 3 values pushed */
7 6 24 
MIRP[11100]\011/* MoveIndirectRelPt */
ALIGNRP[ ]\011/* AlignRelativePt */
PUSHB[ ]\011/* 3 values pushed */
1 2 23 
MIRP[01101]\011/* MoveIndirectRelPt */
SHP[0]\011/* ShiftPointByLastPoint */";
};
width = 374;
}
);
note = .notdef;
},
{
glyphname = exclam;
layers = (
{
layerId = "3968EB47-B6D1-4984-BCC6-AA3E1527005D";
paths = (
{
closed = 1;
nodes = (
"-1 24 OFFCURVE",
"28 -12 OFFCURVE",
"51 -12 QCURVE SMOOTH",
"79 -12 OFFCURVE",
"121 31 OFFCURVE",
"124 61 QCURVE SMOOTH",
"127 85 OFFCURVE",
"99 121 OFFCURVE",
"75 121 QCURVE SMOOTH",
"48 121 OFFCURVE",
"5 81 OFFCURVE",
"2 51 QCURVE SMOOTH"
);
},
{
closed = 1;
nodes = (
"156 636 OFFCURVE",
"118 599 OFFCURVE",
"113 576 QCURVE",
"102 510 OFFCURVE",
"73 226 OFFCURVE",
"71 189 QCURVE",
"71 169 OFFCURVE",
"77 169 QCURVE SMOOTH",
"85 169 OFFCURVE",
"106 184 OFFCURVE",
"109 196 QCURVE",
"122 241 OFFCURVE",
"181 444 OFFCURVE",
"216 569 OFFCURVE",
"217 581 QCURVE",
"220 605 OFFCURVE",
"198 636 OFFCURVE",
"179 636 QCURVE SMOOTH"
);
}
);
width = 220;
}
);
note = exclam;
unicode = 0021;
},
{
glyphname = quotedbl;
layers = (
{
layerId = "3968EB47-B6D1-4984-BCC6-AA3E1527005D";
paths = (
{
closed = 1;
nodes = (
"155 698 OFFCURVE",
"166 677 OFFCURVE",
"160 633 QCURVE",
"154 602 OFFCURVE",
"106 478 OFFCURVE",
"98 449 QCURVE SMOOTH",
"94 434 OFFCURVE",
"78 434 QCURVE SMOOTH",
"72 434 OFFCURVE",
"61 441 OFFCURVE",
"62 447 QCURVE",
"66 487 OFFCURVE",
"66 558 OFFCURVE",
"62 623 OFFCURVE",
"62 636 QCURVE",
"65 653 OFFCURVE",
"108 698 OFFCURVE",
"132 698 QCURVE SMOOTH"
);
},
{
closed = 1;
nodes = (
"106 698 OFFCURVE",
"63 653 OFFCURVE",
"60 636 QCURVE",
"60 623 OFFCURVE",
"64 558 OFFCURVE",
"64 487 OFFCURVE",
"60 447 QCURVE",
"59 441 OFFCURVE",
"70 434 OFFCURVE",
"76 434 QCURVE SMOOTH",
"92 434 OFFCURVE",
"96 449 QCURVE SMOOTH",
"104 478 OFFCURVE",
"152 602 OFFCURVE",
"158 633 QCURVE",
"164 677 OFFCURVE",
"153 698 OFFCURVE",
"130 698 QCURVE SMOOTH"
);
}
);
width = 178;
}
);
note = quotedbl;
unicode = 0022;
},
{
glyphname = numbersign;
layers = (
{
layerId = "3968EB47-B6D1-4984-BCC6-AA3E1527005D";
paths = (
{
closed = 1;
nodes = (
"405 524 LINE",
"405 525 OFFCURVE",
"407 526 QCURVE",
"407 532 OFFCURVE",
"385 532 QCURVE SMOOTH",
"350 532 OFFCURVE",
"347 524 QCURVE SMOOTH",
"295 376 LINE",
"213 376 LINE",
"265 524 LINE",
"265 525 OFFCURVE",
"267 526 QCURVE",
"267 532 OFFCURVE",
"245 532 QCURVE SMOOTH",
"210 532 OFFCURVE",
"207 524 QCURVE SMOOTH",
"155 376 LINE",
"81 376 LINE SMOOTH",
"73 376 OFFCURVE",
"56 333 OFFCURVE",
"56 320 QCURVE SMOOTH",
"56 314 OFFCURVE",
"63 314 QCURVE SMOOTH",
"137 314 LINE",
"107 234 LINE",
"33 234 LINE SMOOTH",
"25 234 OFFCURVE",
"8 191 OFFCURVE",
"8 178 QCURVE SMOOTH",
"8 172 OFFCURVE",
"15 172 QCURVE SMOOTH",
"89 172 LINE",
"37 24 LINE",
"37 23 OFFCURVE",
"35 21 QCURVE",
"35 16 OFFCURVE",
"60 16 QCURVE SMOOTH",
"92 16 OFFCURVE",
"95 24 QCURVE SMOOTH",
"147 172 LINE",
"229 172 LINE",
"177 24 LINE",
"177 23 OFFCURVE",
"175 21 QCURVE",
"175 16 OFFCURVE",
"200 16 QCURVE SMOOTH",
"232 16 OFFCURVE",
"235 24 QCURVE SMOOTH",
"287 172 LINE",
"361 172 LINE SMOOTH",
"369 172 OFFCURVE",
"386 215 OFFCURVE",
"386 228 QCURVE SMOOTH",
"386 234 OFFCURVE",
"379 234 QCURVE SMOOTH",
"305 234 LINE",
"335 314 LINE",
"409 314 LINE SMOOTH",
"417 314 OFFCURVE",
"434 357 OFFCURVE",
"434 370 QCURVE SMOOTH",
"434 376 OFFCURVE",
"427 376 QCURVE SMOOTH",
"353 376 OFFCURVE",
"353 376 QCURVE"
);
},
{
closed = 1;
nodes = (
"247 234 LINE",
"165 234 LINE",
"195 314 LINE",
"277 314 LINE"
);
}
);
width = 443;
}
);
note = numbersign;
unicode = 0023;
},
{
glyphname = dollar;
layers = (
{
layerId = "3968EB47-B6D1-4984-BCC6-AA3E1527005D";
paths = (
{
closed = 1;
nodes = (
"234 244 OFFCURVE",
"249 231 OFFCURVE",
"250 230 QCURVE",
"286 198 OFFCURVE",
"286 161 QCURVE SMOOTH",
"286 112 OFFCURVE",
"217 39 OFFCURVE",
"171 39 QCURVE SMOOTH",
"159 39 OFFCURVE",
"159 39 QCURVE",
"233 245 LINE"
);
},
{
closed = 1;
nodes = (
"166 -8 LINE SMOOTH",
"211 -8 OFFCURVE",
"299 29 OFFCURVE",
"329 59 QCURVE SMOOTH",
"393 125 OFFCURVE",
"393 203 QCURVE SMOOTH",
"393 269 OFFCURVE",
"335 314 QCURVE SMOOTH",
"331 317 OFFCURVE",
"281 355 OFFCURVE",
"275 359 QCURVE",
"347 560 LINE",
"377 524 OFFCURVE",
"377 472 QCURVE SMOOTH",
"377 463 OFFCURVE",
"382 461 QCURVE",
"390 456 OFFCURVE",
"407 456 QCURVE SMOOTH",
"409 456 OFFCURVE",
"412 468 OFFCURVE",
"415 498 OFFCURVE",
"418 528 OFFCURVE",
"424 588 OFFCURVE",
"427 613 QCURVE",
"406 616 OFFCURVE",
"370 626 QCURVE",
"387 673 LINE",
"374 690 OFFCURVE",
"354 690 QCURVE SMOOTH",
"344 690 OFFCURVE",
"343 685 QCURVE",
"325 635 LINE",
"316 636 OFFCURVE",
"297 636 QCURVE SMOOTH",
"214 636 OFFCURVE",
"77 520 OFFCURVE",
"77 433 QCURVE SMOOTH",
"77 370 OFFCURVE",
"146 313 QCURVE",
"150 310 OFFCURVE",
"191 278 OFFCURVE",
"195 274 QCURVE",
"115 51 LINE",
"83 68 OFFCURVE",
"55 137 OFFCURVE",
"55 173 QCURVE",
"49 178 OFFCURVE",
"35 178 QCURVE SMOOTH",
"15 178 OFFCURVE",
"14 170 QCURVE",
"8 98 OFFCURVE",
"8 50 QCURVE SMOOTH",
"8 29 OFFCURVE",
"9 16 QCURVE",
"59 4 OFFCURVE",
"96 -2 QCURVE",
"79 -51 LINE",
"91 -66 OFFCURVE",
"110 -66 QCURVE SMOOTH",
"121 -66 OFFCURVE",
"122 -62 QCURVE",
"142 -8 LINE"
);
},
{
closed = 1;
nodes = (
"236 390 OFFCURVE",
"223 401 OFFCURVE",
"212 412 OFFCURVE",
"210 415 QCURVE",
"179 444 OFFCURVE",
"179 522 OFFCURVE",
"233 589 OFFCURVE",
"283 589 QCURVE SMOOTH",
"295 589 OFFCURVE",
"307 586 QCURVE",
"237 389 LINE"
);
}
);
width = 439;
}
);
note = dollar;
unicode = 0024;
},
{
glyphname = percent;
layers = (
{
layerId = "3968EB47-B6D1-4984-BCC6-AA3E1527005D";
paths = (
{
closed = 1;
nodes = (
"497 286 OFFCURVE",
"523 245 OFFCURVE",
"524 191 OFFCURVE",
"522 164 QCURVE",
"514 110 OFFCURVE",
"471 31 OFFCURVE",
"437 31 QCURVE SMOOTH",
"413 31 OFFCURVE",
"385 72 OFFCURVE",
"382 126 OFFCURVE",
"385 154 QCURVE SMOOTH",
"392 207 OFFCURVE",
"438 286 OFFCURVE",
"473 286 QCURVE SMOOTH"
);
},
{
closed = 1;
nodes = (
"419 318 OFFCURVE",
"313 210 OFFCURVE",
"307 140 QCURVE SMOOTH",
"301 81 OFFCURVE",
"366 -2 OFFCURVE",
"424 -2 QCURVE SMOOTH",
"490 -2 OFFCURVE",
"595 107 OFFCURVE",
"601 176 QCURVE SMOOTH",
"607 235 OFFCURVE",
"545 318 OFFCURVE",
"487 318 QCURVE SMOOTH"
);
},
{
closed = 1;
nodes = (
"627 654 OFFCURVE",
"599 654 QCURVE SMOOTH",
"591 654 OFFCURVE",
"579 642 QCURVE",
"-4 4 LINE",
"-2 -8 OFFCURVE",
"21 -8 QCURVE SMOOTH",
"42 -8 OFFCURVE",
"54 4 QCURVE SMOOTH",
"60 10 OFFCURVE",
"636 640 QCURVE"
);
},
{
closed = 1;
nodes = (
"255 626 OFFCURVE",
"281 585 OFFCURVE",
"282 531 OFFCURVE",
"279 504 QCURVE SMOOTH",
"272 451 OFFCURVE",
"229 371 OFFCURVE",
"195 371 QCURVE SMOOTH",
"171 371 OFFCURVE",
"143 412 OFFCURVE",
"141 466 OFFCURVE",
"143 494 QCURVE",
"151 547 OFFCURVE",
"196 626 OFFCURVE",
"231 626 QCURVE SMOOTH"
);
},
{
closed = 1;
nodes = (
"177 658 OFFCURVE",
"71 549 OFFCURVE",
"65 479 QCURVE SMOOTH",
"59 420 OFFCURVE",
"123 338 OFFCURVE",
"181 338 QCURVE SMOOTH",
"247 338 OFFCURVE",
"353 446 OFFCURVE",
"359 515 QCURVE SMOOTH",
"365 574 OFFCURVE",
"302 658 OFFCURVE",
"244 658 QCURVE SMOOTH"
);
}
);
width = 644;
}
);
note = percent;
unicode = 0025;
},
{
glyphname = ampersand;
layers = (
{
layerId = "3968EB47-B6D1-4984-BCC6-AA3E1527005D";
paths = (
{
closed = 1;
nodes = (
"223 635 OFFCURVE",
"104 549 OFFCURVE",
"104 479 QCURVE SMOOTH",
"104 430 OFFCURVE",
"148 381 QCURVE",
"100 363 OFFCURVE",
"18 257 OFFCURVE",
"18 196 QCURVE SMOOTH",
"18 104 OFFCURVE",
"169 -14 OFFCURVE",
"270 -14 QCURVE SMOOTH",
"384 -14 OFFCURVE",
"564 125 OFFCURVE",
"564 224 QCURVE SMOOTH",
"564 296 OFFCURVE",
"508 346 QCURVE",
"528 344 OFFCURVE",
"534 344 QCURVE SMOOTH",
"584 344 OFFCURVE",
"644 400 OFFCURVE",
"644 444 QCURVE SMOOTH",
"644 491 OFFCURVE",
"573 542 OFFCURVE",
"508 542 QCURVE",
"484 523 OFFCURVE",
"484 497 QCURVE SMOOTH",
"484 481 OFFCURVE",
"505 457 OFFCURVE",
"520 457 QCURVE SMOOTH",
"531 457 OFFCURVE",
"560 477 OFFCURVE",
"571 477 QCURVE SMOOTH",
"584 477 OFFCURVE",
"604 458 OFFCURVE",
"604 444 QCURVE SMOOTH",
"604 415 OFFCURVE",
"552 384 OFFCURVE",
"518 384 QCURVE SMOOTH",
"503 384 OFFCURVE",
"457 386 OFFCURVE",
"442 386 QCURVE SMOOTH",
"384 386 OFFCURVE",
"298 312 OFFCURVE",
"298 257 QCURVE SMOOTH",
"298 219 OFFCURVE",
"353 164 OFFCURVE",
"376 164 QCURVE",
"414 174 OFFCURVE",
"414 217 QCURVE SMOOTH",
"414 244 OFFCURVE",
"373 254 QCURVE SMOOTH",
"344 261 OFFCURVE",
"344 280 QCURVE SMOOTH",
"344 304 OFFCURVE",
"383 332 OFFCURVE",
"409 332 QCURVE SMOOTH",
"442 332 OFFCURVE",
"479 275 OFFCURVE",
"479 237 QCURVE SMOOTH",
"479 154 OFFCURVE",
"362 34 OFFCURVE",
"282 34 QCURVE SMOOTH",
"209 34 OFFCURVE",
"121 133 OFFCURVE",
"121 204 QCURVE SMOOTH",
"121 291 OFFCURVE",
"180 341 QCURVE",
"204 320 OFFCURVE",
"242 320 QCURVE SMOOTH",
"267 320 OFFCURVE",
"306 341 OFFCURVE",
"306 360 QCURVE SMOOTH",
"306 380 OFFCURVE",
"261 404 OFFCURVE",
"234 404 QCURVE SMOOTH",
"215 404 OFFCURVE",
"194 398 QCURVE",
"164 424 OFFCURVE",
"164 470 QCURVE SMOOTH",
"164 518 OFFCURVE",
"224 587 OFFCURVE",
"270 587 QCURVE SMOOTH",
"301 587 OFFCURVE",
"344 546 OFFCURVE",
"344 514 QCURVE SMOOTH",
"344 497 OFFCURVE",
"335 470 OFFCURVE",
"335 469 QCURVE SMOOTH",
"335 461 OFFCURVE",
"346 461 QCURVE SMOOTH",
"363 461 OFFCURVE",
"406 514 OFFCURVE",
"406 543 QCURVE SMOOTH",
"406 585 OFFCURVE",
"338 635 OFFCURVE",
"292 635 QCURVE SMOOTH"
);
}
);
width = 649;
}
);
note = ampersand;
unicode = 0026;
},
{
glyphname = quotesingle;
layers = (
{
layerId = "3968EB47-B6D1-4984-BCC6-AA3E1527005D";
paths = (
{
closed = 1;
nodes = (
"106 698 OFFCURVE",
"63 653 OFFCURVE",
"60 636 QCURVE",
"60 623 OFFCURVE",
"64 558 OFFCURVE",
"64 487 OFFCURVE",
"60 447 QCURVE",
"59 441 OFFCURVE",
"68 434 OFFCURVE",
"74 434 QCURVE SMOOTH",
"92 434 OFFCURVE",
"96 449 QCURVE SMOOTH",
"104 478 OFFCURVE",
"152 602 OFFCURVE",
"158 633 QCURVE",
"164 677 OFFCURVE",
"153 698 OFFCURVE",
"130 698 QCURVE SMOOTH"
);
}
);
width = 176;
}
);
note = quotesingle;
unicode = 0027;
},
{
glyphname = parenleft;
layers = (
{
layerId = "3968EB47-B6D1-4984-BCC6-AA3E1527005D";
paths = (
{
closed = 1;
nodes = (
"339 720 OFFCURVE",
"339 722 QCURVE SMOOTH",
"339 728 LINE SMOOTH",
"339 748 OFFCURVE",
"332 748 QCURVE SMOOTH",
"307 748 OFFCURVE",
"209 656 OFFCURVE",
"107 510 OFFCURVE",
"31 295 OFFCURVE",
"31 190 QCURVE SMOOTH",
"31 123 OFFCURVE",
"61 -2 OFFCURVE",
"104 -82 OFFCURVE",
"147 -129 OFFCURVE",
"162 -129 QCURVE SMOOTH",
"167 -129 OFFCURVE",
"177 -112 OFFCURVE",
"178 -106 QCURVE",
"178 -100 LINE",
"157 -87 OFFCURVE",
"115 57 OFFCURVE",
"115 153 QCURVE SMOOTH",
"115 246 OFFCURVE",
"163 445 OFFCURVE",
"233 595 OFFCURVE",
"308 704 OFFCURVE",
"337 720 QCURVE"
);
}
);
width = 331;
}
);
note = parenleft;
unicode = 0028;
},
{
glyphname = parenright;
layers = (
{
layerId = "3968EB47-B6D1-4984-BCC6-AA3E1527005D";
paths = (
{
closed = 1;
nodes = (
"297 516 OFFCURVE",
"250 669 OFFCURVE",
"191 748 OFFCURVE",
"167 748 QCURVE SMOOTH",
"162 748 OFFCURVE",
"151 728 OFFCURVE",
"150 722 QCURVE",
"150 720 OFFCURVE",
"151 720 QCURVE",
"177 701 OFFCURVE",
"213 566 OFFCURVE",
"213 474 QCURVE SMOOTH",
"213 364 OFFCURVE",
"157 148 OFFCURVE",
"81 3 OFFCURVE",
"11 -91 OFFCURVE",
"-8 -100 QCURVE",
"-11 -102 OFFCURVE",
"-11 -106 QCURVE SMOOTH",
"-11 -111 LINE SMOOTH",
"-11 -129 OFFCURVE",
"-4 -129 QCURVE SMOOTH",
"13 -129 OFFCURVE",
"82 -76 OFFCURVE",
"168 27 OFFCURVE",
"245 158 OFFCURVE",
"297 337 OFFCURVE",
"297 428 QCURVE SMOOTH"
);
}
);
width = 322;
}
);
note = parenright;
unicode = 0029;
},
{
glyphname = asterisk;
layers = (
{
layerId = "3968EB47-B6D1-4984-BCC6-AA3E1527005D";
paths = (
{
closed = 1;
nodes = (
"209 515 OFFCURVE",
"209 582 QCURVE SMOOTH",
"209 602 OFFCURVE",
"208 623 OFFCURVE",
"202 651 OFFCURVE",
"188 664 OFFCURVE",
"176 664 QCURVE SMOOTH",
"160 664 OFFCURVE",
"137 639 OFFCURVE",
"137 620 QCURVE SMOOTH",
"137 596 OFFCURVE",
"189 520 OFFCURVE",
"189 510 QCURVE SMOOTH",
"189 497 OFFCURVE",
"165 497 QCURVE SMOOTH",
"156 497 OFFCURVE",
"103 504 OFFCURVE",
"87 504 QCURVE SMOOTH",
"62 504 OFFCURVE",
"32 485 OFFCURVE",
"25 466 OFFCURVE",
"25 457 QCURVE SMOOTH",
"25 445 OFFCURVE",
"43 430 OFFCURVE",
"56 430 QCURVE SMOOTH",
"77 430 OFFCURVE",
"169 473 OFFCURVE",
"177 473 QCURVE SMOOTH",
"186 473 OFFCURVE",
"186 464 QCURVE SMOOTH",
"186 453 OFFCURVE",
"119 352 OFFCURVE",
"119 330 QCURVE SMOOTH",
"119 317 OFFCURVE",
"136 300 OFFCURVE",
"147 300 QCURVE SMOOTH",
"177 300 OFFCURVE",
"189 340 QCURVE SMOOTH",
"196 362 OFFCURVE",
"202 429 OFFCURVE",
"208 464 OFFCURVE",
"228 464 OFFCURVE",
"259 422 OFFCURVE",
"297 381 OFFCURVE",
"315 381 QCURVE SMOOTH",
"330 381 OFFCURVE",
"357 406 OFFCURVE",
"357 421 QCURVE SMOOTH",
"357 440 OFFCURVE",
"319 464 OFFCURVE",
"272 472 OFFCURVE",
"234 483 OFFCURVE",
"234 492 QCURVE SMOOTH",
"234 505 OFFCURVE",
"300 536 OFFCURVE",
"366 579 OFFCURVE",
"366 605 QCURVE SMOOTH",
"366 634 OFFCURVE",
"341 634 QCURVE SMOOTH",
"323 634 OFFCURVE",
"283 597 OFFCURVE",
"255 552 OFFCURVE",
"227 515 OFFCURVE",
"219 515 QCURVE SMOOTH"
);
}
);
width = 377;
}
);
note = asterisk;
unicode = 002A;
},
{
glyphname = plus;
layers = (
{
layerId = "3968EB47-B6D1-4984-BCC6-AA3E1527005D";
paths = (
{
closed = 1;
nodes = (
"233 434 OFFCURVE",
"213 315 OFFCURVE",
"207 286 QCURVE",
"207 282 OFFCURVE",
"203 282 QCURVE SMOOTH",
"32 282 OFFCURVE",
"32 282 QCURVE",
"8 254 OFFCURVE",
"8 232 QCURVE SMOOTH",
"8 218 OFFCURVE",
"12 218 QCURVE SMOOTH",
"187 218 LINE SMOOTH",
"191 218 OFFCURVE",
"191 213 QCURVE",
"155 21 LINE",
"154 18 OFFCURVE",
"162 12 OFFCURVE",
"170 12 QCURVE SMOOTH",
"186 12 OFFCURVE",
"227 23 OFFCURVE",
"228 30 QCURVE",
"263 214 OFFCURVE",
"263 214 QCURVE",
"263 218 OFFCURVE",
"267 218 QCURVE SMOOTH",
"440 218 LINE",
"463 243 OFFCURVE",
"463 268 QCURVE SMOOTH",
"463 282 OFFCURVE",
"459 282 QCURVE SMOOTH",
"282 282 LINE SMOOTH",
"277 282 OFFCURVE",
"279 287 QCURVE",
"291 349 OFFCURVE",
"314 479 QCURVE",
"315 483 OFFCURVE",
"310 488 OFFCURVE",
"304 488 QCURVE SMOOTH",
"292 488 OFFCURVE",
"242 479 OFFCURVE",
"240 470 QCURVE SMOOTH"
);
}
);
width = 482;
}
);
note = plus;
unicode = 002B;
},
{
glyphname = comma;
layers = (
{
layerId = "3968EB47-B6D1-4984-BCC6-AA3E1527005D";
paths = (
{
closed = 1;
nodes = (
"5 -145 OFFCURVE",
"17 -164 OFFCURVE",
"22 -166 QCURVE",
"137 -93 OFFCURVE",
"174 8 QCURVE",
"195 50 OFFCURVE",
"195 98 QCURVE SMOOTH",
"195 108 OFFCURVE",
"192 126 QCURVE",
"184 131 OFFCURVE",
"164 131 QCURVE SMOOTH",
"130 131 OFFCURVE",
"79 93 OFFCURVE",
"79 64 QCURVE SMOOTH",
"79 54 OFFCURVE",
"93 5 OFFCURVE",
"93 -7 QCURVE SMOOTH",
"93 -41 OFFCURVE",
"49 -101 OFFCURVE",
"5 -136 OFFCURVE",
"5 -138 QCURVE SMOOTH"
);
}
);
width = 245;
}
);
note = comma;
unicode = 002C;
},
{
glyphname = hyphen;
layers = (
{
layerId = "3968EB47-B6D1-4984-BCC6-AA3E1527005D";
paths = (
{
closed = 1;
nodes = (
"47 263 OFFCURVE",
"31 221 OFFCURVE",
"31 211 QCURVE SMOOTH",
"31 196 OFFCURVE",
"36 196 QCURVE",
"262 207 LINE",
"269 208 OFFCURVE",
"287 253 OFFCURVE",
"287 264 QCURVE SMOOTH",
"287 276 OFFCURVE",
"280 276 QCURVE",
"54 264 LINE"
);
}
);
width = 327;
}
);
note = hyphen;
unicode = 002D;
},
{
glyphname = period;
layers = (
{
layerId = "3968EB47-B6D1-4984-BCC6-AA3E1527005D";
paths = (
{
closed = 1;
nodes = (
"148 87 OFFCURVE",
"119 121 OFFCURVE",
"95 121 QCURVE SMOOTH",
"68 121 OFFCURVE",
"24 79 OFFCURVE",
"21 50 QCURVE SMOOTH",
"18 24 OFFCURVE",
"47 -12 OFFCURVE",
"71 -12 QCURVE SMOOTH",
"98 -12 OFFCURVE",
"142 33 OFFCURVE",
"145 62 QCURVE SMOOTH"
);
}
);
width = 196;
}
);
note = period;
unicode = 002E;
},
{
glyphname = slash;
layers = (
{
layerId = "3968EB47-B6D1-4984-BCC6-AA3E1527005D";
paths = (
{
closed = 1;
nodes = (
"487 761 OFFCURVE",
"465 761 QCURVE SMOOTH",
"430 761 OFFCURVE",
"418 739 QCURVE SMOOTH",
"-7 -28 LINE",
"-1 -34 OFFCURVE",
"10 -34 QCURVE SMOOTH",
"32 -34 OFFCURVE",
"66 -18 OFFCURVE",
"69 -12 QCURVE",
"493 755 LINE"
);
}
);
width = 485;
}
);
note = slash;
unicode = 002F;
},
{
glyphname = zero;
layers = (
{
layerId = "3968EB47-B6D1-4984-BCC6-AA3E1527005D";
paths = (
{
closed = 1;
nodes = (
"339 582 OFFCURVE",
"369 470 OFFCURVE",
"357 376 QCURVE SMOOTH",
"344 249 OFFCURVE",
"252 41 OFFCURVE",
"197 41 QCURVE SMOOTH",
"161 41 OFFCURVE",
"127 159 OFFCURVE",
"139 252 QCURVE",
"151 383 OFFCURVE",
"248 582 OFFCURVE",
"302 582 QCURVE SMOOTH"
);
},
{
closed = 1;
nodes = (
"216 625 OFFCURVE",
"47 406 OFFCURVE",
"34 266 QCURVE SMOOTH",
"21 152 OFFCURVE",
"110 -3 OFFCURVE",
"187 -3 QCURVE SMOOTH",
"281 -3 OFFCURVE",
"448 218 OFFCURVE",
"461 357 QCURVE SMOOTH",
"474 471 OFFCURVE",
"387 625 OFFCURVE",
"310 625 QCURVE SMOOTH"
);
}
);
width = 488;
}
);
note = zero;
unicode = 0030;
},
{
glyphname = one;
layers = (
{
layerId = "3968EB47-B6D1-4984-BCC6-AA3E1527005D";
paths = (
{
closed = 1;
nodes = (
"269 637 OFFCURVE",
"62 510 QCURVE",
"58 506 OFFCURVE",
"58 500 QCURVE SMOOTH",
"58 484 OFFCURVE",
"68 480 QCURVE",
"126 510 OFFCURVE",
"140 510 QCURVE SMOOTH",
"150 510 OFFCURVE",
"150 493 QCURVE SMOOTH",
"150 477 OFFCURVE",
"144 447 QCURVE SMOOTH",
"80 124 LINE SMOOTH",
"67 64 OFFCURVE",
"59 51 QCURVE",
"55 43 OFFCURVE",
"12 27 OFFCURVE",
"2 27 QCURVE SMOOTH",
"-6 27 OFFCURVE",
"-6 4 QCURVE SMOOTH",
"-6 -1 OFFCURVE",
"-4 -3 QCURVE",
"9 -2 OFFCURVE",
"53 1 OFFCURVE",
"90 3 OFFCURVE",
"122 3 OFFCURVE",
"158 1 OFFCURVE",
"200 -2 OFFCURVE",
"213 -3 QCURVE",
"218 7 OFFCURVE",
"218 22 QCURVE SMOOTH",
"218 27 OFFCURVE",
"217 27 QCURVE SMOOTH",
"205 27 OFFCURVE",
"170 43 OFFCURVE",
"170 60 QCURVE SMOOTH",
"170 84 OFFCURVE",
"178 130 QCURVE SMOOTH",
"254 524 LINE SMOOTH",
"266 587 OFFCURVE",
"282 618 QCURVE",
"282 637 OFFCURVE",
"273 637 QCURVE SMOOTH"
);
}
);
width = 286;
}
);
note = one;
unicode = 0031;
},
{
glyphname = two;
layers = (
{
layerId = "3968EB47-B6D1-4984-BCC6-AA3E1527005D";
paths = (
{
closed = 1;
nodes = (
"320 463 OFFCURVE",
"320 461 QCURVE",
"320 468 OFFCURVE",
"319 474 QCURVE",
"318 475 OFFCURVE",
"318 464 QCURVE",
"304 332 OFFCURVE",
"-4 33 QCURVE",
"-6 23 OFFCURVE",
"-6 21 QCURVE SMOOTH",
"-6 10 OFFCURVE",
"1 0 QCURVE",
"8 0 OFFCURVE",
"210 1 QCURVE SMOOTH",
"345 0 LINE",
"355 30 OFFCURVE",
"399 134 OFFCURVE",
"405 149 QCURVE",
"402 156 OFFCURVE",
"392 156 QCURVE SMOOTH",
"372 156 OFFCURVE",
"367 147 QCURVE",
"366 146 OFFCURVE",
"354 121 OFFCURVE",
"349 115 OFFCURVE",
"335 97 OFFCURVE",
"322 91 OFFCURVE",
"299 84 OFFCURVE",
"286 84 QCURVE SMOOTH",
"114 84 LINE SMOOTH",
"110 84 OFFCURVE",
"110 88 QCURVE SMOOTH",
"110 93 OFFCURVE",
"112 95 QCURVE",
"184 155 OFFCURVE",
"275 239 OFFCURVE",
"379 354 OFFCURVE",
"430 463 OFFCURVE",
"430 516 QCURVE SMOOTH",
"430 571 OFFCURVE",
"368 638 OFFCURVE",
"312 638 QCURVE SMOOTH",
"262 638 OFFCURVE",
"145 566 OFFCURVE",
"112 526 QCURVE",
"108 522 OFFCURVE",
"108 509 QCURVE SMOOTH",
"108 490 OFFCURVE",
"120 490 QCURVE SMOOTH",
"122 490 OFFCURVE",
"156 526 OFFCURVE",
"214 563 OFFCURVE",
"282 563 OFFCURVE",
"320 517 OFFCURVE",
"320 480 QCURVE SMOOTH"
);
}
);
width = 444;
}
);
note = two;
unicode = 0032;
},
{
glyphname = three;
layers = (
{
layerId = "3968EB47-B6D1-4984-BCC6-AA3E1527005D";
paths = (
{
closed = 1;
nodes = (
"196 638 OFFCURVE",
"121 554 QCURVE",
"117 550 OFFCURVE",
"117 536 QCURVE SMOOTH",
"117 520 OFFCURVE",
"125 520 QCURVE SMOOTH",
"129 520 OFFCURVE",
"165 546 OFFCURVE",
"221 572 OFFCURVE",
"247 572 QCURVE SMOOTH",
"271 572 OFFCURVE",
"306 535 OFFCURVE",
"302 506 QCURVE SMOOTH",
"296 451 OFFCURVE",
"208 364 OFFCURVE",
"138 349 QCURVE",
"132 340 OFFCURVE",
"132 330 QCURVE",
"130 318 OFFCURVE",
"135 309 QCURVE",
"178 316 OFFCURVE",
"203 316 QCURVE SMOOTH",
"243 316 OFFCURVE",
"291 251 OFFCURVE",
"285 200 QCURVE SMOOTH",
"279 133 OFFCURVE",
"200 42 OFFCURVE",
"139 42 QCURVE SMOOTH",
"115 42 OFFCURVE",
"61 100 OFFCURVE",
"42 100 QCURVE SMOOTH",
"24 100 OFFCURVE",
"-3 72 OFFCURVE",
"-3 51 QCURVE SMOOTH",
"-3 35 OFFCURVE",
"-1 30 QCURVE",
"8 16 OFFCURVE",
"60 -4 OFFCURVE",
"100 -4 QCURVE SMOOTH",
"207 -4 OFFCURVE",
"381 131 OFFCURVE",
"391 228 QCURVE SMOOTH",
"398 292 OFFCURVE",
"321 374 OFFCURVE",
"288 374 QCURVE",
"290 375 OFFCURVE",
"315 396 OFFCURVE",
"322 402 OFFCURVE",
"345 423 OFFCURVE",
"353 434 OFFCURVE",
"371 456 OFFCURVE",
"379 473 OFFCURVE",
"390 496 OFFCURVE",
"395 521 OFFCURVE",
"396 535 QCURVE",
"402 584 OFFCURVE",
"348 638 OFFCURVE",
"313 638 QCURVE SMOOTH"
);
}
);
width = 426;
}
);
note = three;
unicode = 0033;
},
{
glyphname = four;
layers = (
{
layerId = "3968EB47-B6D1-4984-BCC6-AA3E1527005D";
paths = (
{
closed = 1;
nodes = (
"408 644 OFFCURVE",
"391 627 QCURVE SMOOTH",
"7 222 LINE",
"5 212 OFFCURVE",
"5 201 QCURVE SMOOTH",
"5 186 OFFCURVE",
"13 178 QCURVE",
"241 178 LINE SMOOTH",
"247 178 OFFCURVE",
"247 173 QCURVE",
"215 6 LINE",
"212 -4 OFFCURVE",
"254 -4 QCURVE SMOOTH",
"282 -4 OFFCURVE",
"308 2 QCURVE",
"341 172 LINE SMOOTH",
"342 178 OFFCURVE",
"347 178 QCURVE SMOOTH",
"399 178 LINE",
"411 202 OFFCURVE",
"411 228 QCURVE SMOOTH",
"411 242 OFFCURVE",
"403 242 QCURVE SMOOTH",
"362 242 LINE SMOOTH",
"353 242 OFFCURVE",
"355 250 QCURVE",
"430 630 LINE SMOOTH",
"431 635 OFFCURVE",
"424 644 OFFCURVE",
"419 644 QCURVE SMOOTH"
);
},
{
closed = 1;
nodes = (
"263 250 LINE",
"261 245 OFFCURVE",
"253 242 QCURVE",
"97 242 LINE SMOOTH",
"93 242 OFFCURVE",
"93 249 QCURVE SMOOTH",
"93 252 OFFCURVE",
"95 254 QCURVE SMOOTH",
"299 470 LINE",
"301 472 LINE",
"305 472 OFFCURVE",
"303 464 QCURVE"
);
}
);
width = 444;
}
);
note = four;
unicode = 0034;
},
{
glyphname = five;
layers = (
{
layerId = "3968EB47-B6D1-4984-BCC6-AA3E1527005D";
paths = (
{
closed = 1;
nodes = (
"421 575 OFFCURVE",
"425 614 QCURVE",
"428 629 OFFCURVE",
"423 638 QCURVE",
"397 632 OFFCURVE",
"181 632 QCURVE SMOOTH",
"178 632 OFFCURVE",
"138 515 OFFCURVE",
"81 339 OFFCURVE",
"77 329 QCURVE",
"83 315 OFFCURVE",
"89 315 QCURVE",
"124 320 LINE SMOOTH",
"158 325 OFFCURVE",
"187 325 QCURVE SMOOTH",
"233 325 OFFCURVE",
"289 245 OFFCURVE",
"282 184 QCURVE SMOOTH",
"277 125 OFFCURVE",
"205 42 OFFCURVE",
"139 42 QCURVE SMOOTH",
"115 42 OFFCURVE",
"62 100 OFFCURVE",
"43 100 QCURVE SMOOTH",
"26 100 OFFCURVE",
"-2 72 OFFCURVE",
"-2 51 QCURVE SMOOTH",
"-2 35 OFFCURVE",
"0 30 QCURVE",
"9 16 OFFCURVE",
"61 -4 OFFCURVE",
"101 -4 QCURVE SMOOTH",
"220 -4 OFFCURVE",
"380 136 OFFCURVE",
"391 232 QCURVE SMOOTH",
"398 301 OFFCURVE",
"298 408 OFFCURVE",
"229 408 QCURVE SMOOTH",
"196 408 OFFCURVE",
"147 401 QCURVE",
"193 536 LINE",
"195 543 OFFCURVE",
"248 546 OFFCURVE",
"341 546 QCURVE SMOOTH",
"379 546 OFFCURVE",
"402 546 QCURVE"
);
}
);
width = 436;
}
);
note = five;
unicode = 0035;
},
{
glyphname = six;
layers = (
{
layerId = "3968EB47-B6D1-4984-BCC6-AA3E1527005D";
paths = (
{
closed = 1;
nodes = (
"206 317 OFFCURVE",
"234 311 QCURVE",
"292 305 OFFCURVE",
"292 220 QCURVE SMOOTH",
"292 146 OFFCURVE",
"225 40 OFFCURVE",
"183 40 QCURVE SMOOTH",
"150 40 OFFCURVE",
"118 93 OFFCURVE",
"118 136 QCURVE SMOOTH",
"118 243 OFFCURVE",
"160 342 QCURVE SMOOTH",
"238 526 OFFCURVE",
"440 612 QCURVE",
"440 635 OFFCURVE",
"426 639 QCURVE",
"336 603 OFFCURVE",
"192 502 OFFCURVE",
"103 399 OFFCURVE",
"43 289 OFFCURVE",
"20 199 OFFCURVE",
"20 161 QCURVE SMOOTH",
"20 89 OFFCURVE",
"103 -6 OFFCURVE",
"170 -6 QCURVE SMOOTH",
"252 -6 OFFCURVE",
"392 137 OFFCURVE",
"392 223 QCURVE SMOOTH",
"392 284 OFFCURVE",
"318 367 OFFCURVE",
"262 367 QCURVE SMOOTH",
"241 367 OFFCURVE",
"188 345 OFFCURVE",
"188 319 OFFCURVE",
"194 316 QCURVE"
);
}
);
width = 443;
}
);
note = six;
unicode = 0036;
},
{
glyphname = seven;
layers = (
{
layerId = "3968EB47-B6D1-4984-BCC6-AA3E1527005D";
paths = (
{
closed = 1;
nodes = (
"37 -11 OFFCURVE",
"40 -10 QCURVE",
"434 542 LINE SMOOTH",
"474 598 OFFCURVE",
"474 613 QCURVE SMOOTH",
"474 618 OFFCURVE",
"468 618 QCURVE SMOOTH",
"467 618 OFFCURVE",
"421 615 OFFCURVE",
"407 615 QCURVE SMOOTH",
"104 615 LINE SMOOTH",
"87 615 OFFCURVE",
"84 603 QCURVE",
"79 586 OFFCURVE",
"41 487 OFFCURVE",
"33 462 QCURVE",
"38 456 OFFCURVE",
"51 456 QCURVE SMOOTH",
"61 456 LINE",
"61 457 OFFCURVE",
"70 475 OFFCURVE",
"75 483 OFFCURVE",
"85 501 OFFCURVE",
"95 510 OFFCURVE",
"108 522 OFFCURVE",
"123 527 OFFCURVE",
"131 527 QCURVE SMOOTH",
"148 527 OFFCURVE",
"352 528 OFFCURVE",
"373 528 QCURVE",
"10 28 LINE",
"6 22 OFFCURVE",
"6 15 QCURVE SMOOTH",
"6 4 OFFCURVE",
"21 -11 OFFCURVE",
"33 -11 QCURVE SMOOTH"
);
}
);
width = 469;
}
);
note = seven;
unicode = 0037;
},
{
glyphname = eight;
layers = (
{
layerId = "3968EB47-B6D1-4984-BCC6-AA3E1527005D";
paths = (
{
closed = 1;
nodes = (
"143 37 OFFCURVE",
"111 83 OFFCURVE",
"111 121 QCURVE SMOOTH",
"111 167 OFFCURVE",
"151 269 OFFCURVE",
"183 286 QCURVE",
"186 289 OFFCURVE",
"192 289 OFFCURVE",
"198 283 QCURVE SMOOTH",
"200 281 OFFCURVE",
"224 261 OFFCURVE",
"232 253 OFFCURVE",
"252 234 OFFCURVE",
"260 219 OFFCURVE",
"271 198 OFFCURVE",
"276 176 OFFCURVE",
"276 164 QCURVE SMOOTH",
"276 150 OFFCURVE",
"267 112 OFFCURVE",
"247 67 OFFCURVE",
"202 37 OFFCURVE",
"172 37 QCURVE SMOOTH"
);
},
{
closed = 1;
nodes = (
"307 588 OFFCURVE",
"334 551 OFFCURVE",
"334 520 QCURVE SMOOTH",
"334 478 OFFCURVE",
"307 410 OFFCURVE",
"267 372 QCURVE SMOOTH",
"263 368 OFFCURVE",
"257 368 OFFCURVE",
"250 373 QCURVE",
"191 419 OFFCURVE",
"191 466 QCURVE SMOOTH",
"191 503 OFFCURVE",
"240 588 OFFCURVE",
"282 588 QCURVE SMOOTH"
);
},
{
closed = 1;
nodes = (
"213 633 OFFCURVE",
"93 526 OFFCURVE",
"93 446 QCURVE SMOOTH",
"93 421 OFFCURVE",
"110 375 OFFCURVE",
"127 352 OFFCURVE",
"152 326 OFFCURVE",
"154 324 QCURVE SMOOTH",
"158 320 OFFCURVE",
"153 318 QCURVE",
"121 303 OFFCURVE",
"65 262 OFFCURVE",
"12 177 OFFCURVE",
"12 126 QCURVE SMOOTH",
"12 64 OFFCURVE",
"96 -6 OFFCURVE",
"160 -6 QCURVE SMOOTH",
"247 -6 OFFCURVE",
"381 119 OFFCURVE",
"381 191 QCURVE SMOOTH",
"381 212 OFFCURVE",
"367 253 OFFCURVE",
"342 287 OFFCURVE",
"322 310 OFFCURVE",
"297 333 OFFCURVE",
"295 335 OFFCURVE",
"295 338 OFFCURVE",
"297 338 QCURVE",
"429 411 OFFCURVE",
"429 518 QCURVE SMOOTH",
"429 572 OFFCURVE",
"350 633 OFFCURVE",
"285 633 QCURVE SMOOTH"
);
}
);
width = 438;
}
);
note = eight;
unicode = 0038;
},
{
glyphname = nine;
layers = (
{
layerId = "3968EB47-B6D1-4984-BCC6-AA3E1527005D";
paths = (
{
closed = 1;
nodes = (
"258 314 OFFCURVE",
"251 317 QCURVE",
"240 316 OFFCURVE",
"212 322 QCURVE",
"153 328 OFFCURVE",
"153 413 QCURVE SMOOTH",
"153 487 OFFCURVE",
"221 594 OFFCURVE",
"263 594 QCURVE SMOOTH",
"327 594 OFFCURVE",
"327 497 QCURVE SMOOTH",
"327 390 OFFCURVE",
"285 291 QCURVE SMOOTH",
"207 108 OFFCURVE",
"5 22 QCURVE",
"5 -2 OFFCURVE",
"19 -6 QCURVE",
"109 30 OFFCURVE",
"253 131 OFFCURVE",
"342 234 OFFCURVE",
"402 344 OFFCURVE",
"425 434 OFFCURVE",
"425 472 QCURVE SMOOTH",
"425 544 OFFCURVE",
"341 640 OFFCURVE",
"275 640 QCURVE SMOOTH",
"193 640 OFFCURVE",
"53 496 OFFCURVE",
"53 410 QCURVE SMOOTH",
"53 349 OFFCURVE",
"126 266 OFFCURVE",
"183 266 QCURVE SMOOTH",
"204 266 OFFCURVE",
"258 288 OFFCURVE",
"258 300 QCURVE SMOOTH"
);
}
);
width = 435;
}
);
note = nine;
unicode = 0039;
},
{
glyphname = colon;
layers = (
{
layerId = "3968EB47-B6D1-4984-BCC6-AA3E1527005D";
paths = (
{
closed = 1;
nodes = (
"69 328 OFFCURVE",
"98 296 OFFCURVE",
"121 296 QCURVE SMOOTH",
"149 296 OFFCURVE",
"196 348 OFFCURVE",
"196 379 QCURVE SMOOTH",
"196 402 OFFCURVE",
"169 432 OFFCURVE",
"147 432 QCURVE SMOOTH",
"118 432 OFFCURVE",
"69 383 OFFCURVE",
"69 352 QCURVE SMOOTH"
);
},
{
closed = 1;
nodes = (
"10 20 OFFCURVE",
"39 -12 OFFCURVE",
"61 -12 QCURVE SMOOTH",
"89 -12 OFFCURVE",
"136 39 OFFCURVE",
"136 70 QCURVE SMOOTH",
"136 93 OFFCURVE",
"109 124 OFFCURVE",
"87 124 QCURVE SMOOTH",
"58 124 OFFCURVE",
"10 74 OFFCURVE",
"10 43 QCURVE SMOOTH"
);
}
);
width = 218;
}
);
note = colon;
unicode = 003A;
},
{
glyphname = semicolon;
layers = (
{
layerId = "3968EB47-B6D1-4984-BCC6-AA3E1527005D";
paths = (
{
closed = 1;
nodes = (
"82 166 OFFCURVE",
"62 172 QCURVE",
"48 182 OFFCURVE",
"56 226 OFFCURVE",
"73 242 QCURVE",
"82 257 OFFCURVE",
"112 268 OFFCURVE",
"126 261 QCURVE",
"133 259 OFFCURVE",
"129 236 OFFCURVE",
"121 215 OFFCURVE",
"109 189 OFFCURVE",
"108 185 QCURVE"
);
},
{
closed = 1;
nodes = (
"42 156 OFFCURVE",
"34 128 OFFCURVE",
"27 111 OFFCURVE",
"22 97 OFFCURVE",
"22 89 OFFCURVE",
"26 88 QCURVE",
"34 85 OFFCURVE",
"25 71 OFFCURVE",
"33 71 QCURVE SMOOTH",
"34 71 LINE",
"58 82 OFFCURVE",
"80 103 OFFCURVE",
"97 134 OFFCURVE",
"108 145 QCURVE",
"117 145 OFFCURVE",
"114 176 OFFCURVE",
"122 181 QCURVE",
"133 187 OFFCURVE",
"117 215 OFFCURVE",
"122 218 QCURVE",
"131 221 OFFCURVE",
"141 244 OFFCURVE",
"138 258 QCURVE",
"130 262 OFFCURVE",
"114 264 OFFCURVE",
"98 260 OFFCURVE",
"90 256 OFFCURVE",
"73 246 OFFCURVE",
"72 246 QCURVE",
"57 228 OFFCURVE",
"46 199 OFFCURVE",
"44 170 QCURVE"
);
}
);
width = 174;
}
);
note = semicolon;
unicode = 003B;
},
{
glyphname = less;
layers = (
{
layerId = "3968EB47-B6D1-4984-BCC6-AA3E1527005D";
paths = (
{
closed = 1;
nodes = (
"420 369 OFFCURVE",
"420 369 QCURVE",
"425 372 OFFCURVE",
"425 390 QCURVE SMOOTH",
"425 430 OFFCURVE",
"419 430 QCURVE",
"415 428 LINE",
"32 241 LINE SMOOTH",
"12 231 OFFCURVE",
"10 210 QCURVE",
"6 185 OFFCURVE",
"19 177 QCURVE SMOOTH",
"331 -13 LINE",
"333 -14 OFFCURVE",
"335 -14 QCURVE SMOOTH",
"339 -14 OFFCURVE",
"361 32 OFFCURVE",
"361 40 QCURVE SMOOTH",
"361 44 OFFCURVE",
"359 46 QCURVE",
"89 209 LINE"
);
}
);
width = 433;
}
);
note = less;
unicode = 003C;
},
{
glyphname = equal;
layers = (
{
layerId = "3968EB47-B6D1-4984-BCC6-AA3E1527005D";
paths = (
{
closed = 1;
nodes = (
"43 175 OFFCURVE",
"26 140 OFFCURVE",
"26 114 OFFCURVE",
"33 114 QCURVE SMOOTH",
"436 114 LINE",
"443 117 OFFCURVE",
"460 152 OFFCURVE",
"460 178 OFFCURVE",
"453 178 QCURVE SMOOTH",
"50 178 LINE"
);
},
{
closed = 1;
nodes = (
"70 316 OFFCURVE",
"53 281 OFFCURVE",
"53 255 OFFCURVE",
"60 255 QCURVE SMOOTH",
"463 255 LINE",
"470 258 OFFCURVE",
"487 293 OFFCURVE",
"487 319 OFFCURVE",
"480 319 QCURVE SMOOTH",
"77 319 LINE"
);
}
);
width = 521;
}
);
note = equal;
unicode = 003D;
},
{
glyphname = greater;
layers = (
{
layerId = "3968EB47-B6D1-4984-BCC6-AA3E1527005D";
paths = (
{
closed = 1;
nodes = (
"5 46 LINE",
"4 46 LINE",
"2 45 OFFCURVE",
"0 41 OFFCURVE",
"0 39 QCURVE SMOOTH",
"0 -15 OFFCURVE",
"5 -15 QCURVE SMOOTH",
"7 -15 OFFCURVE",
"11 -13 QCURVE SMOOTH",
"395 177 LINE SMOOTH",
"414 187 OFFCURVE",
"420 219 QCURVE",
"422 234 OFFCURVE",
"408 241 QCURVE",
"99 428 LINE",
"95 430 LINE",
"92 430 OFFCURVE",
"74 393 OFFCURVE",
"69 376 QCURVE",
"70 369 OFFCURVE",
"70 369 QCURVE",
"339 209 LINE"
);
}
);
width = 438;
}
);
note = greater;
unicode = 003E;
},
{
glyphname = question;
layers = (
{
layerId = "3968EB47-B6D1-4984-BCC6-AA3E1527005D";
paths = (
{
closed = 1;
nodes = (
"11 18 OFFCURVE",
"39 -12 OFFCURVE",
"60 -12 QCURVE SMOOTH",
"88 -12 OFFCURVE",
"136 37 OFFCURVE",
"136 68 QCURVE SMOOTH",
"136 91 OFFCURVE",
"106 121 OFFCURVE",
"84 121 QCURVE SMOOTH",
"56 121 OFFCURVE",
"11 73 OFFCURVE",
"11 41 QCURVE SMOOTH"
);
},
{
closed = 1;
nodes = (
"164 208 OFFCURVE",
"120 248 OFFCURVE",
"120 266 QCURVE SMOOTH",
"120 296 OFFCURVE",
"156 316 QCURVE SMOOTH",
"225 354 OFFCURVE",
"266 382 QCURVE",
"325 419 OFFCURVE",
"325 501 QCURVE SMOOTH",
"325 557 OFFCURVE",
"234 638 OFFCURVE",
"172 638 QCURVE SMOOTH",
"118 638 OFFCURVE",
"94 593 QCURVE",
"89 567 OFFCURVE",
"112 526 OFFCURVE",
"136 526 QCURVE SMOOTH",
"150 526 OFFCURVE",
"190 572 OFFCURVE",
"208 572 QCURVE SMOOTH",
"235 572 OFFCURVE",
"263 540 OFFCURVE",
"263 515 QCURVE SMOOTH",
"263 476 OFFCURVE",
"211 448 QCURVE",
"101 383 LINE SMOOTH",
"46 350 OFFCURVE",
"46 290 QCURVE SMOOTH",
"46 253 OFFCURVE",
"129 188 OFFCURVE",
"153 188 QCURVE",
"164 195 OFFCURVE",
"164 205 QCURVE SMOOTH"
);
}
);
width = 327;
}
);
note = question;
unicode = 003F;
},
{
glyphname = at;
layers = (
{
layerId = "3968EB47-B6D1-4984-BCC6-AA3E1527005D";
paths = (
{
closed = 1;
nodes = (
"360 -167 OFFCURVE",
"416 -139 OFFCURVE",
"419 -122 QCURVE",
"419 -113 LINE",
"384 -126 OFFCURVE",
"352 -126 QCURVE SMOOTH",
"186 -126 OFFCURVE",
"64 65 OFFCURVE",
"94 223 QCURVE SMOOTH",
"119 353 OFFCURVE",
"329 524 OFFCURVE",
"457 524 QCURVE SMOOTH",
"573 524 OFFCURVE",
"679 344 OFFCURVE",
"654 214 QCURVE SMOOTH",
"649 189 OFFCURVE",
"631 135 OFFCURVE",
"598 71 OFFCURVE",
"544 31 OFFCURVE",
"511 31 QCURVE SMOOTH",
"463 31 OFFCURVE",
"493 134 QCURVE SMOOTH",
"555 348 LINE SMOOTH",
"561 370 OFFCURVE",
"572 401 QCURVE",
"486 410 LINE",
"368 410 OFFCURVE",
"195 248 OFFCURVE",
"174 141 QCURVE SMOOTH",
"163 84 OFFCURVE",
"201 -7 OFFCURVE",
"250 -7 QCURVE SMOOTH",
"288 -7 OFFCURVE",
"380 52 OFFCURVE",
"398 78 QCURVE",
"399 79 OFFCURVE",
"403 81 OFFCURVE",
"403 80 QCURVE",
"396 47 OFFCURVE",
"447 -13 OFFCURVE",
"493 -13 QCURVE SMOOTH",
"560 -13 OFFCURVE",
"684 102 OFFCURVE",
"710 233 QCURVE SMOOTH",
"726 314 OFFCURVE",
"686 470 OFFCURVE",
"565 578 OFFCURVE",
"477 578 QCURVE SMOOTH",
"316 578 OFFCURVE",
"59 365 OFFCURVE",
"24 185 QCURVE SMOOTH",
"12 122 OFFCURVE",
"39 -6 OFFCURVE",
"110 -108 OFFCURVE",
"235 -171 OFFCURVE",
"313 -170 QCURVE"
);
},
{
closed = 1;
nodes = (
"415 152 OFFCURVE",
"321 53 OFFCURVE",
"288 53 QCURVE SMOOTH",
"243 53 OFFCURVE",
"261 143 QCURVE SMOOTH",
"282 252 OFFCURVE",
"398 369 OFFCURVE",
"452 356 QCURVE",
"459 355 OFFCURVE",
"463 353 QCURVE",
"471 347 OFFCURVE",
"464 322 QCURVE SMOOTH",
"421 176 LINE"
);
}
);
width = 748;
}
);
note = at;
unicode = 0040;
},
{
glyphname = A;
layers = (
{
layerId = "3968EB47-B6D1-4984-BCC6-AA3E1527005D";
paths = (
{
closed = 1;
nodes = (
"399 231 OFFCURVE",
"417 228 QCURVE",
"422 228 OFFCURVE",
"422 223 QCURVE",
"442 89 OFFCURVE",
"442 80 QCURVE SMOOTH",
"442 62 OFFCURVE",
"436 50 QCURVE",
"431 42 OFFCURVE",
"391 27 OFFCURVE",
"381 27 QCURVE SMOOTH",
"375 27 OFFCURVE",
"375 3 QCURVE SMOOTH",
"375 -2 OFFCURVE",
"376 -3 QCURVE",
"490 3 OFFCURVE",
"501 3 QCURVE SMOOTH",
"504 3 OFFCURVE",
"615 -3 QCURVE",
"619 5 OFFCURVE",
"619 21 QCURVE SMOOTH",
"619 27 OFFCURVE",
"617 27 QCURVE SMOOTH",
"607 27 OFFCURVE",
"566 48 OFFCURVE",
"563 63 QCURVE SMOOTH",
"552 120 OFFCURVE",
"549 136 QCURVE SMOOTH",
"455 660 LINE",
"451 664 OFFCURVE",
"445 664 QCURVE SMOOTH",
"424 664 OFFCURVE",
"393 610 QCURVE SMOOTH",
"116 136 LINE SMOOTH",
"80 75 OFFCURVE",
"66 58 QCURVE",
"58 47 OFFCURVE",
"5 27 OFFCURVE",
"-6 27 QCURVE SMOOTH",
"-12 27 OFFCURVE",
"-12 4 QCURVE SMOOTH",
"-12 1 OFFCURVE",
"-10 -3 QCURVE",
"3 -2 OFFCURVE",
"74 3 OFFCURVE",
"99 3 QCURVE SMOOTH",
"123 3 OFFCURVE",
"180 -2 OFFCURVE",
"191 -3 QCURVE",
"197 9 OFFCURVE",
"197 22 QCURVE SMOOTH",
"197 27 OFFCURVE",
"195 27 QCURVE SMOOTH",
"183 27 OFFCURVE",
"135 44 OFFCURVE",
"135 60 QCURVE SMOOTH",
"135 79 OFFCURVE",
"166 131 QCURVE SMOOTH",
"173 143 OFFCURVE",
"218 215 OFFCURVE",
"223 224 QCURVE",
"225 228 OFFCURVE",
"229 228 QCURVE",
"286 231 OFFCURVE",
"323 231 QCURVE SMOOTH"
);
},
{
closed = 1;
nodes = (
"293 285 OFFCURVE",
"263 288 QCURVE",
"263 290 LINE",
"378 492 LINE",
"380 478 OFFCURVE",
"408 312 OFFCURVE",
"411 292 QCURVE",
"411 288 OFFCURVE",
"407 288 QCURVE",
"364 285 OFFCURVE",
"335 285 QCURVE SMOOTH"
);
}
);
width = 648;
}
);
note = A;
unicode = 0041;
},
{
glyphname = B;
layers = (
{
layerId = "3968EB47-B6D1-4984-BCC6-AA3E1527005D";
paths = (
{
closed = 1;
nodes = (
"407 157 OFFCURVE",
"353 75 OFFCURVE",
"318 59 QCURVE SMOOTH",
"295 48 OFFCURVE",
"246 48 QCURVE SMOOTH",
"207 48 OFFCURVE",
"180 56 OFFCURVE",
"180 70 QCURVE SMOOTH",
"180 81 OFFCURVE",
"183 96 QCURVE SMOOTH",
"224 308 LINE SMOOTH",
"227 323 OFFCURVE",
"291 323 QCURVE SMOOTH",
"407 323 OFFCURVE",
"407 217 QCURVE SMOOTH"
);
},
{
closed = 1;
nodes = (
"522 275 OFFCURVE",
"459 349 OFFCURVE",
"431 354 QCURVE",
"435 356 LINE SMOOTH",
"439 358 OFFCURVE",
"453 366 OFFCURVE",
"470 378 OFFCURVE",
"490 394 OFFCURVE",
"510 414 OFFCURVE",
"528 440 OFFCURVE",
"542 469 OFFCURVE",
"550 504 OFFCURVE",
"550 523 QCURVE SMOOTH",
"550 592 OFFCURVE",
"444 659 OFFCURVE",
"378 659 QCURVE SMOOTH",
"364 659 OFFCURVE",
"294 657 OFFCURVE",
"240 657 QCURVE SMOOTH",
"178 657 OFFCURVE",
"122 662 QCURVE",
"114 654 OFFCURVE",
"114 638 QCURVE SMOOTH",
"114 633 OFFCURVE",
"118 631 OFFCURVE",
"148 620 OFFCURVE",
"170 608 OFFCURVE",
"170 603 QCURVE SMOOTH",
"170 572 OFFCURVE",
"160 518 QCURVE SMOOTH",
"87 142 LINE SMOOTH",
"75 79 OFFCURVE",
"61 52 QCURVE SMOOTH",
"56 43 OFFCURVE",
"9 27 OFFCURVE",
"-2 27 QCURVE SMOOTH",
"-8 27 OFFCURVE",
"-8 6 QCURVE SMOOTH",
"-8 -1 OFFCURVE",
"-6 -3 QCURVE",
"86 1 OFFCURVE",
"108 1 QCURVE SMOOTH",
"109 1 OFFCURVE",
"178 0 QCURVE SMOOTH",
"248 0 LINE SMOOTH",
"369 0 OFFCURVE",
"522 130 OFFCURVE",
"522 221 QCURVE SMOOTH"
);
},
{
closed = 1;
nodes = (
"437 372 OFFCURVE",
"292 372 QCURVE SMOOTH",
"237 372 OFFCURVE",
"240 386 QCURVE SMOOTH",
"282 596 LINE",
"286 611 OFFCURVE",
"349 611 QCURVE SMOOTH",
"437 611 OFFCURVE",
"437 523 QCURVE SMOOTH"
);
}
);
width = 560;
}
);
note = B;
unicode = 0042;
},
{
glyphname = C;
layers = (
{
layerId = "3968EB47-B6D1-4984-BCC6-AA3E1527005D";
paths = (
{
closed = 1;
nodes = (
"309 667 OFFCURVE",
"132 550 OFFCURVE",
"25 362 OFFCURVE",
"25 263 QCURVE SMOOTH",
"25 151 OFFCURVE",
"174 -6 OFFCURVE",
"299 -6 QCURVE SMOOTH",
"365 -6 OFFCURVE",
"483 19 OFFCURVE",
"505 40 QCURVE SMOOTH",
"511 46 OFFCURVE",
"529 89 OFFCURVE",
"548 140 OFFCURVE",
"549 142 QCURVE",
"548 148 OFFCURVE",
"529 160 OFFCURVE",
"525 160 QCURVE SMOOTH",
"524 160 OFFCURVE",
"508 132 OFFCURVE",
"474 90 OFFCURVE",
"453 76 QCURVE SMOOTH",
"400 42 OFFCURVE",
"317 42 QCURVE SMOOTH",
"232 42 OFFCURVE",
"143 160 OFFCURVE",
"143 253 QCURVE SMOOTH",
"143 400 OFFCURVE",
"298 618 OFFCURVE",
"398 618 QCURVE SMOOTH",
"449 618 OFFCURVE",
"519 587 OFFCURVE",
"549 537 OFFCURVE",
"559 500 OFFCURVE",
"560 482 QCURVE",
"564 479 OFFCURVE",
"573 479 QCURVE SMOOTH",
"595 479 OFFCURVE",
"598 494 QCURVE",
"600 502 OFFCURVE",
"614 624 OFFCURVE",
"614 630 QCURVE",
"489 667 OFFCURVE",
"404 667 QCURVE SMOOTH"
);
}
);
width = 610;
}
);
note = C;
unicode = 0043;
},
{
glyphname = D;
layers = (
{
layerId = "3968EB47-B6D1-4984-BCC6-AA3E1527005D";
paths = (
{
closed = 1;
nodes = (
"240 658 LINE SMOOTH",
"178 658 OFFCURVE",
"121 662 QCURVE",
"115 656 OFFCURVE",
"115 636 QCURVE SMOOTH",
"115 632 OFFCURVE",
"116 632 QCURVE SMOOTH",
"126 632 OFFCURVE",
"169 611 OFFCURVE",
"170 603 QCURVE",
"172 579 OFFCURVE",
"160 518 QCURVE SMOOTH",
"86 138 LINE SMOOTH",
"76 82 OFFCURVE",
"62 52 QCURVE SMOOTH",
"58 44 OFFCURVE",
"9 27 OFFCURVE",
"-1 27 QCURVE SMOOTH",
"-8 27 OFFCURVE",
"-8 6 QCURVE SMOOTH",
"-8 -1 OFFCURVE",
"-6 -3 QCURVE",
"115 2 LINE",
"149 2 OFFCURVE",
"255 -3 OFFCURVE",
"273 -3 QCURVE SMOOTH",
"365 -3 OFFCURVE",
"519 74 OFFCURVE",
"615 195 OFFCURVE",
"668 336 OFFCURVE",
"668 404 QCURVE SMOOTH",
"668 514 OFFCURVE",
"534 658 OFFCURVE",
"403 658 QCURVE SMOOTH"
);
},
{
closed = 1;
nodes = (
"485 608 OFFCURVE",
"559 477 OFFCURVE",
"548 377 QCURVE SMOOTH",
"533 231 OFFCURVE",
"399 48 OFFCURVE",
"298 48 QCURVE SMOOTH",
"201 48 OFFCURVE",
"188 64 QCURVE",
"179 73 OFFCURVE",
"192 138 QCURVE SMOOTH",
"266 522 LINE SMOOTH",
"274 573 OFFCURVE",
"291 592 QCURVE",
"304 608 OFFCURVE",
"399 608 QCURVE SMOOTH"
);
}
);
width = 686;
}
);
note = D;
unicode = 0044;
},
{
glyphname = E;
layers = (
{
layerId = "3968EB47-B6D1-4984-BCC6-AA3E1527005D";
paths = (
{
closed = 1;
nodes = (
"178 658 OFFCURVE",
"121 662 QCURVE",
"115 656 OFFCURVE",
"115 636 QCURVE SMOOTH",
"115 632 OFFCURVE",
"116 632 QCURVE SMOOTH",
"126 632 OFFCURVE",
"169 611 OFFCURVE",
"170 603 QCURVE",
"172 579 OFFCURVE",
"160 518 QCURVE SMOOTH",
"86 138 LINE SMOOTH",
"76 82 OFFCURVE",
"62 52 QCURVE SMOOTH",
"58 44 OFFCURVE",
"9 27 OFFCURVE",
"-1 27 QCURVE SMOOTH",
"-8 27 OFFCURVE",
"-8 6 QCURVE SMOOTH",
"-8 -1 OFFCURVE",
"-6 -3 QCURVE",
"115 2 LINE",
"154 2 OFFCURVE",
"378 -3 OFFCURVE",
"431 -3 QCURVE",
"440 23 OFFCURVE",
"514 166 QCURVE",
"510 172 OFFCURVE",
"490 172 QCURVE SMOOTH",
"479 172 OFFCURVE",
"476 166 QCURVE SMOOTH",
"458 131 OFFCURVE",
"410 78 OFFCURVE",
"394 70 QCURVE SMOOTH",
"352 49 OFFCURVE",
"279 49 QCURVE SMOOTH",
"244 49 LINE SMOOTH",
"201 49 OFFCURVE",
"184 57 OFFCURVE",
"184 74 QCURVE SMOOTH",
"184 103 OFFCURVE",
"193 146 QCURVE SMOOTH",
"222 298 LINE",
"224 306 OFFCURVE",
"290 306 QCURVE SMOOTH",
"366 306 OFFCURVE",
"376 297 QCURVE",
"388 285 OFFCURVE",
"390 238 QCURVE",
"391 230 OFFCURVE",
"403 230 QCURVE SMOOTH",
"417 230 OFFCURVE",
"421 234 QCURVE",
"457 424 LINE",
"453 430 OFFCURVE",
"440 430 QCURVE SMOOTH",
"428 430 OFFCURVE",
"425 422 QCURVE",
"404 374 OFFCURVE",
"381 356 OFFCURVE",
"336 356 QCURVE SMOOTH",
"274 356 LINE SMOOTH",
"266 356 OFFCURVE",
"253 357 OFFCURVE",
"241 358 OFFCURVE",
"236 361 OFFCURVE",
"236 363 QCURVE",
"266 528 LINE SMOOTH",
"270 555 OFFCURVE",
"286 600 QCURVE",
"290 613 OFFCURVE",
"355 613 QCURVE SMOOTH",
"400 613 LINE SMOOTH",
"493 613 OFFCURVE",
"505 524 QCURVE",
"505 517 OFFCURVE",
"517 517 QCURVE SMOOTH",
"532 517 OFFCURVE",
"537 522 QCURVE",
"537 535 OFFCURVE",
"536 586 OFFCURVE",
"536 599 QCURVE SMOOTH",
"536 642 OFFCURVE",
"538 664 QCURVE",
"493 664 OFFCURVE",
"286 657 OFFCURVE",
"240 658 QCURVE SMOOTH"
);
}
);
width = 544;
}
);
note = E;
unicode = 0045;
},
{
glyphname = F;
layers = (
{
layerId = "3968EB47-B6D1-4984-BCC6-AA3E1527005D";
paths = (
{
closed = 1;
nodes = (
"120 3 OFFCURVE",
"250 -4 QCURVE",
"256 2 OFFCURVE",
"256 15 QCURVE SMOOTH",
"256 27 OFFCURVE",
"254 27 QCURVE SMOOTH",
"246 27 OFFCURVE",
"219 30 OFFCURVE",
"181 47 OFFCURVE",
"181 61 QCURVE SMOOTH",
"181 90 OFFCURVE",
"189 134 QCURVE SMOOTH",
"220 298 LINE",
"222 306 OFFCURVE",
"289 306 QCURVE SMOOTH",
"365 306 OFFCURVE",
"375 297 QCURVE",
"386 286 OFFCURVE",
"388 238 QCURVE",
"389 230 OFFCURVE",
"415 230 OFFCURVE",
"419 234 QCURVE",
"456 424 LINE",
"452 430 OFFCURVE",
"438 430 QCURVE SMOOTH",
"427 430 OFFCURVE",
"424 422 QCURVE",
"403 374 OFFCURVE",
"379 356 OFFCURVE",
"334 356 QCURVE SMOOTH",
"272 356 LINE SMOOTH",
"264 356 OFFCURVE",
"251 357 OFFCURVE",
"239 358 OFFCURVE",
"234 361 OFFCURVE",
"234 363 QCURVE",
"265 528 LINE SMOOTH",
"270 560 OFFCURVE",
"284 600 QCURVE",
"288 613 OFFCURVE",
"354 613 QCURVE SMOOTH",
"398 613 LINE SMOOTH",
"492 613 OFFCURVE",
"504 524 QCURVE",
"504 517 OFFCURVE",
"516 517 QCURVE SMOOTH",
"531 517 OFFCURVE",
"536 522 QCURVE",
"536 535 OFFCURVE",
"534 586 OFFCURVE",
"534 599 QCURVE SMOOTH",
"534 642 OFFCURVE",
"536 664 QCURVE",
"491 664 OFFCURVE",
"284 657 OFFCURVE",
"240 658 QCURVE SMOOTH",
"178 658 OFFCURVE",
"121 662 QCURVE",
"115 656 OFFCURVE",
"115 636 QCURVE SMOOTH",
"115 632 OFFCURVE",
"116 632 QCURVE SMOOTH",
"126 632 OFFCURVE",
"169 611 OFFCURVE",
"170 603 QCURVE",
"172 579 OFFCURVE",
"160 518 QCURVE SMOOTH",
"86 138 LINE SMOOTH",
"76 82 OFFCURVE",
"62 52 QCURVE SMOOTH",
"58 44 OFFCURVE",
"9 27 OFFCURVE",
"-1 27 QCURVE SMOOTH",
"-8 27 OFFCURVE",
"-8 6 QCURVE SMOOTH",
"-8 -1 OFFCURVE",
"-6 -3 QCURVE",
"115 3 OFFCURVE",
"115 3 QCURVE"
);
}
);
width = 532;
}
);
note = F;
unicode = 0046;
},
{
glyphname = G;
layers = (
{
layerId = "3968EB47-B6D1-4984-BCC6-AA3E1527005D";
paths = (
{
closed = 1;
nodes = (
"309 667 OFFCURVE",
"131 551 OFFCURVE",
"26 365 OFFCURVE",
"26 266 QCURVE SMOOTH",
"26 153 OFFCURVE",
"160 -8 OFFCURVE",
"265 -8 QCURVE SMOOTH",
"325 -8 OFFCURVE",
"428 12 OFFCURVE",
"466 26 OFFCURVE",
"506 44 QCURVE SMOOTH",
"534 56 OFFCURVE",
"534 75 QCURVE SMOOTH",
"534 102 LINE SMOOTH",
"534 114 OFFCURVE",
"539 146 QCURVE SMOOTH",
"547 196 OFFCURVE",
"553 230 QCURVE SMOOTH",
"556 245 OFFCURVE",
"570 254 QCURVE",
"599 271 OFFCURVE",
"626 271 QCURVE SMOOTH",
"633 271 OFFCURVE",
"633 301 QCURVE",
"538 296 OFFCURVE",
"518 296 QCURVE SMOOTH",
"501 296 OFFCURVE",
"386 301 QCURVE",
"379 294 OFFCURVE",
"379 277 QCURVE SMOOTH",
"379 271 OFFCURVE",
"381 271 QCURVE SMOOTH",
"394 271 OFFCURVE",
"450 256 OFFCURVE",
"450 244 QCURVE SMOOTH",
"450 227 OFFCURVE",
"446 203 QCURVE SMOOTH",
"440 166 OFFCURVE",
"424 84 QCURVE",
"422 71 OFFCURVE",
"414 65 QCURVE SMOOTH",
"383 42 OFFCURVE",
"315 42 QCURVE SMOOTH",
"232 42 OFFCURVE",
"143 169 OFFCURVE",
"143 260 QCURVE SMOOTH",
"143 291 OFFCURVE",
"161 377 OFFCURVE",
"202 478 OFFCURVE",
"259 562 OFFCURVE",
"348 618 OFFCURVE",
"400 618 QCURVE SMOOTH",
"441 618 OFFCURVE",
"503 595 OFFCURVE",
"535 565 OFFCURVE",
"555 522 OFFCURVE",
"560 494 OFFCURVE",
"560 480 QCURVE",
"566 474 OFFCURVE",
"580 474 QCURVE SMOOTH",
"598 474 OFFCURVE",
"600 483 QCURVE SMOOTH",
"601 488 OFFCURVE",
"606 537 OFFCURVE",
"613 608 OFFCURVE",
"616 630 QCURVE",
"491 667 OFFCURVE",
"406 667 QCURVE SMOOTH"
);
}
);
width = 645;
}
);
note = G;
unicode = 0047;
},
{
glyphname = H;
layers = (
{
layerId = "3968EB47-B6D1-4984-BCC6-AA3E1527005D";
paths = (
{
closed = 1;
nodes = (
"237 368 OFFCURVE",
"237 375 QCURVE SMOOTH",
"237 376 LINE",
"264 519 LINE SMOOTH",
"273 573 OFFCURVE",
"289 608 QCURVE",
"293 615 OFFCURVE",
"342 632 OFFCURVE",
"350 632 QCURVE SMOOTH",
"357 632 OFFCURVE",
"357 658 QCURVE SMOOTH",
"357 662 LINE",
"262 657 OFFCURVE",
"238 657 QCURVE SMOOTH",
"228 657 OFFCURVE",
"123 662 QCURVE",
"116 655 OFFCURVE",
"116 636 QCURVE SMOOTH",
"116 632 OFFCURVE",
"118 632 QCURVE SMOOTH",
"130 632 OFFCURVE",
"170 615 OFFCURVE",
"170 602 QCURVE SMOOTH",
"170 572 OFFCURVE",
"160 520 QCURVE SMOOTH",
"86 138 LINE SMOOTH",
"76 80 OFFCURVE",
"60 49 QCURVE SMOOTH",
"55 40 OFFCURVE",
"10 27 OFFCURVE",
"-2 27 QCURVE SMOOTH",
"-8 27 OFFCURVE",
"-8 4 QCURVE SMOOTH",
"-8 -1 OFFCURVE",
"-6 -3 QCURVE",
"3 -3 OFFCURVE",
"87 3 OFFCURVE",
"112 3 QCURVE SMOOTH",
"116 3 OFFCURVE",
"227 -3 QCURVE",
"234 9 OFFCURVE",
"234 22 QCURVE SMOOTH",
"234 27 OFFCURVE",
"232 27 QCURVE SMOOTH",
"223 27 OFFCURVE",
"180 43 OFFCURVE",
"180 54 QCURVE SMOOTH",
"180 78 OFFCURVE",
"191 139 QCURVE SMOOTH",
"223 304 LINE",
"224 311 OFFCURVE",
"273 314 OFFCURVE",
"353 314 QCURVE SMOOTH",
"477 314 OFFCURVE",
"477 307 QCURVE",
"476 306 LINE",
"444 138 LINE SMOOTH",
"434 82 OFFCURVE",
"418 50 QCURVE",
"413 41 OFFCURVE",
"367 27 OFFCURVE",
"356 27 QCURVE SMOOTH",
"350 27 OFFCURVE",
"350 4 QCURVE SMOOTH",
"350 -1 OFFCURVE",
"352 -3 QCURVE",
"361 -3 OFFCURVE",
"445 3 OFFCURVE",
"470 3 QCURVE SMOOTH",
"474 3 OFFCURVE",
"585 -3 QCURVE",
"592 9 OFFCURVE",
"592 22 QCURVE SMOOTH",
"592 27 OFFCURVE",
"590 27 QCURVE SMOOTH",
"581 27 OFFCURVE",
"538 43 OFFCURVE",
"538 54 QCURVE SMOOTH",
"538 82 OFFCURVE",
"550 139 QCURVE SMOOTH",
"624 519 LINE SMOOTH",
"636 579 OFFCURVE",
"649 608 QCURVE",
"653 615 OFFCURVE",
"702 632 OFFCURVE",
"710 632 QCURVE SMOOTH",
"716 632 OFFCURVE",
"716 657 QCURVE SMOOTH",
"716 662 LINE",
"621 657 OFFCURVE",
"602 657 QCURVE SMOOTH",
"587 657 OFFCURVE",
"482 662 QCURVE",
"474 654 OFFCURVE",
"474 637 QCURVE SMOOTH",
"474 632 OFFCURVE",
"476 632 QCURVE SMOOTH",
"490 632 OFFCURVE",
"528 618 OFFCURVE",
"528 604 QCURVE SMOOTH",
"528 572 OFFCURVE",
"518 520 QCURVE SMOOTH",
"490 374 LINE SMOOTH",
"489 368 OFFCURVE",
"368 368 QCURVE SMOOTH"
);
}
);
width = 709;
}
);
note = H;
unicode = 0048;
},
{
glyphname = I;
layers = (
{
layerId = "3968EB47-B6D1-4984-BCC6-AA3E1527005D";
paths = (
{
closed = 1;
nodes = (
"279 586 OFFCURVE",
"289 608 QCURVE",
"293 615 OFFCURVE",
"342 632 OFFCURVE",
"350 632 QCURVE SMOOTH",
"357 632 OFFCURVE",
"357 658 QCURVE SMOOTH",
"357 662 LINE",
"262 657 OFFCURVE",
"238 657 QCURVE SMOOTH",
"228 657 OFFCURVE",
"123 662 QCURVE",
"116 655 OFFCURVE",
"116 636 QCURVE SMOOTH",
"116 632 OFFCURVE",
"118 632 QCURVE SMOOTH",
"130 632 OFFCURVE",
"170 615 OFFCURVE",
"170 602 QCURVE SMOOTH",
"170 572 OFFCURVE",
"160 520 QCURVE SMOOTH",
"86 138 LINE SMOOTH",
"76 80 OFFCURVE",
"60 49 QCURVE SMOOTH",
"55 40 OFFCURVE",
"10 27 OFFCURVE",
"-2 27 QCURVE SMOOTH",
"-8 27 OFFCURVE",
"-8 4 QCURVE SMOOTH",
"-8 -1 OFFCURVE",
"-6 -3 QCURVE",
"3 -3 OFFCURVE",
"87 3 OFFCURVE",
"112 3 QCURVE SMOOTH",
"116 3 OFFCURVE",
"227 -3 QCURVE",
"234 9 OFFCURVE",
"234 22 QCURVE SMOOTH",
"234 27 OFFCURVE",
"232 27 QCURVE SMOOTH",
"223 27 OFFCURVE",
"180 43 OFFCURVE",
"180 54 QCURVE SMOOTH",
"180 78 OFFCURVE",
"191 139 QCURVE SMOOTH",
"264 519 LINE SMOOTH"
);
}
);
width = 350;
}
);
note = I;
unicode = 0049;
},
{
glyphname = J;
layers = (
{
layerId = "3968EB47-B6D1-4984-BCC6-AA3E1527005D";
paths = (
{
closed = 1;
nodes = (
"123 -88 OFFCURVE",
"-10 -190 QCURVE",
"-12 -194 OFFCURVE",
"-12 -206 QCURVE SMOOTH",
"-12 -221 OFFCURVE",
"1 -226 QCURVE",
"22 -217 OFFCURVE",
"69 -192 OFFCURVE",
"141 -134 OFFCURVE",
"199 -64 OFFCURVE",
"254 47 OFFCURVE",
"266 112 QCURVE SMOOTH",
"344 519 LINE SMOOTH",
"358 581 OFFCURVE",
"370 608 QCURVE",
"374 615 OFFCURVE",
"422 632 OFFCURVE",
"430 632 QCURVE SMOOTH",
"433 632 OFFCURVE",
"438 651 OFFCURVE",
"438 658 QCURVE SMOOTH",
"438 662 LINE",
"343 657 OFFCURVE",
"318 657 QCURVE SMOOTH",
"309 657 OFFCURVE",
"204 662 QCURVE",
"196 654 OFFCURVE",
"196 636 QCURVE SMOOTH",
"196 632 OFFCURVE",
"198 632 QCURVE SMOOTH",
"210 632 OFFCURVE",
"250 615 OFFCURVE",
"250 602 QCURVE SMOOTH",
"250 572 OFFCURVE",
"240 520 QCURVE SMOOTH",
"158 94 LINE SMOOTH"
);
}
);
width = 431;
}
);
note = J;
unicode = 004A;
},
{
glyphname = K;
layers = (
{
layerId = "3968EB47-B6D1-4984-BCC6-AA3E1527005D";
paths = (
{
closed = 1;
nodes = (
"279 586 OFFCURVE",
"289 608 QCURVE",
"293 615 OFFCURVE",
"342 632 OFFCURVE",
"350 632 QCURVE SMOOTH",
"357 632 OFFCURVE",
"357 658 QCURVE SMOOTH",
"357 662 LINE",
"262 657 OFFCURVE",
"238 657 QCURVE SMOOTH",
"228 657 OFFCURVE",
"123 662 QCURVE",
"116 655 OFFCURVE",
"116 636 QCURVE SMOOTH",
"116 632 OFFCURVE",
"118 632 QCURVE SMOOTH",
"130 632 OFFCURVE",
"170 615 OFFCURVE",
"170 602 QCURVE SMOOTH",
"170 572 OFFCURVE",
"160 520 QCURVE SMOOTH",
"86 138 LINE SMOOTH",
"76 80 OFFCURVE",
"60 49 QCURVE SMOOTH",
"55 40 OFFCURVE",
"10 27 OFFCURVE",
"-2 27 QCURVE SMOOTH",
"-8 27 OFFCURVE",
"-8 4 QCURVE SMOOTH",
"-8 -1 OFFCURVE",
"-6 -3 QCURVE",
"3 -3 OFFCURVE",
"88 3 OFFCURVE",
"113 3 QCURVE SMOOTH",
"116 3 OFFCURVE",
"227 -3 QCURVE",
"234 9 OFFCURVE",
"234 22 QCURVE SMOOTH",
"234 27 OFFCURVE",
"232 27 QCURVE SMOOTH",
"223 27 OFFCURVE",
"180 43 OFFCURVE",
"180 54 QCURVE SMOOTH",
"180 78 OFFCURVE",
"191 139 QCURVE SMOOTH",
"264 519 LINE SMOOTH"
);
},
{
closed = 1;
nodes = (
"420 60 LINE SMOOTH",
"462 -3 OFFCURVE",
"569 -3 QCURVE SMOOTH",
"618 -3 OFFCURVE",
"636 0 QCURVE",
"642 12 OFFCURVE",
"642 22 QCURVE SMOOTH",
"642 29 OFFCURVE",
"640 29 QCURVE SMOOTH",
"617 29 OFFCURVE",
"553 59 OFFCURVE",
"529 92 QCURVE SMOOTH",
"350 326 LINE",
"345 334 OFFCURVE",
"345 339 QCURVE SMOOTH",
"345 348 OFFCURVE",
"352 355 QCURVE SMOOTH",
"582 590 LINE SMOOTH",
"615 624 OFFCURVE",
"690 632 QCURVE",
"698 632 OFFCURVE",
"698 662 QCURVE",
"622 658 OFFCURVE",
"587 658 QCURVE SMOOTH",
"542 658 OFFCURVE",
"474 662 QCURVE",
"469 654 OFFCURVE",
"469 632 OFFCURVE",
"474 632 QCURVE SMOOTH",
"523 632 OFFCURVE",
"523 616 QCURVE SMOOTH",
"523 605 OFFCURVE",
"502 584 QCURVE SMOOTH",
"308 381 OFFCURVE",
"228 330 QCURVE"
);
}
);
width = 691;
}
);
note = K;
unicode = 004B;
},
{
glyphname = L;
layers = (
{
layerId = "3968EB47-B6D1-4984-BCC6-AA3E1527005D";
paths = (
{
closed = 1;
nodes = (
"194 658 OFFCURVE",
"121 662 QCURVE",
"115 656 OFFCURVE",
"115 636 QCURVE SMOOTH",
"115 632 OFFCURVE",
"116 632 QCURVE SMOOTH",
"126 632 OFFCURVE",
"169 611 OFFCURVE",
"170 603 QCURVE",
"172 579 OFFCURVE",
"160 518 QCURVE SMOOTH",
"86 138 LINE SMOOTH",
"76 82 OFFCURVE",
"62 52 QCURVE SMOOTH",
"58 44 OFFCURVE",
"9 27 OFFCURVE",
"-1 27 QCURVE SMOOTH",
"-8 27 OFFCURVE",
"-8 6 QCURVE SMOOTH",
"-8 -1 OFFCURVE",
"-6 -3 QCURVE",
"115 2 LINE",
"154 2 OFFCURVE",
"378 -3 OFFCURVE",
"431 -3 QCURVE",
"440 23 OFFCURVE",
"514 166 QCURVE",
"510 172 OFFCURVE",
"490 172 QCURVE SMOOTH",
"479 172 OFFCURVE",
"476 166 QCURVE SMOOTH",
"458 131 OFFCURVE",
"410 78 OFFCURVE",
"394 70 QCURVE SMOOTH",
"352 49 OFFCURVE",
"279 49 QCURVE SMOOTH",
"244 49 LINE SMOOTH",
"201 49 OFFCURVE",
"183 57 OFFCURVE",
"183 74 QCURVE SMOOTH",
"183 102 OFFCURVE",
"191 139 QCURVE SMOOTH",
"264 519 LINE SMOOTH",
"272 569 OFFCURVE",
"290 608 QCURVE",
"294 615 OFFCURVE",
"342 632 OFFCURVE",
"350 632 QCURVE SMOOTH",
"353 632 OFFCURVE",
"358 651 OFFCURVE",
"358 658 QCURVE SMOOTH",
"358 662 OFFCURVE",
"358 662 QCURVE",
"282 658 OFFCURVE",
"240 658 QCURVE SMOOTH"
);
}
);
width = 528;
}
);
note = L;
unicode = 004C;
},
{
glyphname = M;
layers = (
{
layerId = "3968EB47-B6D1-4984-BCC6-AA3E1527005D";
paths = (
{
closed = 1;
nodes = (
"601 491 OFFCURVE",
"450 198 QCURVE",
"450 196 OFFCURVE",
"447 196 QCURVE SMOOTH",
"446 196 LINE",
"374 623 OFFCURVE",
"370 662 QCURVE",
"294 658 OFFCURVE",
"277 658 QCURVE SMOOTH",
"257 658 OFFCURVE",
"173 662 QCURVE",
"166 656 OFFCURVE",
"166 638 QCURVE SMOOTH",
"166 632 OFFCURVE",
"167 632 QCURVE SMOOTH",
"182 632 OFFCURVE",
"234 617 OFFCURVE",
"234 605 QCURVE SMOOTH",
"234 589 OFFCURVE",
"224 549 QCURVE SMOOTH",
"108 119 LINE SMOOTH",
"96 76 OFFCURVE",
"88 64 QCURVE",
"79 49 OFFCURVE",
"12 27 OFFCURVE",
"-2 27 QCURVE SMOOTH",
"-9 27 OFFCURVE",
"-9 6 QCURVE SMOOTH",
"-9 1 OFFCURVE",
"-7 -3 QCURVE",
"100 2 OFFCURVE",
"111 2 QCURVE SMOOTH",
"134 2 OFFCURVE",
"226 -3 QCURVE",
"232 9 OFFCURVE",
"232 22 QCURVE SMOOTH",
"232 27 OFFCURVE",
"230 27 QCURVE SMOOTH",
"219 27 OFFCURVE",
"154 48 OFFCURVE",
"154 62 QCURVE SMOOTH",
"154 64 OFFCURVE",
"166 114 QCURVE",
"172 146 OFFCURVE",
"277 525 QCURVE",
"279 529 OFFCURVE",
"281 529 OFFCURVE",
"282 525 QCURVE",
"370 0 LINE",
"374 -2 OFFCURVE",
"378 -2 QCURVE SMOOTH",
"390 -2 OFFCURVE",
"417 22 OFFCURVE",
"422 31 QCURVE SMOOTH",
"669 511 LINE",
"672 516 OFFCURVE",
"674 516 QCURVE SMOOTH",
"678 516 OFFCURVE",
"678 508 QCURVE SMOOTH",
"678 484 OFFCURVE",
"676 464 QCURVE SMOOTH",
"642 138 LINE SMOOTH",
"634 70 OFFCURVE",
"622 50 QCURVE SMOOTH",
"617 41 OFFCURVE",
"567 27 OFFCURVE",
"556 27 QCURVE SMOOTH",
"550 27 OFFCURVE",
"550 4 QCURVE SMOOTH",
"550 0 OFFCURVE",
"552 -3 QCURVE",
"560 -3 OFFCURVE",
"647 3 OFFCURVE",
"672 3 QCURVE SMOOTH",
"674 3 OFFCURVE",
"785 -3 QCURVE",
"792 7 OFFCURVE",
"792 18 QCURVE SMOOTH",
"792 27 OFFCURVE",
"790 27 QCURVE",
"737 31 OFFCURVE",
"737 62 QCURVE SMOOTH",
"737 87 OFFCURVE",
"741 125 QCURVE SMOOTH",
"745 174 OFFCURVE",
"783 522 QCURVE SMOOTH",
"792 592 OFFCURVE",
"806 610 QCURVE SMOOTH",
"822 632 OFFCURVE",
"854 632 QCURVE SMOOTH",
"862 632 OFFCURVE",
"862 662 QCURVE",
"786 658 OFFCURVE",
"748 658 QCURVE SMOOTH",
"703 658 OFFCURVE",
"679 661 QCURVE",
"623 536 OFFCURVE",
"623 536 QCURVE"
);
}
);
width = 856;
}
);
note = M;
unicode = 004D;
},
{
glyphname = N;
layers = (
{
layerId = "3968EB47-B6D1-4984-BCC6-AA3E1527005D";
paths = (
{
closed = 1;
nodes = (
"211 658 OFFCURVE",
"131 662 QCURVE",
"124 657 OFFCURVE",
"124 638 QCURVE SMOOTH",
"124 632 OFFCURVE",
"127 632 QCURVE SMOOTH",
"142 632 OFFCURVE",
"197 615 OFFCURVE",
"197 601 QCURVE SMOOTH",
"197 566 OFFCURVE",
"189 526 QCURVE SMOOTH",
"113 144 LINE SMOOTH",
"99 79 OFFCURVE",
"88 60 QCURVE",
"78 45 OFFCURVE",
"15 27 OFFCURVE",
"0 27 QCURVE SMOOTH",
"-1 27 OFFCURVE",
"-4 20 OFFCURVE",
"-7 10 OFFCURVE",
"-7 5 QCURVE SMOOTH",
"-7 1 OFFCURVE",
"-5 -3 QCURVE",
"102 2 OFFCURVE",
"113 2 QCURVE SMOOTH",
"136 2 OFFCURVE",
"229 -3 QCURVE",
"235 9 OFFCURVE",
"235 22 QCURVE SMOOTH",
"235 27 OFFCURVE",
"233 27 QCURVE SMOOTH",
"219 27 OFFCURVE",
"159 49 OFFCURVE",
"159 69 QCURVE SMOOTH",
"159 91 OFFCURVE",
"169 141 QCURVE SMOOTH",
"251 552 LINE",
"299 442 OFFCURVE",
"512 16 QCURVE",
"526 -6 OFFCURVE",
"537 -6 QCURVE SMOOTH",
"551 -6 OFFCURVE",
"555 -2 QCURVE",
"556 1 OFFCURVE",
"571 105 OFFCURVE",
"578 138 QCURVE SMOOTH",
"653 518 LINE SMOOTH",
"664 577 OFFCURVE",
"679 600 QCURVE",
"691 613 OFFCURVE",
"752 632 OFFCURVE",
"763 632 QCURVE SMOOTH",
"770 632 OFFCURVE",
"770 662 QCURVE",
"694 658 OFFCURVE",
"653 658 QCURVE SMOOTH",
"620 658 OFFCURVE",
"536 662 QCURVE",
"529 657 OFFCURVE",
"529 638 QCURVE SMOOTH",
"529 632 OFFCURVE",
"531 632 QCURVE SMOOTH",
"546 632 OFFCURVE",
"607 608 OFFCURVE",
"607 576 OFFCURVE",
"597 518 QCURVE SMOOTH",
"549 268 LINE SMOOTH",
"544 240 OFFCURVE",
"539 227 QCURVE",
"532 242 OFFCURVE",
"491 322 OFFCURVE",
"473 358 OFFCURVE",
"436 431 OFFCURVE",
"417 471 OFFCURVE",
"387 532 OFFCURVE",
"370 571 OFFCURVE",
"351 616 OFFCURVE",
"339 649 OFFCURVE",
"336 662 QCURVE",
"296 658 OFFCURVE",
"243 658 QCURVE SMOOTH"
);
}
);
width = 763;
}
);
note = N;
unicode = 004E;
},
{
glyphname = O;
layers = (
{
layerId = "3968EB47-B6D1-4984-BCC6-AA3E1527005D";
paths = (
{
closed = 1;
nodes = (
"447 618 OFFCURVE",
"520 504 OFFCURVE",
"520 415 QCURVE SMOOTH",
"520 336 OFFCURVE",
"468 168 OFFCURVE",
"359 40 OFFCURVE",
"290 40 QCURVE SMOOTH",
"218 40 OFFCURVE",
"144 160 OFFCURVE",
"144 252 QCURVE SMOOTH",
"144 399 OFFCURVE",
"280 618 OFFCURVE",
"374 618 QCURVE SMOOTH"
);
},
{
closed = 1;
nodes = (
"307 667 OFFCURVE",
"135 553 OFFCURVE",
"26 362 OFFCURVE",
"26 258 QCURVE SMOOTH",
"26 142 OFFCURVE",
"158 -10 OFFCURVE",
"264 -10 QCURVE SMOOTH",
"359 -10 OFFCURVE",
"532 106 OFFCURVE",
"638 298 OFFCURVE",
"638 404 QCURVE SMOOTH",
"638 516 OFFCURVE",
"502 667 OFFCURVE",
"398 667 QCURVE SMOOTH"
);
}
);
width = 656;
}
);
note = O;
unicode = 004F;
},
{
glyphname = P;
layers = (
{
layerId = "3968EB47-B6D1-4984-BCC6-AA3E1527005D";
paths = (
{
closed = 1;
nodes = (
"342 662 OFFCURVE",
"264 657 OFFCURVE",
"237 657 QCURVE SMOOTH",
"227 657 OFFCURVE",
"122 662 QCURVE",
"114 656 OFFCURVE",
"114 638 QCURVE SMOOTH",
"114 632 OFFCURVE",
"116 632 QCURVE SMOOTH",
"126 632 OFFCURVE",
"167 613 OFFCURVE",
"167 600 QCURVE SMOOTH",
"167 573 OFFCURVE",
"160 538 QCURVE SMOOTH",
"81 138 LINE SMOOTH",
"66 68 OFFCURVE",
"57 50 QCURVE",
"52 38 OFFCURVE",
"9 27 OFFCURVE",
"-5 27 QCURVE SMOOTH",
"-7 27 OFFCURVE",
"-12 13 OFFCURVE",
"-12 8 QCURVE SMOOTH",
"-12 1 OFFCURVE",
"-10 -3 QCURVE",
"6 -2 OFFCURVE",
"59 1 OFFCURVE",
"102 3 OFFCURVE",
"122 3 QCURVE SMOOTH",
"136 3 OFFCURVE",
"247 -3 QCURVE",
"253 3 OFFCURVE",
"253 27 OFFCURVE",
"251 27 QCURVE SMOOTH",
"244 27 OFFCURVE",
"215 31 OFFCURVE",
"177 48 OFFCURVE",
"177 62 QCURVE SMOOTH",
"177 86 OFFCURVE",
"186 134 QCURVE SMOOTH",
"276 594 LINE",
"279 616 OFFCURVE",
"345 616 QCURVE SMOOTH",
"385 616 OFFCURVE",
"431 563 OFFCURVE",
"431 518 QCURVE SMOOTH",
"431 433 OFFCURVE",
"345 328 OFFCURVE",
"283 328 QCURVE SMOOTH",
"275 328 OFFCURVE",
"255 330 QCURVE",
"247 326 OFFCURVE",
"247 312 QCURVE SMOOTH",
"247 307 OFFCURVE",
"249 303 QCURVE",
"269 288 OFFCURVE",
"316 288 QCURVE SMOOTH",
"410 288 OFFCURVE",
"544 421 OFFCURVE",
"544 507 QCURVE SMOOTH",
"544 560 OFFCURVE",
"483 634 OFFCURVE",
"407 662 OFFCURVE",
"369 662 QCURVE SMOOTH"
);
}
);
width = 537;
}
);
note = P;
unicode = 0050;
},
{
glyphname = Q;
layers = (
{
layerId = "3968EB47-B6D1-4984-BCC6-AA3E1527005D";
paths = (
{
closed = 1;
nodes = (
"457 618 OFFCURVE",
"529 504 OFFCURVE",
"529 415 QCURVE SMOOTH",
"529 357 OFFCURVE",
"498 229 OFFCURVE",
"442 114 OFFCURVE",
"352 40 OFFCURVE",
"300 40 QCURVE SMOOTH",
"227 40 OFFCURVE",
"154 160 OFFCURVE",
"154 252 QCURVE SMOOTH",
"154 349 OFFCURVE",
"215 517 OFFCURVE",
"322 618 OFFCURVE",
"384 618 QCURVE SMOOTH"
);
},
{
closed = 1;
nodes = (
"340 667 OFFCURVE",
"204 599 OFFCURVE",
"101 487 OFFCURVE",
"36 336 OFFCURVE",
"36 258 QCURVE SMOOTH",
"36 155 OFFCURVE",
"142 9 OFFCURVE",
"231 -6 QCURVE",
"212 -9 OFFCURVE",
"98 -27 QCURVE",
"92 -29 OFFCURVE",
"78 -50 OFFCURVE",
"78 -54 QCURVE",
"146 -72 OFFCURVE",
"293 -125 OFFCURVE",
"386 -164 OFFCURVE",
"498 -193 OFFCURVE",
"550 -193 QCURVE SMOOTH",
"614 -193 OFFCURVE",
"742 -116 OFFCURVE",
"762 -90 QCURVE",
"762 -76 OFFCURVE",
"738 -68 QCURVE",
"717 -86 OFFCURVE",
"637 -124 OFFCURVE",
"600 -124 QCURVE SMOOTH",
"548 -124 OFFCURVE",
"421 -83 OFFCURVE",
"301 -36 OFFCURVE",
"269 -31 QCURVE",
"316 -22 OFFCURVE",
"422 26 OFFCURVE",
"456 49 QCURVE SMOOTH",
"540 107 OFFCURVE",
"647 299 OFFCURVE",
"647 404 QCURVE SMOOTH",
"647 516 OFFCURVE",
"511 667 OFFCURVE",
"407 667 QCURVE SMOOTH"
);
}
);
width = 624;
}
);
note = Q;
unicode = 0051;
},
{
glyphname = R;
layers = (
{
layerId = "3968EB47-B6D1-4984-BCC6-AA3E1527005D";
paths = (
{
closed = 1;
nodes = (
"227 657 OFFCURVE",
"122 662 QCURVE",
"114 656 OFFCURVE",
"114 638 QCURVE SMOOTH",
"114 632 OFFCURVE",
"116 632 QCURVE SMOOTH",
"126 632 OFFCURVE",
"167 613 OFFCURVE",
"167 600 QCURVE SMOOTH",
"167 573 OFFCURVE",
"160 538 QCURVE SMOOTH",
"81 138 LINE SMOOTH",
"66 68 OFFCURVE",
"57 50 QCURVE",
"52 38 OFFCURVE",
"9 27 OFFCURVE",
"-5 27 QCURVE SMOOTH",
"-7 27 OFFCURVE",
"-12 13 OFFCURVE",
"-12 8 QCURVE SMOOTH",
"-12 1 OFFCURVE",
"-10 -3 QCURVE",
"6 -2 OFFCURVE",
"59 1 OFFCURVE",
"102 3 OFFCURVE",
"122 3 QCURVE SMOOTH",
"148 3 OFFCURVE",
"216 -3 OFFCURVE",
"223 -3 QCURVE",
"230 9 OFFCURVE",
"230 22 QCURVE SMOOTH",
"230 27 OFFCURVE",
"228 27 QCURVE SMOOTH",
"219 27 OFFCURVE",
"177 43 OFFCURVE",
"177 54 QCURVE SMOOTH",
"177 84 OFFCURVE",
"187 139 QCURVE SMOOTH",
"215 286 LINE",
"217 294 OFFCURVE",
"226 301 OFFCURVE",
"235 302 OFFCURVE",
"249 302 QCURVE SMOOTH",
"288 302 OFFCURVE",
"297 286 QCURVE",
"362 150 LINE",
"406 66 OFFCURVE",
"488 -4 OFFCURVE",
"561 -4 QCURVE SMOOTH",
"569 -4 OFFCURVE",
"602 -2 OFFCURVE",
"606 -2 QCURVE",
"615 14 OFFCURVE",
"615 28 QCURVE",
"594 29 OFFCURVE",
"541 58 OFFCURVE",
"521 82 QCURVE SMOOTH",
"441 179 OFFCURVE",
"399 310 QCURVE",
"395 320 OFFCURVE",
"403 323 QCURVE SMOOTH",
"455 342 OFFCURVE",
"546 453 OFFCURVE",
"546 519 QCURVE SMOOTH",
"546 568 OFFCURVE",
"483 637 OFFCURVE",
"406 662 OFFCURVE",
"367 662 QCURVE SMOOTH",
"340 662 OFFCURVE",
"265 657 OFFCURVE",
"237 657 QCURVE SMOOTH"
);
},
{
closed = 1;
nodes = (
"386 613 OFFCURVE",
"432 567 OFFCURVE",
"432 522 QCURVE SMOOTH",
"432 451 OFFCURVE",
"355 350 OFFCURVE",
"307 350 QCURVE SMOOTH",
"233 350 OFFCURVE",
"233 374 QCURVE SMOOTH",
"233 375 OFFCURVE",
"234 377 OFFCURVE",
"234 378 QCURVE",
"274 588 LINE SMOOTH",
"277 603 OFFCURVE",
"303 613 OFFCURVE",
"345 613 QCURVE SMOOTH"
);
}
);
width = 621;
}
);
note = R;
unicode = 0052;
},
{
glyphname = S;
layers = (
{
layerId = "3968EB47-B6D1-4984-BCC6-AA3E1527005D";
paths = (
{
closed = 1;
nodes = (
"227 668 OFFCURVE",
"84 546 OFFCURVE",
"84 454 QCURVE SMOOTH",
"84 429 OFFCURVE",
"100 387 OFFCURVE",
"137 346 OFFCURVE",
"165 322 OFFCURVE",
"192 301 QCURVE",
"197 298 OFFCURVE",
"236 269 OFFCURVE",
"250 257 OFFCURVE",
"280 230 OFFCURVE",
"293 211 OFFCURVE",
"304 184 OFFCURVE",
"304 170 QCURVE SMOOTH",
"304 125 OFFCURVE",
"234 41 OFFCURVE",
"178 41 QCURVE SMOOTH",
"118 41 OFFCURVE",
"60 129 OFFCURVE",
"60 178 QCURVE",
"51 187 OFFCURVE",
"39 187 QCURVE SMOOTH",
"18 187 OFFCURVE",
"18 179 QCURVE SMOOTH",
"18 178 OFFCURVE",
"19 119 OFFCURVE",
"19 102 QCURVE SMOOTH",
"19 97 OFFCURVE",
"14 17 QCURVE",
"118 -8 OFFCURVE",
"176 -8 QCURVE SMOOTH",
"272 -8 OFFCURVE",
"416 124 OFFCURVE",
"416 213 QCURVE SMOOTH",
"416 246 OFFCURVE",
"384 304 OFFCURVE",
"356 330 OFFCURVE",
"278 386 OFFCURVE",
"268 394 QCURVE SMOOTH",
"190 455 OFFCURVE",
"190 507 QCURVE SMOOTH",
"190 547 OFFCURVE",
"248 618 OFFCURVE",
"300 618 QCURVE SMOOTH",
"343 618 OFFCURVE",
"398 539 OFFCURVE",
"398 496 QCURVE SMOOTH",
"398 483 OFFCURVE",
"411 481 QCURVE",
"420 478 OFFCURVE",
"429 478 QCURVE SMOOTH",
"431 478 OFFCURVE",
"435 496 OFFCURVE",
"440 533 OFFCURVE",
"445 569 OFFCURVE",
"452 624 OFFCURVE",
"454 642 QCURVE",
"436 645 OFFCURVE",
"344 668 OFFCURVE",
"314 668 QCURVE SMOOTH"
);
}
);
width = 455;
}
);
note = S;
unicode = 0053;
},
{
glyphname = T;
layers = (
{
layerId = "3968EB47-B6D1-4984-BCC6-AA3E1527005D";
paths = (
{
closed = 1;
nodes = (
"144 77 OFFCURVE",
"130 49 QCURVE",
"125 40 OFFCURVE",
"80 27 OFFCURVE",
"69 27 QCURVE SMOOTH",
"62 27 OFFCURVE",
"62 4 QCURVE SMOOTH",
"62 -2 OFFCURVE",
"63 -3 QCURVE",
"72 -3 OFFCURVE",
"156 3 OFFCURVE",
"181 3 QCURVE SMOOTH",
"186 3 OFFCURVE",
"297 -3 QCURVE",
"303 7 OFFCURVE",
"303 22 QCURVE SMOOTH",
"303 27 OFFCURVE",
"301 27 QCURVE SMOOTH",
"292 27 OFFCURVE",
"251 43 OFFCURVE",
"251 54 QCURVE SMOOTH",
"251 84 OFFCURVE",
"261 139 QCURVE SMOOTH",
"331 500 LINE SMOOTH",
"345 568 OFFCURVE",
"357 594 QCURVE SMOOTH",
"365 611 OFFCURVE",
"451 611 QCURVE SMOOTH",
"493 611 OFFCURVE",
"534 571 OFFCURVE",
"535 517 QCURVE SMOOTH",
"535 512 OFFCURVE",
"543 512 QCURVE SMOOTH",
"560 512 OFFCURVE",
"569 519 QCURVE",
"581 672 LINE",
"541 662 OFFCURVE",
"515 662 QCURVE SMOOTH",
"475 662 OFFCURVE",
"347 655 OFFCURVE",
"271 655 OFFCURVE",
"147 662 OFFCURVE",
"107 662 QCURVE SMOOTH",
"80 662 OFFCURVE",
"45 672 QCURVE",
"-2 520 LINE",
"3 512 OFFCURVE",
"21 512 QCURVE SMOOTH",
"27 512 OFFCURVE",
"30 518 QCURVE",
"54 573 OFFCURVE",
"105 611 OFFCURVE",
"151 611 QCURVE SMOOTH",
"191 611 OFFCURVE",
"230 605 OFFCURVE",
"238 595 OFFCURVE",
"238 585 QCURVE SMOOTH",
"238 560 OFFCURVE",
"225 497 QCURVE SMOOTH",
"155 138 LINE SMOOTH"
);
}
);
width = 576;
}
);
note = T;
unicode = 0054;
},
{
glyphname = U;
layers = (
{
layerId = "3968EB47-B6D1-4984-BCC6-AA3E1527005D";
paths = (
{
closed = 1;
nodes = (
"48 304 LINE SMOOTH",
"36 241 OFFCURVE",
"36 203 QCURVE SMOOTH",
"36 101 OFFCURVE",
"140 -2 OFFCURVE",
"230 -2 QCURVE SMOOTH",
"347 -2 OFFCURVE",
"488 119 OFFCURVE",
"518 276 QCURVE SMOOTH",
"564 514 LINE SMOOTH",
"581 595 OFFCURVE",
"589 612 QCURVE",
"593 618 OFFCURVE",
"658 632 OFFCURVE",
"668 632 QCURVE SMOOTH",
"675 632 OFFCURVE",
"675 662 QCURVE",
"599 658 OFFCURVE",
"561 658 QCURVE SMOOTH",
"538 658 OFFCURVE",
"454 662 QCURVE",
"447 655 OFFCURVE",
"447 638 QCURVE SMOOTH",
"447 632 OFFCURVE",
"448 632 QCURVE SMOOTH",
"464 632 OFFCURVE",
"522 618 OFFCURVE",
"523 606 QCURVE",
"524 585 OFFCURVE",
"510 514 QCURVE SMOOTH",
"464 272 LINE SMOOTH",
"441 152 OFFCURVE",
"340 62 OFFCURVE",
"264 62 QCURVE SMOOTH",
"142 62 OFFCURVE",
"142 202 QCURVE SMOOTH",
"142 245 OFFCURVE",
"152 297 QCURVE SMOOTH",
"196 519 LINE",
"214 594 OFFCURVE",
"220 608 QCURVE",
"224 615 OFFCURVE",
"273 632 OFFCURVE",
"281 632 QCURVE SMOOTH",
"288 632 OFFCURVE",
"288 658 QCURVE SMOOTH",
"288 662 LINE",
"193 657 OFFCURVE",
"170 657 QCURVE SMOOTH",
"159 657 OFFCURVE",
"54 662 QCURVE",
"48 656 OFFCURVE",
"48 636 QCURVE SMOOTH",
"48 632 OFFCURVE",
"49 632 QCURVE SMOOTH",
"60 632 OFFCURVE",
"100 615 OFFCURVE",
"100 602 QCURVE SMOOTH",
"100 572 OFFCURVE",
"90 520 QCURVE SMOOTH"
);
}
);
width = 667;
}
);
note = U;
unicode = 0055;
},
{
glyphname = V;
layers = (
{
layerId = "3968EB47-B6D1-4984-BCC6-AA3E1527005D";
paths = (
{
closed = 1;
nodes = (
"170 655 OFFCURVE",
"72 660 QCURVE",
"64 652 OFFCURVE",
"64 635 QCURVE SMOOTH",
"64 628 OFFCURVE",
"67 628 QCURVE SMOOTH",
"79 628 OFFCURVE",
"119 613 OFFCURVE",
"123 599 QCURVE",
"136 541 OFFCURVE",
"138 530 QCURVE SMOOTH",
"234 -2 LINE",
"238 -12 OFFCURVE",
"248 -12 QCURVE SMOOTH",
"269 -12 OFFCURVE",
"290 23 QCURVE SMOOTH",
"616 574 LINE SMOOTH",
"633 604 OFFCURVE",
"686 628 OFFCURVE",
"705 628 QCURVE SMOOTH",
"709 628 OFFCURVE",
"712 650 QCURVE",
"713 655 OFFCURVE",
"712 660 QCURVE",
"620 656 OFFCURVE",
"607 656 QCURVE SMOOTH",
"590 656 OFFCURVE",
"508 660 QCURVE",
"501 652 OFFCURVE",
"501 634 QCURVE SMOOTH",
"501 628 OFFCURVE",
"503 628 QCURVE SMOOTH",
"527 628 OFFCURVE",
"561 610 OFFCURVE",
"560 596 QCURVE",
"557 571 OFFCURVE",
"538 538 QCURVE SMOOTH",
"320 168 LINE",
"251 542 LINE SMOOTH",
"244 581 OFFCURVE",
"245 592 QCURVE SMOOTH",
"247 610 OFFCURVE",
"284 628 OFFCURVE",
"309 628 QCURVE SMOOTH",
"312 628 OFFCURVE",
"317 648 OFFCURVE",
"317 656 QCURVE SMOOTH",
"317 658 OFFCURVE",
"316 660 QCURVE",
"226 655 OFFCURVE",
"190 655 QCURVE SMOOTH"
);
}
);
width = 599;
}
);
note = V;
unicode = 0056;
},
{
glyphname = W;
layers = (
{
layerId = "3968EB47-B6D1-4984-BCC6-AA3E1527005D";
paths = (
{
closed = 1;
nodes = (
"158 654 OFFCURVE",
"78 660 OFFCURVE",
"69 660 QCURVE",
"64 656 OFFCURVE",
"63 640 QCURVE",
"61 628 OFFCURVE",
"64 628 QCURVE SMOOTH",
"74 628 OFFCURVE",
"108 615 OFFCURVE",
"114 605 QCURVE",
"129 575 OFFCURVE",
"145 518 QCURVE SMOOTH",
"290 -8 LINE",
"293 -13 OFFCURVE",
"298 -13 QCURVE SMOOTH",
"316 -13 OFFCURVE",
"338 19 QCURVE SMOOTH",
"487 239 LINE",
"556 -8 LINE",
"558 -13 OFFCURVE",
"565 -13 QCURVE SMOOTH",
"572 -13 OFFCURVE",
"595 3 OFFCURVE",
"605 19 QCURVE SMOOTH",
"908 504 LINE SMOOTH",
"947 567 OFFCURVE",
"979 598 QCURVE",
"988 608 OFFCURVE",
"1035 628 OFFCURVE",
"1051 628 QCURVE SMOOTH",
"1058 628 OFFCURVE",
"1058 660 QCURVE",
"1044 659 OFFCURVE",
"1006 656 OFFCURVE",
"970 654 OFFCURVE",
"949 654 QCURVE SMOOTH",
"934 654 OFFCURVE",
"847 660 QCURVE",
"839 654 OFFCURVE",
"839 638 QCURVE SMOOTH",
"839 628 OFFCURVE",
"841 628 QCURVE SMOOTH",
"848 628 OFFCURVE",
"870 624 OFFCURVE",
"895 606 OFFCURVE",
"894 594 QCURVE SMOOTH",
"893 579 OFFCURVE",
"869 539 QCURVE",
"861 527 OFFCURVE",
"741 333 OFFCURVE",
"631 152 OFFCURVE",
"630 152 QCURVE",
"625 161 OFFCURVE",
"570 358 QCURVE",
"666 504 LINE SMOOTH",
"710 571 OFFCURVE",
"736 597 QCURVE",
"745 607 OFFCURVE",
"794 628 OFFCURVE",
"809 628 QCURVE SMOOTH",
"812 628 OFFCURVE",
"817 651 OFFCURVE",
"816 660 QCURVE",
"803 659 OFFCURVE",
"764 656 OFFCURVE",
"728 654 OFFCURVE",
"707 654 QCURVE SMOOTH",
"692 654 OFFCURVE",
"605 660 QCURVE",
"598 654 OFFCURVE",
"598 636 QCURVE SMOOTH",
"598 628 OFFCURVE",
"600 628 QCURVE SMOOTH",
"606 628 OFFCURVE",
"629 624 OFFCURVE",
"655 607 OFFCURVE",
"654 594 QCURVE",
"652 579 OFFCURVE",
"627 538 QCURVE SMOOTH",
"553 421 LINE",
"515 560 LINE SMOOTH",
"508 583 OFFCURVE",
"509 594 QCURVE",
"511 609 OFFCURVE",
"540 628 OFFCURVE",
"559 628 QCURVE SMOOTH",
"562 628 OFFCURVE",
"567 648 OFFCURVE",
"567 656 QCURVE SMOOTH",
"567 659 OFFCURVE",
"567 660 QCURVE",
"554 659 OFFCURVE",
"510 656 OFFCURVE",
"473 654 OFFCURVE",
"455 654 QCURVE SMOOTH",
"429 654 OFFCURVE",
"345 660 OFFCURVE",
"338 660 QCURVE",
"332 656 OFFCURVE",
"331 640 QCURVE SMOOTH",
"330 628 OFFCURVE",
"332 628 QCURVE SMOOTH",
"344 628 OFFCURVE",
"374 613 OFFCURVE",
"381 603 QCURVE SMOOTH",
"390 590 OFFCURVE",
"403 544 QCURVE SMOOTH",
"470 303 LINE",
"457 282 OFFCURVE",
"369 156 OFFCURVE",
"364 152 QCURVE",
"364 152 OFFCURVE",
"249 558 QCURVE",
"243 584 OFFCURVE",
"243 592 QCURVE",
"245 610 OFFCURVE",
"276 628 OFFCURVE",
"294 628 QCURVE SMOOTH",
"297 628 OFFCURVE",
"301 648 OFFCURVE",
"301 656 QCURVE SMOOTH",
"301 659 OFFCURVE",
"301 660 QCURVE",
"187 654 OFFCURVE",
"183 654 QCURVE SMOOTH"
);
}
);
width = 994;
}
);
note = W;
unicode = 0057;
},
{
glyphname = X;
layers = (
{
layerId = "3968EB47-B6D1-4984-BCC6-AA3E1527005D";
paths = (
{
closed = 1;
nodes = (
"261 654 OFFCURVE",
"174 660 OFFCURVE",
"164 660 QCURVE",
"156 654 OFFCURVE",
"156 636 QCURVE SMOOTH",
"156 628 OFFCURVE",
"158 628 QCURVE SMOOTH",
"167 628 OFFCURVE",
"201 617 OFFCURVE",
"209 610 QCURVE SMOOTH",
"221 599 OFFCURVE",
"239 565 OFFCURVE",
"255 528 QCURVE SMOOTH",
"336 334 LINE",
"336 333 OFFCURVE",
"95 60 QCURVE SMOOTH",
"81 45 OFFCURVE",
"20 28 OFFCURVE",
"6 28 QCURVE SMOOTH",
"1 28 OFFCURVE",
"0 6 QCURVE",
"-1 2 OFFCURVE",
"1 -4 QCURVE",
"67 0 OFFCURVE",
"119 0 QCURVE SMOOTH",
"175 0 OFFCURVE",
"231 -4 QCURVE",
"235 2 OFFCURVE",
"236 14 QCURVE SMOOTH",
"237 28 OFFCURVE",
"234 28 QCURVE SMOOTH",
"212 28 OFFCURVE",
"173 43 OFFCURVE",
"175 60 QCURVE SMOOTH",
"176 71 OFFCURVE",
"323 241 OFFCURVE",
"359 280 QCURVE",
"359 280 OFFCURVE",
"446 73 QCURVE SMOOTH",
"449 66 OFFCURVE",
"447 58 QCURVE",
"446 46 OFFCURVE",
"403 28 OFFCURVE",
"391 28 QCURVE SMOOTH",
"388 28 OFFCURVE",
"383 12 OFFCURVE",
"383 5 QCURVE SMOOTH",
"383 -2 OFFCURVE",
"384 -4 QCURVE",
"403 -3 OFFCURVE",
"457 0 OFFCURVE",
"502 2 OFFCURVE",
"525 2 QCURVE SMOOTH",
"546 2 OFFCURVE",
"648 -4 QCURVE",
"651 4 OFFCURVE",
"652 15 QCURVE SMOOTH",
"653 28 OFFCURVE",
"652 28 QCURVE SMOOTH",
"639 28 OFFCURVE",
"585 50 OFFCURVE",
"572 72 QCURVE SMOOTH",
"560 92 OFFCURVE",
"449 356 QCURVE",
"449 356 OFFCURVE",
"667 593 QCURVE SMOOTH",
"683 610 OFFCURVE",
"748 628 OFFCURVE",
"761 628 QCURVE SMOOTH",
"763 628 OFFCURVE",
"768 647 OFFCURVE",
"768 655 QCURVE SMOOTH",
"768 659 OFFCURVE",
"768 660 QCURVE",
"756 659 OFFCURVE",
"711 656 OFFCURVE",
"672 654 OFFCURVE",
"650 654 QCURVE SMOOTH",
"640 654 OFFCURVE",
"538 660 QCURVE",
"530 654 OFFCURVE",
"530 636 QCURVE SMOOTH",
"530 628 OFFCURVE",
"532 628 QCURVE SMOOTH",
"554 628 OFFCURVE",
"593 610 OFFCURVE",
"592 597 QCURVE",
"592 592 OFFCURVE",
"577 570 OFFCURVE",
"550 538 OFFCURVE",
"523 508 OFFCURVE",
"485 466 OFFCURVE",
"462 443 OFFCURVE",
"429 408 OFFCURVE",
"428 406 QCURVE",
"427 406 OFFCURVE",
"355 574 QCURVE SMOOTH",
"350 586 OFFCURVE",
"351 598 QCURVE SMOOTH",
"352 613 OFFCURVE",
"394 628 OFFCURVE",
"409 628 QCURVE SMOOTH",
"412 628 OFFCURVE",
"417 646 OFFCURVE",
"417 654 QCURVE SMOOTH",
"417 655 OFFCURVE",
"417 657 QCURVE SMOOTH",
"417 660 OFFCURVE",
"417 660 QCURVE",
"303 654 OFFCURVE",
"288 654 QCURVE SMOOTH"
);
}
);
width = 709;
}
);
note = X;
unicode = 0058;
},
{
glyphname = Y;
layers = (
{
layerId = "3968EB47-B6D1-4984-BCC6-AA3E1527005D";
paths = (
{
closed = 1;
nodes = (
"170 654 OFFCURVE",
"83 660 OFFCURVE",
"73 660 QCURVE",
"65 654 OFFCURVE",
"65 635 QCURVE SMOOTH",
"65 628 OFFCURVE",
"67 628 QCURVE SMOOTH",
"76 628 OFFCURVE",
"109 616 OFFCURVE",
"118 610 QCURVE",
"139 594 OFFCURVE",
"156 541 QCURVE SMOOTH",
"176 482 LINE SMOOTH",
"196 422 OFFCURVE",
"235 299 OFFCURVE",
"234 294 QCURVE SMOOTH",
"204 138 LINE SMOOTH",
"193 76 OFFCURVE",
"180 52 QCURVE SMOOTH",
"176 44 OFFCURVE",
"126 28 OFFCURVE",
"115 28 QCURVE SMOOTH",
"110 28 OFFCURVE",
"108 8 QCURVE SMOOTH",
"107 -1 OFFCURVE",
"109 -4 QCURVE",
"119 -3 OFFCURVE",
"208 3 OFFCURVE",
"233 3 QCURVE SMOOTH",
"257 3 OFFCURVE",
"347 -3 OFFCURVE",
"349 -4 QCURVE",
"353 4 OFFCURVE",
"354 17 QCURVE",
"356 28 OFFCURVE",
"353 28 QCURVE SMOOTH",
"346 28 OFFCURVE",
"301 44 OFFCURVE",
"300 54 QCURVE",
"300 89 OFFCURVE",
"310 142 QCURVE SMOOTH",
"340 294 LINE SMOOTH",
"342 306 OFFCURVE",
"544 573 OFFCURVE",
"564 595 QCURVE",
"579 610 OFFCURVE",
"632 628 OFFCURVE",
"645 628 QCURVE SMOOTH",
"651 628 OFFCURVE",
"652 648 QCURVE",
"653 655 OFFCURVE",
"652 660 QCURVE",
"554 654 OFFCURVE",
"539 654 QCURVE SMOOTH",
"530 654 OFFCURVE",
"437 660 QCURVE",
"430 654 OFFCURVE",
"430 636 QCURVE SMOOTH",
"430 628 OFFCURVE",
"432 628 QCURVE SMOOTH",
"456 628 OFFCURVE",
"491 613 OFFCURVE",
"490 602 QCURVE",
"490 596 OFFCURVE",
"469 562 OFFCURVE",
"425 503 OFFCURVE",
"394 463 OFFCURVE",
"336 387 OFFCURVE",
"330 379 QCURVE",
"263 574 LINE SMOOTH",
"259 587 OFFCURVE",
"260 596 QCURVE",
"261 612 OFFCURVE",
"304 628 OFFCURVE",
"318 628 QCURVE SMOOTH",
"321 628 OFFCURVE",
"326 645 OFFCURVE",
"326 653 QCURVE SMOOTH",
"326 659 OFFCURVE",
"326 660 QCURVE",
"212 654 OFFCURVE",
"197 654 QCURVE SMOOTH"
);
}
);
width = 592;
}
);
note = Y;
unicode = 0059;
},
{
glyphname = Z;
layers = (
{
layerId = "3968EB47-B6D1-4984-BCC6-AA3E1527005D";
paths = (
{
closed = 1;
nodes = (
"295 656 OFFCURVE",
"175 661 OFFCURVE",
"166 664 QCURVE",
"158 639 OFFCURVE",
"149 599 OFFCURVE",
"145 586 OFFCURVE",
"138 576 QCURVE",
"133 557 OFFCURVE",
"121 491 OFFCURVE",
"120 481 QCURVE",
"122 480 OFFCURVE",
"135 480 OFFCURVE",
"140 481 QCURVE",
"154 506 OFFCURVE",
"169 527 OFFCURVE",
"199 545 OFFCURVE",
"222 546 QCURVE",
"236 570 OFFCURVE",
"321 603 OFFCURVE",
"378 604 QCURVE SMOOTH",
"478 604 LINE",
"20 43 LINE",
"13 36 OFFCURVE",
"12 22 QCURVE SMOOTH",
"11 9 OFFCURVE",
"16 0 QCURVE",
"487 0 LINE",
"493 17 OFFCURVE",
"509 57 OFFCURVE",
"521 85 OFFCURVE",
"550 147 OFFCURVE",
"558 164 QCURVE",
"553 170 OFFCURVE",
"536 170 QCURVE SMOOTH",
"519 170 OFFCURVE",
"516 163 QCURVE",
"463 54 OFFCURVE",
"355 54 QCURVE SMOOTH",
"176 54 LINE SMOOTH",
"165 54 OFFCURVE",
"166 63 QCURVE",
"166 69 OFFCURVE",
"174 79 QCURVE SMOOTH",
"287 216 LINE SMOOTH",
"399 352 OFFCURVE",
"624 629 OFFCURVE",
"626 633 QCURVE",
"627 638 OFFCURVE",
"625 665 OFFCURVE",
"622 666 QCURVE",
"484 656 OFFCURVE",
"418 656 QCURVE SMOOTH",
"336 656 OFFCURVE",
"314 656 QCURVE SMOOTH"
);
}
);
width = 581;
}
);
note = Z;
unicode = 005A;
},
{
glyphname = bracketleft;
layers = (
{
layerId = "3968EB47-B6D1-4984-BCC6-AA3E1527005D";
paths = (
{
closed = 1;
nodes = (
"168 755 OFFCURVE",
"157 743 OFFCURVE",
"154 734 OFFCURVE",
"154 732 QCURVE",
"-4 -83 LINE",
"-4 -89 LINE SMOOTH",
"-4 -106 OFFCURVE",
"9 -106 QCURVE SMOOTH",
"79 -106 OFFCURVE",
"184 -124 QCURVE",
"187 -124 OFFCURVE",
"194 -107 OFFCURVE",
"193 -86 OFFCURVE",
"187 -83 QCURVE SMOOTH",
"137 -58 OFFCURVE",
"92 -58 QCURVE SMOOTH",
"87 -58 OFFCURVE",
"87 -50 QCURVE",
"232 699 LINE",
"232 708 OFFCURVE",
"241 708 QCURVE SMOOTH",
"267 708 OFFCURVE",
"332 722 OFFCURVE",
"345 729 QCURVE SMOOTH",
"353 733 OFFCURVE",
"364 755 OFFCURVE",
"364 764 QCURVE SMOOTH",
"364 771 OFFCURVE",
"360 771 QCURVE",
"260 755 OFFCURVE",
"176 755 QCURVE SMOOTH"
);
}
);
width = 351;
}
);
note = bracketleft;
unicode = 005B;
},
{
glyphname = backslash;
layers = (
{
layerId = "3968EB47-B6D1-4984-BCC6-AA3E1527005D";
paths = (
{
closed = 1;
nodes = (
"27 761 OFFCURVE",
"15 755 QCURVE",
"152 -37 LINE",
"175 -39 LINE",
"187 -38 OFFCURVE",
"208 -14 OFFCURVE",
"208 6 QCURVE SMOOTH",
"208 8 OFFCURVE",
"207 12 OFFCURVE",
"207 13 QCURVE",
"81 739 LINE SMOOTH",
"77 761 OFFCURVE",
"35 761 QCURVE SMOOTH"
);
}
);
width = 226;
}
);
note = backslash;
unicode = 005C;
},
{
glyphname = bracketright;
layers = (
{
layerId = "3968EB47-B6D1-4984-BCC6-AA3E1527005D";
paths = (
{
closed = 1;
nodes = (
"258 755 OFFCURVE",
"162 771 QCURVE",
"158 771 OFFCURVE",
"152 753 OFFCURVE",
"155 732 OFFCURVE",
"161 729 QCURVE",
"171 722 OFFCURVE",
"230 708 OFFCURVE",
"256 708 QCURVE SMOOTH",
"262 708 OFFCURVE",
"262 699 QCURVE",
"116 -50 LINE",
"116 -58 OFFCURVE",
"108 -58 QCURVE SMOOTH",
"62 -58 OFFCURVE",
"3 -83 QCURVE",
"-13 -89 OFFCURVE",
"-13 -112 QCURVE SMOOTH",
"-13 -124 OFFCURVE",
"-9 -124 QCURVE",
"102 -106 OFFCURVE",
"173 -106 QCURVE SMOOTH",
"181 -106 OFFCURVE",
"192 -94 OFFCURVE",
"195 -85 OFFCURVE",
"195 -83 QCURVE",
"353 732 LINE",
"353 738 OFFCURVE",
"353 738 QCURVE",
"353 755 OFFCURVE",
"340 755 QCURVE SMOOTH"
);
}
);
width = 351;
}
);
note = bracketright;
unicode = 005D;
},
{
glyphname = asciicircum;
layers = (
{
layerId = "3968EB47-B6D1-4984-BCC6-AA3E1527005D";
paths = (
{
closed = 1;
nodes = (
"35 472 OFFCURVE",
"42 472 QCURVE SMOOTH",
"53 472 OFFCURVE",
"159 551 OFFCURVE",
"193 590 QCURVE",
"213 555 OFFCURVE",
"288 472 OFFCURVE",
"301 472 QCURVE SMOOTH",
"309 472 OFFCURVE",
"318 500 QCURVE",
"318 502 OFFCURVE",
"295 533 OFFCURVE",
"266 575 OFFCURVE",
"259 588 QCURVE SMOOTH",
"243 620 OFFCURVE",
"225 677 OFFCURVE",
"219 690 OFFCURVE",
"209 690 QCURVE SMOOTH",
"207 690 OFFCURVE",
"204 689 OFFCURVE",
"202 687 OFFCURVE",
"201 685 OFFCURVE",
"198 679 OFFCURVE",
"197 677 QCURVE",
"166 628 OFFCURVE",
"89 546 OFFCURVE",
"37 502 OFFCURVE",
"35 499 QCURVE"
);
}
);
width = 341;
}
);
note = asciicircum;
unicode = 005E;
},
{
glyphname = underscore;
layers = (
{
layerId = "3968EB47-B6D1-4984-BCC6-AA3E1527005D";
paths = (
{
closed = 1;
nodes = (
"40 -44 LINE",
"454 -44 LINE",
"456 -44 LINE SMOOTH",
"457 -44 OFFCURVE",
"461 -41 OFFCURVE",
"462 -38 QCURVE",
"478 -3 OFFCURVE",
"478 9 QCURVE SMOOTH",
"478 15 OFFCURVE",
"474 15 QCURVE SMOOTH",
"58 15 LINE SMOOTH",
"51 15 OFFCURVE",
"34 -31 OFFCURVE",
"34 -36 QCURVE"
);
}
);
width = 531;
}
);
note = underscore;
unicode = 005F;
},
{
glyphname = grave;
layers = (
{
layerId = "3968EB47-B6D1-4984-BCC6-AA3E1527005D";
paths = (
{
closed = 1;
nodes = (
"38 629 OFFCURVE",
"146 524 OFFCURVE",
"157 524 QCURVE SMOOTH",
"162 524 OFFCURVE",
"173 536 OFFCURVE",
"173 541 QCURVE SMOOTH",
"173 543 OFFCURVE",
"154 592 OFFCURVE",
"125 659 OFFCURVE",
"113 678 QCURVE",
"107 686 OFFCURVE",
"83 686 QCURVE SMOOTH",
"60 686 OFFCURVE",
"38 666 OFFCURVE",
"38 656 QCURVE SMOOTH"
);
}
);
width = 200;
}
);
note = grave;
unicode = 0060;
},
{
glyphname = a;
layers = (
{
layerId = "3968EB47-B6D1-4984-BCC6-AA3E1527005D";
paths = (
{
closed = 1;
nodes = (
"261 442 OFFCURVE",
"119 347 OFFCURVE",
"36 205 OFFCURVE",
"36 135 QCURVE SMOOTH",
"36 74 OFFCURVE",
"93 -6 OFFCURVE",
"142 -6 QCURVE SMOOTH",
"162 -6 OFFCURVE",
"203 16 OFFCURVE",
"236 53 OFFCURVE",
"259 84 OFFCURVE",
"268 100 QCURVE",
"267 95 OFFCURVE",
"264 79 QCURVE SMOOTH",
"260 57 OFFCURVE",
"260 46 QCURVE SMOOTH",
"260 22 OFFCURVE",
"285 -7 OFFCURVE",
"304 -7 QCURVE SMOOTH",
"340 -7 OFFCURVE",
"443 75 OFFCURVE",
"454 99 QCURVE",
"454 103 OFFCURVE",
"440 122 OFFCURVE",
"438 122 QCURVE",
"433 117 OFFCURVE",
"412 95 OFFCURVE",
"378 68 OFFCURVE",
"368 68 QCURVE SMOOTH",
"358 68 OFFCURVE",
"358 93 QCURVE SMOOTH",
"358 108 OFFCURVE",
"361 117 QCURVE",
"420 424 LINE",
"386 442 OFFCURVE",
"337 442 QCURVE SMOOTH"
);
},
{
closed = 1;
nodes = (
"312 387 OFFCURVE",
"321 377 QCURVE",
"302 281 LINE SMOOTH",
"287 204 OFFCURVE",
"210 60 OFFCURVE",
"176 60 QCURVE SMOOTH",
"135 60 OFFCURVE",
"135 138 QCURVE SMOOTH",
"135 214 OFFCURVE",
"230 387 OFFCURVE",
"287 387 QCURVE SMOOTH"
);
}
);
width = 450;
}
);
note = a;
unicode = 0061;
},
{
glyphname = b;
layers = (
{
layerId = "3968EB47-B6D1-4984-BCC6-AA3E1527005D";
paths = (
{
closed = 1;
nodes = (
"282 442 OFFCURVE",
"205 378 OFFCURVE",
"172 324 QCURVE",
"224 588 LINE SMOOTH",
"239 658 OFFCURVE",
"239 670 QCURVE SMOOTH",
"239 686 OFFCURVE",
"232 690 QCURVE",
"208 681 OFFCURVE",
"117 658 OFFCURVE",
"86 656 QCURVE",
"78 648 OFFCURVE",
"78 635 QCURVE SMOOTH",
"78 628 OFFCURVE",
"80 628 QCURVE SMOOTH",
"136 628 OFFCURVE",
"136 608 QCURVE SMOOTH",
"136 596 OFFCURVE",
"126 552 QCURVE SMOOTH",
"48 150 LINE SMOOTH",
"43 125 OFFCURVE",
"43 106 QCURVE SMOOTH",
"43 54 OFFCURVE",
"107 -8 OFFCURVE",
"150 -8 QCURVE SMOOTH",
"240 -8 OFFCURVE",
"409 175 OFFCURVE",
"409 304 QCURVE SMOOTH",
"409 369 OFFCURVE",
"360 442 OFFCURVE",
"314 442 QCURVE SMOOTH"
);
},
{
closed = 1;
nodes = (
"311 372 OFFCURVE",
"311 288 QCURVE SMOOTH",
"311 206 OFFCURVE",
"231 41 OFFCURVE",
"180 41 QCURVE SMOOTH",
"150 41 OFFCURVE",
"131 114 OFFCURVE",
"142 162 QCURVE",
"155 230 OFFCURVE",
"242 372 OFFCURVE",
"274 372 QCURVE SMOOTH"
);
}
);
width = 401;
}
);
note = b;
unicode = 0062;
},
{
glyphname = c;
layers = (
{
layerId = "3968EB47-B6D1-4984-BCC6-AA3E1527005D";
paths = (
{
closed = 1;
nodes = (
"208 442 OFFCURVE",
"99 355 OFFCURVE",
"32 219 OFFCURVE",
"32 151 QCURVE SMOOTH",
"32 78 OFFCURVE",
"95 -6 OFFCURVE",
"158 -6 QCURVE SMOOTH",
"202 -6 OFFCURVE",
"297 69 OFFCURVE",
"310 95 QCURVE",
"310 99 OFFCURVE",
"296 118 OFFCURVE",
"294 118 QCURVE",
"287 111 OFFCURVE",
"266 90 OFFCURVE",
"218 62 OFFCURVE",
"196 62 QCURVE SMOOTH",
"132 62 OFFCURVE",
"132 166 QCURVE SMOOTH",
"132 221 OFFCURVE",
"170 329 OFFCURVE",
"226 394 OFFCURVE",
"252 394 QCURVE SMOOTH",
"266 394 OFFCURVE",
"285 372 OFFCURVE",
"294 346 OFFCURVE",
"314 324 OFFCURVE",
"328 324 QCURVE SMOOTH",
"346 324 OFFCURVE",
"368 354 OFFCURVE",
"368 376 QCURVE SMOOTH",
"368 386 OFFCURVE",
"364 402 QCURVE",
"323 442 OFFCURVE",
"264 442 QCURVE SMOOTH"
);
}
);
width = 348;
}
);
note = c;
unicode = 0063;
},
{
glyphname = d;
layers = (
{
layerId = "3968EB47-B6D1-4984-BCC6-AA3E1527005D";
paths = (
{
closed = 1;
nodes = (
"254 439 OFFCURVE",
"118 344 OFFCURVE",
"39 204 OFFCURVE",
"39 135 QCURVE SMOOTH",
"39 74 OFFCURVE",
"95 -6 OFFCURVE",
"146 -6 QCURVE SMOOTH",
"166 -6 OFFCURVE",
"207 17 OFFCURVE",
"241 56 OFFCURVE",
"262 86 OFFCURVE",
"271 101 QCURVE",
"268 86 OFFCURVE",
"267 80 QCURVE SMOOTH",
"263 58 OFFCURVE",
"263 46 QCURVE SMOOTH",
"263 22 OFFCURVE",
"288 -7 OFFCURVE",
"307 -7 QCURVE SMOOTH",
"343 -7 OFFCURVE",
"445 75 OFFCURVE",
"457 99 QCURVE",
"457 103 OFFCURVE",
"443 122 OFFCURVE",
"441 122 QCURVE",
"436 117 OFFCURVE",
"415 95 OFFCURVE",
"381 68 OFFCURVE",
"371 68 QCURVE SMOOTH",
"361 68 OFFCURVE",
"361 93 QCURVE SMOOTH",
"361 108 OFFCURVE",
"364 117 QCURVE",
"455 588 LINE",
"456 596 OFFCURVE",
"465 635 OFFCURVE",
"471 665 OFFCURVE",
"471 670 QCURVE SMOOTH",
"471 686 OFFCURVE",
"463 690 QCURVE",
"440 681 OFFCURVE",
"347 658 OFFCURVE",
"316 656 QCURVE",
"308 648 OFFCURVE",
"308 635 QCURVE SMOOTH",
"308 628 OFFCURVE",
"311 628 QCURVE SMOOTH",
"366 628 OFFCURVE",
"366 608 QCURVE SMOOTH",
"366 596 OFFCURVE",
"360 562 QCURVE SMOOTH",
"336 442 LINE",
"335 441 OFFCURVE",
"335 441 OFFCURVE",
"327 441 QCURVE SMOOTH"
);
},
{
closed = 1;
nodes = (
"305 282 LINE SMOOTH",
"289 202 OFFCURVE",
"213 60 OFFCURVE",
"179 60 QCURVE SMOOTH",
"138 60 OFFCURVE",
"138 137 QCURVE SMOOTH",
"138 185 OFFCURVE",
"178 300 OFFCURVE",
"251 387 OFFCURVE",
"291 387 QCURVE SMOOTH",
"305 387 OFFCURVE",
"321 366 OFFCURVE",
"318 350 QCURVE SMOOTH"
);
}
);
width = 464;
}
);
note = d;
unicode = 0064;
},
{
glyphname = e;
layers = (
{
layerId = "3968EB47-B6D1-4984-BCC6-AA3E1527005D";
paths = (
{
closed = 1;
nodes = (
"212 442 OFFCURVE",
"103 354 OFFCURVE",
"36 219 OFFCURVE",
"36 152 QCURVE SMOOTH",
"36 77 OFFCURVE",
"100 -6 OFFCURVE",
"162 -6 QCURVE SMOOTH",
"206 -6 OFFCURVE",
"301 69 OFFCURVE",
"314 95 QCURVE",
"314 99 OFFCURVE",
"300 118 OFFCURVE",
"298 118 QCURVE",
"291 111 OFFCURVE",
"270 90 OFFCURVE",
"222 62 OFFCURVE",
"200 62 QCURVE SMOOTH",
"136 62 OFFCURVE",
"136 158 QCURVE SMOOTH",
"136 181 OFFCURVE",
"140 181 QCURVE SMOOTH",
"172 181 OFFCURVE",
"280 225 OFFCURVE",
"375 311 OFFCURVE",
"375 358 QCURVE SMOOTH",
"375 393 OFFCURVE",
"316 442 OFFCURVE",
"268 442 QCURVE SMOOTH"
);
},
{
closed = 1;
nodes = (
"270 394 OFFCURVE",
"282 375 OFFCURVE",
"282 360 QCURVE SMOOTH",
"282 315 OFFCURVE",
"190 224 OFFCURVE",
"149 224 QCURVE SMOOTH",
"145 224 OFFCURVE",
"145 228 QCURVE SMOOTH",
"145 273 OFFCURVE",
"222 394 OFFCURVE",
"258 394 QCURVE SMOOTH"
);
}
);
width = 356;
}
);
note = e;
unicode = 0065;
},
{
glyphname = f;
layers = (
{
layerId = "3968EB47-B6D1-4984-BCC6-AA3E1527005D";
paths = (
{
closed = 1;
nodes = (
"395 697 OFFCURVE",
"257 550 OFFCURVE",
"236 431 QCURVE SMOOTH",
"234 418 OFFCURVE",
"229 418 QCURVE SMOOTH",
"206 418 LINE SMOOTH",
"188 418 OFFCURVE",
"153 382 OFFCURVE",
"153 372 QCURVE SMOOTH",
"153 366 OFFCURVE",
"157 366 QCURVE SMOOTH",
"219 366 LINE SMOOTH",
"222 366 OFFCURVE",
"222 360 QCURVE SMOOTH",
"222 358 LINE",
"156 8 LINE SMOOTH",
"151 -21 OFFCURVE",
"135 -78 OFFCURVE",
"110 -140 OFFCURVE",
"76 -178 OFFCURVE",
"57 -178 QCURVE SMOOTH",
"43 -178 OFFCURVE",
"22 -157 OFFCURVE",
"11 -132 OFFCURVE",
"-7 -112 OFFCURVE",
"-18 -112 QCURVE SMOOTH",
"-42 -112 OFFCURVE",
"-67 -153 OFFCURVE",
"-66 -184 QCURVE",
"-62 -199 OFFCURVE",
"-16 -224 OFFCURVE",
"19 -224 QCURVE SMOOTH",
"53 -224 OFFCURVE",
"122 -194 OFFCURVE",
"190 -131 OFFCURVE",
"244 -17 OFFCURVE",
"258 57 QCURVE SMOOTH",
"315 358 LINE",
"316 366 OFFCURVE",
"322 366 QCURVE SMOOTH",
"440 366 LINE",
"453 386 OFFCURVE",
"453 404 QCURVE SMOOTH",
"453 418 OFFCURVE",
"445 418 QCURVE SMOOTH",
"330 418 LINE SMOOTH",
"327 418 OFFCURVE",
"327 422 QCURVE SMOOTH",
"327 424 LINE",
"346 528 OFFCURVE",
"412 650 OFFCURVE",
"444 650 QCURVE SMOOTH",
"456 650 OFFCURVE",
"477 629 OFFCURVE",
"489 603 OFFCURVE",
"509 581 OFFCURVE",
"522 581 QCURVE SMOOTH",
"570 581 OFFCURVE",
"570 664 QCURVE",
"546 697 OFFCURVE",
"482 697 QCURVE SMOOTH"
);
}
);
width = 473;
}
);
note = f;
unicode = 0066;
},
{
glyphname = g;
layers = (
{
layerId = "3968EB47-B6D1-4984-BCC6-AA3E1527005D";
paths = (
{
closed = 1;
nodes = (
"309 -138 OFFCURVE",
"250 -180 OFFCURVE",
"197 -180 QCURVE SMOOTH",
"83 -180 OFFCURVE",
"83 -104 QCURVE SMOOTH",
"83 -89 OFFCURVE",
"99 -62 OFFCURVE",
"129 -43 OFFCURVE",
"151 -33 OFFCURVE",
"168 -26 QCURVE",
"309 -59 OFFCURVE",
"309 -108 QCURVE SMOOTH"
);
},
{
closed = 1;
nodes = (
"288 393 OFFCURVE",
"314 346 OFFCURVE",
"314 312 QCURVE SMOOTH",
"314 281 OFFCURVE",
"296 214 OFFCURVE",
"256 161 OFFCURVE",
"229 161 QCURVE SMOOTH",
"205 161 OFFCURVE",
"179 200 OFFCURVE",
"179 232 QCURVE SMOOTH",
"179 268 OFFCURVE",
"198 340 OFFCURVE",
"238 393 OFFCURVE",
"265 393 QCURVE SMOOTH"
);
},
{
closed = 1;
nodes = (
"205 442 OFFCURVE",
"85 321 OFFCURVE",
"85 239 QCURVE SMOOTH",
"85 194 OFFCURVE",
"143 126 OFFCURVE",
"184 119 QCURVE",
"146 106 OFFCURVE",
"76 60 OFFCURVE",
"76 43 QCURVE SMOOTH",
"76 21 OFFCURVE",
"101 3 QCURVE SMOOTH",
"116 -8 OFFCURVE",
"126 -10 QCURVE",
"-4 -57 OFFCURVE",
"-4 -125 QCURVE SMOOTH",
"-4 -169 OFFCURVE",
"87 -226 OFFCURVE",
"157 -226 QCURVE SMOOTH",
"272 -226 OFFCURVE",
"396 -128 OFFCURVE",
"396 -63 QCURVE SMOOTH",
"396 -33 OFFCURVE",
"354 11 OFFCURVE",
"294 35 OFFCURVE",
"233 51 OFFCURVE",
"191 65 OFFCURVE",
"191 72 QCURVE SMOOTH",
"191 83 OFFCURVE",
"233 106 OFFCURVE",
"300 135 OFFCURVE",
"316 144 QCURVE",
"330 154 OFFCURVE",
"357 177 OFFCURVE",
"389 218 OFFCURVE",
"409 277 OFFCURVE",
"409 312 QCURVE SMOOTH",
"409 324 OFFCURVE",
"406 347 OFFCURVE",
"404 363 OFFCURVE",
"404 364 QCURVE SMOOTH",
"404 370 OFFCURVE",
"410 370 QCURVE SMOOTH",
"463 370 LINE",
"474 384 OFFCURVE",
"473 405 QCURVE",
"473 416 OFFCURVE",
"466 416 QCURVE SMOOTH",
"418 416 LINE SMOOTH",
"383 416 OFFCURVE",
"311 442 OFFCURVE",
"284 442 QCURVE SMOOTH"
);
}
);
width = 449;
}
);
note = g;
unicode = 0067;
},
{
glyphname = h;
layers = (
{
layerId = "3968EB47-B6D1-4984-BCC6-AA3E1527005D";
paths = (
{
closed = 1;
nodes = (
"311 442 OFFCURVE",
"197 316 OFFCURVE",
"175 271 QCURVE",
"175 270 OFFCURVE",
"183 298 QCURVE SMOOTH",
"194 338 OFFCURVE",
"184 317 QCURVE",
"185 320 OFFCURVE",
"191 347 QCURVE SMOOTH",
"205 404 OFFCURVE",
"209 426 QCURVE",
"217 462 OFFCURVE",
"210 448 QCURVE",
"211 453 OFFCURVE",
"227 541 OFFCURVE",
"243 623 OFFCURVE",
"243 625 QCURVE SMOOTH",
"243 627 OFFCURVE",
"248 655 OFFCURVE",
"250 675 OFFCURVE",
"249 679 QCURVE",
"239 680 OFFCURVE",
"226 679 OFFCURVE",
"192 676 OFFCURVE",
"181 676 QCURVE",
"168 670 OFFCURVE",
"108 650 OFFCURVE",
"94 646 QCURVE",
"90 639 OFFCURVE",
"91 632 QCURVE",
"93 632 OFFCURVE",
"102 630 OFFCURVE",
"109 628 OFFCURVE",
"118 625 OFFCURVE",
"123 621 OFFCURVE",
"123 618 QCURVE",
"146 606 OFFCURVE",
"143 581 QCURVE",
"143 577 OFFCURVE",
"32 0 QCURVE",
"52 -5 OFFCURVE",
"106 -5 OFFCURVE",
"122 0 QCURVE",
"142 92 LINE SMOOTH",
"152 146 OFFCURVE",
"214 270 OFFCURVE",
"279 351 OFFCURVE",
"297 351 QCURVE SMOOTH",
"321 351 OFFCURVE",
"321 309 QCURVE SMOOTH",
"321 299 OFFCURVE",
"312 253 QCURVE SMOOTH",
"284 111 LINE SMOOTH",
"275 68 OFFCURVE",
"275 48 QCURVE SMOOTH",
"275 22 OFFCURVE",
"300 -7 OFFCURVE",
"318 -7 QCURVE SMOOTH",
"355 -7 OFFCURVE",
"457 75 OFFCURVE",
"468 99 QCURVE",
"468 103 OFFCURVE",
"455 122 OFFCURVE",
"452 122 QCURVE",
"448 117 OFFCURVE",
"427 95 OFFCURVE",
"393 68 OFFCURVE",
"383 68 QCURVE SMOOTH",
"373 68 OFFCURVE",
"373 93 QCURVE SMOOTH",
"373 108 OFFCURVE",
"376 117 QCURVE",
"402 246 LINE SMOOTH",
"417 318 OFFCURVE",
"417 354 QCURVE SMOOTH",
"417 442 OFFCURVE",
"349 442 QCURVE SMOOTH"
);
}
);
width = 465;
}
);
note = h;
unicode = 0068;
},
{
glyphname = i;
layers = (
{
layerId = "3968EB47-B6D1-4984-BCC6-AA3E1527005D";
paths = (
{
closed = 1;
nodes = (
"157 442 OFFCURVE",
"58 363 OFFCURVE",
"47 340 QCURVE",
"47 336 OFFCURVE",
"61 316 OFFCURVE",
"63 316 QCURVE",
"73 328 OFFCURVE",
"115 366 OFFCURVE",
"127 366 QCURVE SMOOTH",
"137 366 OFFCURVE",
"137 342 QCURVE SMOOTH",
"137 331 OFFCURVE",
"133 310 QCURVE SMOOTH",
"94 111 LINE SMOOTH",
"86 70 OFFCURVE",
"86 48 QCURVE SMOOTH",
"86 22 OFFCURVE",
"111 -7 OFFCURVE",
"130 -7 QCURVE SMOOTH",
"166 -7 OFFCURVE",
"268 75 OFFCURVE",
"280 99 QCURVE",
"280 103 OFFCURVE",
"266 122 OFFCURVE",
"264 122 QCURVE",
"259 117 OFFCURVE",
"238 95 OFFCURVE",
"204 68 OFFCURVE",
"194 68 QCURVE SMOOTH",
"184 68 OFFCURVE",
"184 93 QCURVE SMOOTH",
"184 108 OFFCURVE",
"186 117 QCURVE SMOOTH",
"227 324 LINE SMOOTH",
"235 363 OFFCURVE",
"235 388 QCURVE SMOOTH",
"235 413 OFFCURVE",
"210 442 OFFCURVE",
"192 442 QCURVE SMOOTH"
);
},
{
closed = 1;
nodes = (
"195 666 OFFCURVE",
"157 624 OFFCURVE",
"157 596 QCURVE SMOOTH",
"157 574 OFFCURVE",
"183 543 OFFCURVE",
"203 543 QCURVE SMOOTH",
"230 543 OFFCURVE",
"269 587 OFFCURVE",
"269 616 QCURVE SMOOTH",
"269 637 OFFCURVE",
"242 666 OFFCURVE",
"222 666 QCURVE SMOOTH"
);
}
);
width = 280;
}
);
note = i;
unicode = 0069;
},
{
glyphname = j;
layers = (
{
layerId = "3968EB47-B6D1-4984-BCC6-AA3E1527005D";
paths = (
{
closed = 1;
nodes = (
"206 442 OFFCURVE",
"106 363 OFFCURVE",
"95 340 QCURVE",
"95 336 OFFCURVE",
"109 316 OFFCURVE",
"111 316 QCURVE",
"121 328 OFFCURVE",
"163 366 OFFCURVE",
"175 366 QCURVE SMOOTH",
"185 366 OFFCURVE",
"185 342 QCURVE SMOOTH",
"185 332 OFFCURVE",
"182 310 QCURVE",
"132 61 LINE SMOOTH",
"113 -37 OFFCURVE",
"49 -154 OFFCURVE",
"-10 -198 QCURVE",
"-10 -204 OFFCURVE",
"-2 -225 OFFCURVE",
"1 -226 QCURVE",
"31 -216 OFFCURVE",
"124 -151 OFFCURVE",
"152 -113 QCURVE SMOOTH",
"204 -43 OFFCURVE",
"228 82 QCURVE SMOOTH",
"275 324 LINE SMOOTH",
"283 364 OFFCURVE",
"283 388 QCURVE SMOOTH",
"283 413 OFFCURVE",
"259 442 OFFCURVE",
"240 442 QCURVE SMOOTH"
);
},
{
closed = 1;
nodes = (
"250 668 OFFCURVE",
"212 625 OFFCURVE",
"212 596 QCURVE SMOOTH",
"212 574 OFFCURVE",
"237 544 OFFCURVE",
"258 544 QCURVE SMOOTH",
"284 544 OFFCURVE",
"324 587 OFFCURVE",
"324 616 QCURVE SMOOTH",
"324 637 OFFCURVE",
"297 668 OFFCURVE",
"276 668 QCURVE SMOOTH"
);
}
);
width = 317;
}
);
note = j;
unicode = 006A;
},
{
glyphname = k;
layers = (
{
layerId = "3968EB47-B6D1-4984-BCC6-AA3E1527005D";
paths = (
{
closed = 1;
nodes = (
"322 442 OFFCURVE",
"265 414 OFFCURVE",
"225 372 OFFCURVE",
"204 344 OFFCURVE",
"198 334 QCURVE",
"246 588 LINE SMOOTH",
"261 667 OFFCURVE",
"261 670 QCURVE SMOOTH",
"261 686 OFFCURVE",
"254 690 QCURVE",
"230 681 OFFCURVE",
"139 658 OFFCURVE",
"108 656 QCURVE",
"100 648 OFFCURVE",
"100 635 QCURVE SMOOTH",
"100 628 OFFCURVE",
"102 628 QCURVE SMOOTH",
"158 628 OFFCURVE",
"158 608 QCURVE SMOOTH",
"158 596 OFFCURVE",
"148 552 QCURVE SMOOTH",
"42 0 LINE",
"68 -6 OFFCURVE",
"88 -6 QCURVE SMOOTH",
"115 -6 OFFCURVE",
"132 0 QCURVE",
"170 194 LINE",
"172 189 OFFCURVE",
"193 151 OFFCURVE",
"204 133 OFFCURVE",
"226 95 OFFCURVE",
"242 74 OFFCURVE",
"266 42 OFFCURVE",
"287 23 OFFCURVE",
"312 4 OFFCURVE",
"337 -4 OFFCURVE",
"350 -4 QCURVE SMOOTH",
"389 -4 OFFCURVE",
"465 65 OFFCURVE",
"473 88 QCURVE",
"473 91 OFFCURVE",
"455 109 OFFCURVE",
"452 109 QCURVE",
"444 96 OFFCURVE",
"403 61 OFFCURVE",
"385 61 QCURVE SMOOTH",
"365 61 OFFCURVE",
"306 131 OFFCURVE",
"264 202 QCURVE",
"336 212 OFFCURVE",
"449 299 OFFCURVE",
"449 362 QCURVE SMOOTH",
"449 397 OFFCURVE",
"390 442 OFFCURVE",
"352 442 QCURVE SMOOTH"
);
},
{
closed = 1;
nodes = (
"330 382 OFFCURVE",
"343 320 OFFCURVE",
"332 304 QCURVE",
"327 283 OFFCURVE",
"287 253 OFFCURVE",
"238 241 OFFCURVE",
"207 236 OFFCURVE",
"202 236 QCURVE SMOOTH",
"184 236 OFFCURVE",
"184 242 QCURVE SMOOTH",
"184 255 OFFCURVE",
"225 322 OFFCURVE",
"288 382 OFFCURVE",
"312 382 QCURVE SMOOTH"
);
}
);
width = 475;
}
);
note = k;
unicode = 006B;
},
{
glyphname = l;
layers = (
{
layerId = "3968EB47-B6D1-4984-BCC6-AA3E1527005D";
paths = (
{
closed = 1;
nodes = (
"46 70 OFFCURVE",
"46 48 QCURVE SMOOTH",
"46 22 OFFCURVE",
"70 -7 OFFCURVE",
"89 -7 QCURVE SMOOTH",
"125 -7 OFFCURVE",
"228 75 OFFCURVE",
"239 99 QCURVE",
"239 103 OFFCURVE",
"225 122 OFFCURVE",
"223 122 QCURVE",
"218 117 OFFCURVE",
"197 95 OFFCURVE",
"163 68 OFFCURVE",
"154 68 QCURVE SMOOTH",
"144 68 OFFCURVE",
"144 93 QCURVE SMOOTH",
"144 106 OFFCURVE",
"146 117 QCURVE SMOOTH",
"238 588 LINE SMOOTH",
"253 662 OFFCURVE",
"253 670 QCURVE SMOOTH",
"253 686 OFFCURVE",
"245 690 QCURVE",
"221 681 OFFCURVE",
"129 658 OFFCURVE",
"98 656 QCURVE",
"90 648 OFFCURVE",
"90 635 QCURVE SMOOTH",
"90 628 OFFCURVE",
"93 628 QCURVE SMOOTH",
"148 628 OFFCURVE",
"148 608 QCURVE SMOOTH",
"148 595 OFFCURVE",
"142 564 QCURVE SMOOTH",
"54 111 LINE SMOOTH"
);
}
);
width = 238;
}
);
note = l;
unicode = 006C;
},
{
glyphname = m;
layers = (
{
layerId = "3968EB47-B6D1-4984-BCC6-AA3E1527005D";
paths = (
{
closed = 1;
nodes = (
"344 442 OFFCURVE",
"245 327 OFFCURVE",
"214 270 QCURVE",
"226 329 LINE SMOOTH",
"233 369 OFFCURVE",
"233 388 QCURVE SMOOTH",
"233 413 OFFCURVE",
"208 442 OFFCURVE",
"189 442 QCURVE SMOOTH",
"155 442 OFFCURVE",
"56 363 OFFCURVE",
"45 340 QCURVE",
"45 336 OFFCURVE",
"58 316 OFFCURVE",
"61 316 QCURVE",
"70 328 OFFCURVE",
"113 366 OFFCURVE",
"125 366 QCURVE SMOOTH",
"135 366 OFFCURVE",
"135 342 QCURVE SMOOTH",
"135 332 OFFCURVE",
"131 310 QCURVE SMOOTH",
"71 0 LINE",
"96 -5 OFFCURVE",
"117 -5 QCURVE SMOOTH",
"139 -5 OFFCURVE",
"162 0 QCURVE",
"182 96 LINE SMOOTH",
"191 144 OFFCURVE",
"248 265 OFFCURVE",
"313 351 OFFCURVE",
"332 351 QCURVE SMOOTH",
"357 351 OFFCURVE",
"357 311 QCURVE SMOOTH",
"357 297 OFFCURVE",
"350 263 QCURVE SMOOTH",
"298 0 LINE",
"319 -4 OFFCURVE",
"344 -4 QCURVE SMOOTH",
"364 -4 OFFCURVE",
"390 0 QCURVE",
"410 100 LINE SMOOTH",
"425 177 OFFCURVE",
"532 351 OFFCURVE",
"562 351 QCURVE SMOOTH",
"576 351 OFFCURVE",
"586 330 OFFCURVE",
"586 309 QCURVE SMOOTH",
"586 294 OFFCURVE",
"577 253 QCURVE SMOOTH",
"548 111 LINE SMOOTH",
"540 68 OFFCURVE",
"540 48 QCURVE SMOOTH",
"540 22 OFFCURVE",
"564 -7 OFFCURVE",
"583 -7 QCURVE SMOOTH",
"619 -7 OFFCURVE",
"722 75 OFFCURVE",
"733 99 QCURVE",
"733 103 OFFCURVE",
"719 122 OFFCURVE",
"717 122 QCURVE",
"712 117 OFFCURVE",
"691 95 OFFCURVE",
"657 68 OFFCURVE",
"648 68 QCURVE SMOOTH",
"638 68 OFFCURVE",
"638 93 QCURVE SMOOTH",
"638 108 OFFCURVE",
"640 117 QCURVE SMOOTH",
"666 246 LINE SMOOTH",
"682 318 OFFCURVE",
"682 354 QCURVE SMOOTH",
"682 442 OFFCURVE",
"610 442 QCURVE SMOOTH",
"576 442 OFFCURVE",
"473 333 OFFCURVE",
"443 279 QCURVE",
"452 329 OFFCURVE",
"452 340 QCURVE SMOOTH",
"452 442 OFFCURVE",
"378 442 QCURVE SMOOTH"
);
}
);
width = 725;
}
);
note = m;
unicode = 006D;
},
{
glyphname = n;
layers = (
{
layerId = "3968EB47-B6D1-4984-BCC6-AA3E1527005D";
paths = (
{
closed = 1;
nodes = (
"154 442 OFFCURVE",
"55 363 OFFCURVE",
"44 340 QCURVE",
"44 336 OFFCURVE",
"57 316 OFFCURVE",
"60 316 QCURVE",
"69 328 OFFCURVE",
"112 366 OFFCURVE",
"124 366 QCURVE SMOOTH",
"134 366 OFFCURVE",
"134 342 QCURVE SMOOTH",
"134 332 OFFCURVE",
"130 310 QCURVE SMOOTH",
"70 0 LINE",
"90 -5 OFFCURVE",
"117 -5 QCURVE SMOOTH",
"144 -5 OFFCURVE",
"160 0 QCURVE",
"180 92 LINE SMOOTH",
"190 146 OFFCURVE",
"252 270 OFFCURVE",
"317 351 OFFCURVE",
"335 351 QCURVE SMOOTH",
"359 351 OFFCURVE",
"359 309 QCURVE SMOOTH",
"359 294 OFFCURVE",
"351 253 QCURVE SMOOTH",
"322 111 LINE SMOOTH",
"313 68 OFFCURVE",
"313 48 QCURVE SMOOTH",
"313 22 OFFCURVE",
"338 -7 OFFCURVE",
"356 -7 QCURVE SMOOTH",
"393 -7 OFFCURVE",
"495 75 OFFCURVE",
"506 99 QCURVE",
"506 103 OFFCURVE",
"493 122 OFFCURVE",
"490 122 QCURVE",
"486 117 OFFCURVE",
"465 95 OFFCURVE",
"431 68 OFFCURVE",
"421 68 QCURVE SMOOTH",
"411 68 OFFCURVE",
"411 93 QCURVE SMOOTH",
"411 108 OFFCURVE",
"414 117 QCURVE",
"440 246 LINE SMOOTH",
"455 318 OFFCURVE",
"455 354 QCURVE SMOOTH",
"455 442 OFFCURVE",
"387 442 QCURVE SMOOTH",
"349 442 OFFCURVE",
"236 315 OFFCURVE",
"214 270 QCURVE",
"214 270 OFFCURVE",
"217 287 OFFCURVE",
"222 313 OFFCURVE",
"224 325 OFFCURVE",
"225 329 QCURVE",
"232 369 OFFCURVE",
"232 388 QCURVE SMOOTH",
"232 413 OFFCURVE",
"207 442 OFFCURVE",
"188 442 QCURVE SMOOTH"
);
}
);
width = 502;
}
);
note = n;
unicode = 006E;
},
{
glyphname = o;
layers = (
{
layerId = "3968EB47-B6D1-4984-BCC6-AA3E1527005D";
paths = (
{
closed = 1;
nodes = (
"284 395 OFFCURVE",
"308 346 OFFCURVE",
"308 302 QCURVE SMOOTH",
"309 250 OFFCURVE",
"280 131 OFFCURVE",
"224 42 OFFCURVE",
"192 42 QCURVE SMOOTH",
"169 42 OFFCURVE",
"143 91 OFFCURVE",
"142 134 QCURVE",
"142 190 OFFCURVE",
"174 310 OFFCURVE",
"231 395 OFFCURVE",
"262 395 QCURVE SMOOTH"
);
},
{
closed = 1;
nodes = (
"216 442 OFFCURVE",
"108 354 OFFCURVE",
"42 218 OFFCURVE",
"42 150 QCURVE SMOOTH",
"42 78 OFFCURVE",
"109 -6 OFFCURVE",
"178 -6 QCURVE SMOOTH",
"235 -6 OFFCURVE",
"342 78 OFFCURVE",
"408 213 OFFCURVE",
"408 284 QCURVE SMOOTH",
"408 357 OFFCURVE",
"341 442 OFFCURVE",
"273 442 QCURVE SMOOTH"
);
}
);
width = 402;
}
);
note = o;
unicode = 006F;
},
{
glyphname = p;
layers = (
{
layerId = "3968EB47-B6D1-4984-BCC6-AA3E1527005D";
paths = (
{
closed = 1;
nodes = (
"347 374 OFFCURVE",
"371 331 OFFCURVE",
"371 298 QCURVE SMOOTH",
"371 240 OFFCURVE",
"327 122 OFFCURVE",
"259 48 OFFCURVE",
"227 48 QCURVE SMOOTH",
"183 48 OFFCURVE",
"194 102 QCURVE SMOOTH",
"234 312 LINE",
"251 338 OFFCURVE",
"299 374 OFFCURVE",
"322 374 QCURVE SMOOTH"
);
},
{
closed = 1;
nodes = (
"350 442 OFFCURVE",
"321 434 OFFCURVE",
"301 425 OFFCURVE",
"278 408 OFFCURVE",
"267 398 OFFCURVE",
"248 378 OFFCURVE",
"246 377 QCURVE",
"247 380 OFFCURVE",
"259 436 QCURVE",
"238 443 OFFCURVE",
"213 443 QCURVE SMOOTH",
"190 443 OFFCURVE",
"168 438 QCURVE",
"138 286 LINE",
"128 277 OFFCURVE",
"82 229 QCURVE SMOOTH",
"77 224 OFFCURVE",
"77 218 QCURVE SMOOTH",
"77 204 OFFCURVE",
"85 193 QCURVE",
"128 232 LINE",
"57 -134 LINE SMOOTH",
"50 -170 OFFCURVE",
"43 -180 QCURVE",
"29 -196 OFFCURVE",
"-2 -196 QCURVE",
"-7 -201 OFFCURVE",
"-7 -220 QCURVE SMOOTH",
"-7 -226 OFFCURVE",
"-3 -228 QCURVE",
"69 -220 OFFCURVE",
"131 -219 QCURVE SMOOTH",
"205 -219 LINE",
"209 -212 OFFCURVE",
"209 -197 QCURVE SMOOTH",
"209 -188 OFFCURVE",
"205 -188 QCURVE SMOOTH",
"178 -188 OFFCURVE",
"163 -184 QCURVE",
"145 -180 OFFCURVE",
"145 -155 QCURVE SMOOTH",
"145 -144 OFFCURVE",
"148 -130 QCURVE SMOOTH",
"174 5 LINE",
"189 -5 OFFCURVE",
"213 -5 QCURVE SMOOTH",
"294 -5 OFFCURVE",
"469 189 OFFCURVE",
"469 300 QCURVE SMOOTH",
"469 357 OFFCURVE",
"415 442 OFFCURVE",
"365 442 QCURVE SMOOTH"
);
}
);
width = 468;
}
);
note = p;
unicode = 0070;
},
{
glyphname = q;
layers = (
{
layerId = "3968EB47-B6D1-4984-BCC6-AA3E1527005D";
paths = (
{
closed = 1;
nodes = (
"324 387 OFFCURVE",
"331 376 QCURVE",
"308 260 LINE SMOOTH",
"295 196 OFFCURVE",
"215 61 OFFCURVE",
"182 61 QCURVE SMOOTH",
"142 61 OFFCURVE",
"142 144 QCURVE SMOOTH",
"142 193 OFFCURVE",
"183 306 OFFCURVE",
"254 387 OFFCURVE",
"292 387 QCURVE SMOOTH"
);
},
{
closed = 1;
nodes = (
"268 442 OFFCURVE",
"128 349 OFFCURVE",
"43 205 OFFCURVE",
"43 132 QCURVE SMOOTH",
"43 116 OFFCURVE",
"45 100 OFFCURVE",
"49 96 OFFCURVE",
"55 98 OFFCURVE",
"63 99 OFFCURVE",
"72 96 OFFCURVE",
"85 80 OFFCURVE",
"91 64 QCURVE",
"105 45 OFFCURVE",
"153 37 OFFCURVE",
"194 47 OFFCURVE",
"225 58 QCURVE",
"237 58 OFFCURVE",
"244 -13 QCURVE SMOOTH",
"246 -30 OFFCURVE",
"247 -35 QCURVE",
"248 -45 OFFCURVE",
"250 -40 QCURVE",
"248 -54 OFFCURVE",
"222 -113 OFFCURVE",
"198 -160 OFFCURVE",
"196 -160 QCURVE",
"188 -192 OFFCURVE",
"158 -204 QCURVE",
"157 -205 OFFCURVE",
"157 -205 QCURVE",
"155 -206 OFFCURVE",
"155 -221 QCURVE",
"164 -221 OFFCURVE",
"230 -224 QCURVE",
"292 -219 OFFCURVE",
"347 -219 QCURVE",
"358 -217 OFFCURVE",
"374 -208 QCURVE",
"376 -202 OFFCURVE",
"375 -196 QCURVE",
"371 -196 OFFCURVE",
"368 -195 QCURVE",
"354 -191 OFFCURVE",
"349 -172 QCURVE",
"333 -170 OFFCURVE",
"324 -156 OFFCURVE",
"324 -140 QCURVE SMOOTH",
"324 -138 OFFCURVE",
"347 -8 OFFCURVE",
"348 -2 QCURVE SMOOTH",
"430 424 LINE",
"394 442 OFFCURVE",
"342 442 QCURVE SMOOTH"
);
}
);
width = 415;
}
);
note = q;
unicode = 0071;
},
{
glyphname = r;
layers = (
{
layerId = "3968EB47-B6D1-4984-BCC6-AA3E1527005D";
paths = (
{
closed = 1;
nodes = (
"158 442 OFFCURVE",
"58 363 OFFCURVE",
"47 340 QCURVE",
"47 336 OFFCURVE",
"61 316 OFFCURVE",
"63 316 QCURVE",
"73 328 OFFCURVE",
"115 366 OFFCURVE",
"127 366 QCURVE SMOOTH",
"137 366 OFFCURVE",
"137 342 QCURVE SMOOTH",
"137 332 OFFCURVE",
"134 310 QCURVE",
"74 0 LINE",
"97 -4 OFFCURVE",
"121 -4 QCURVE SMOOTH",
"144 -4 OFFCURVE",
"166 0 QCURVE",
"184 97 LINE SMOOTH",
"195 151 OFFCURVE",
"253 276 OFFCURVE",
"315 358 OFFCURVE",
"332 358 QCURVE SMOOTH",
"346 358 OFFCURVE",
"376 323 OFFCURVE",
"388 323 QCURVE SMOOTH",
"437 323 OFFCURVE",
"437 406 QCURVE",
"412 442 OFFCURVE",
"376 442 QCURVE SMOOTH",
"335 442 OFFCURVE",
"245 334 OFFCURVE",
"217 270 QCURVE",
"218 272 OFFCURVE",
"230 334 QCURVE SMOOTH",
"235 362 OFFCURVE",
"235 388 QCURVE SMOOTH",
"235 413 OFFCURVE",
"211 442 OFFCURVE",
"192 442 QCURVE SMOOTH"
);
}
);
width = 405;
}
);
note = r;
unicode = 0072;
},
{
glyphname = s;
layers = (
{
layerId = "3968EB47-B6D1-4984-BCC6-AA3E1527005D";
paths = (
{
closed = 1;
nodes = (
"174 444 OFFCURVE",
"84 367 OFFCURVE",
"84 319 QCURVE SMOOTH",
"84 282 OFFCURVE",
"146 193 OFFCURVE",
"208 112 OFFCURVE",
"208 84 QCURVE SMOOTH",
"208 64 OFFCURVE",
"186 40 OFFCURVE",
"166 40 QCURVE SMOOTH",
"149 40 OFFCURVE",
"122 61 OFFCURVE",
"108 86 OFFCURVE",
"85 108 OFFCURVE",
"71 108 QCURVE SMOOTH",
"55 108 OFFCURVE",
"34 77 OFFCURVE",
"34 54 QCURVE SMOOTH",
"34 38 OFFCURVE",
"41 28 QCURVE",
"76 -7 OFFCURVE",
"136 -7 QCURVE SMOOTH",
"202 -7 OFFCURVE",
"292 63 OFFCURVE",
"292 118 QCURVE SMOOTH",
"292 147 OFFCURVE",
"253 216 OFFCURVE",
"206 269 OFFCURVE",
"168 330 OFFCURVE",
"168 352 QCURVE SMOOTH",
"168 373 OFFCURVE",
"188 397 OFFCURVE",
"208 397 QCURVE SMOOTH",
"236 397 OFFCURVE",
"282 329 OFFCURVE",
"302 329 QCURVE SMOOTH",
"319 329 OFFCURVE",
"340 358 OFFCURVE",
"340 381 QCURVE SMOOTH",
"340 398 OFFCURVE",
"332 410 QCURVE",
"298 444 OFFCURVE",
"238 444 QCURVE SMOOTH"
);
}
);
width = 322;
}
);
note = s;
unicode = 0073;
},
{
glyphname = t;
layers = (
{
layerId = "3968EB47-B6D1-4984-BCC6-AA3E1527005D";
paths = (
{
closed = 1;
nodes = (
"132 424 LINE",
"68 424 LINE",
"64 420 OFFCURVE",
"55 396 OFFCURVE",
"55 386 QCURVE SMOOTH",
"55 374 OFFCURVE",
"58 374 QCURVE SMOOTH",
"122 374 LINE",
"71 111 LINE SMOOTH",
"62 70 OFFCURVE",
"62 48 QCURVE SMOOTH",
"62 22 OFFCURVE",
"87 -7 OFFCURVE",
"106 -7 QCURVE SMOOTH",
"142 -7 OFFCURVE",
"245 75 OFFCURVE",
"256 99 QCURVE",
"256 103 OFFCURVE",
"242 122 OFFCURVE",
"240 122 QCURVE",
"235 117 OFFCURVE",
"214 95 OFFCURVE",
"180 68 OFFCURVE",
"170 68 QCURVE SMOOTH",
"160 68 OFFCURVE",
"160 93 QCURVE SMOOTH",
"160 108 OFFCURVE",
"163 117 QCURVE",
"213 374 LINE",
"308 374 LINE",
"319 391 OFFCURVE",
"319 410 QCURVE SMOOTH",
"319 424 OFFCURVE",
"312 424 QCURVE SMOOTH",
"222 424 OFFCURVE",
"222 424 QCURVE",
"247 544 LINE",
"237 546 OFFCURVE",
"222 546 QCURVE SMOOTH",
"156 546 OFFCURVE",
"154 534 QCURVE SMOOTH"
);
}
);
width = 277;
}
);
note = t;
unicode = 0074;
},
{
glyphname = u;
layers = (
{
layerId = "3968EB47-B6D1-4984-BCC6-AA3E1527005D";
paths = (
{
closed = 1;
nodes = (
"149 442 OFFCURVE",
"49 363 OFFCURVE",
"38 340 QCURVE",
"38 336 OFFCURVE",
"52 316 OFFCURVE",
"54 316 QCURVE",
"64 328 OFFCURVE",
"106 366 OFFCURVE",
"118 366 QCURVE SMOOTH",
"128 366 OFFCURVE",
"128 342 QCURVE SMOOTH",
"128 328 OFFCURVE",
"124 310 QCURVE SMOOTH",
"100 188 LINE SMOOTH",
"85 117 OFFCURVE",
"85 80 QCURVE SMOOTH",
"85 -7 OFFCURVE",
"153 -7 QCURVE SMOOTH",
"179 -7 OFFCURVE",
"254 63 OFFCURVE",
"309 139 OFFCURVE",
"322 165 QCURVE",
"322 165 OFFCURVE",
"319 148 OFFCURVE",
"314 122 OFFCURVE",
"312 110 OFFCURVE",
"311 106 QCURVE",
"304 64 OFFCURVE",
"304 48 QCURVE SMOOTH",
"304 22 OFFCURVE",
"328 -7 OFFCURVE",
"347 -7 QCURVE SMOOTH",
"383 -7 OFFCURVE",
"486 75 OFFCURVE",
"497 99 QCURVE",
"497 103 OFFCURVE",
"483 122 OFFCURVE",
"481 122 QCURVE",
"476 117 OFFCURVE",
"455 95 OFFCURVE",
"421 68 OFFCURVE",
"412 68 QCURVE SMOOTH",
"402 68 OFFCURVE",
"402 93 QCURVE SMOOTH",
"402 106 OFFCURVE",
"404 117 QCURVE SMOOTH",
"465 435 LINE",
"445 440 OFFCURVE",
"419 440 QCURVE SMOOTH",
"392 440 OFFCURVE",
"375 435 QCURVE",
"356 344 LINE SMOOTH",
"345 289 OFFCURVE",
"286 165 OFFCURVE",
"222 84 OFFCURVE",
"205 84 QCURVE SMOOTH",
"181 84 OFFCURVE",
"181 126 QCURVE SMOOTH",
"181 139 OFFCURVE",
"189 182 QCURVE SMOOTH",
"218 324 LINE SMOOTH",
"226 359 OFFCURVE",
"226 388 QCURVE SMOOTH",
"226 413 OFFCURVE",
"202 442 OFFCURVE",
"183 442 QCURVE SMOOTH"
);
}
);
width = 492;
}
);
note = u;
unicode = 0075;
},
{
glyphname = v;
layers = (
{
layerId = "3968EB47-B6D1-4984-BCC6-AA3E1527005D";
paths = (
{
closed = 1;
nodes = (
"150 442 OFFCURVE",
"51 363 OFFCURVE",
"40 340 QCURVE",
"40 336 OFFCURVE",
"54 316 OFFCURVE",
"56 316 QCURVE",
"66 328 OFFCURVE",
"108 366 OFFCURVE",
"120 366 QCURVE SMOOTH",
"130 366 OFFCURVE",
"130 342 QCURVE SMOOTH",
"130 326 OFFCURVE",
"126 310 QCURVE",
"92 136 LINE SMOOTH",
"88 115 OFFCURVE",
"88 88 QCURVE SMOOTH",
"88 47 OFFCURVE",
"136 -2 OFFCURVE",
"174 -2 QCURVE SMOOTH",
"209 -2 OFFCURVE",
"302 66 OFFCURVE",
"386 170 OFFCURVE",
"445 310 OFFCURVE",
"445 374 QCURVE SMOOTH",
"445 412 OFFCURVE",
"433 432 QCURVE",
"420 442 OFFCURVE",
"398 442 QCURVE SMOOTH",
"375 442 OFFCURVE",
"342 413 OFFCURVE",
"342 390 QCURVE SMOOTH",
"342 372 OFFCURVE",
"374 322 OFFCURVE",
"374 298 QCURVE SMOOTH",
"374 258 OFFCURVE",
"321 151 OFFCURVE",
"247 75 OFFCURVE",
"218 75 QCURVE SMOOTH",
"184 75 OFFCURVE",
"184 121 QCURVE SMOOTH",
"184 141 OFFCURVE",
"190 171 QCURVE SMOOTH",
"221 329 LINE SMOOTH",
"228 363 OFFCURVE",
"228 388 QCURVE SMOOTH",
"228 413 OFFCURVE",
"203 442 OFFCURVE",
"184 442 QCURVE SMOOTH"
);
}
);
width = 429;
}
);
note = v;
unicode = 0076;
},
{
glyphname = w;
layers = (
{
layerId = "3968EB47-B6D1-4984-BCC6-AA3E1527005D";
paths = (
{
closed = 1;
nodes = (
"150 442 OFFCURVE",
"51 363 OFFCURVE",
"40 340 QCURVE",
"40 336 OFFCURVE",
"54 316 OFFCURVE",
"56 316 QCURVE",
"66 328 OFFCURVE",
"108 366 OFFCURVE",
"120 366 QCURVE SMOOTH",
"130 366 OFFCURVE",
"130 342 QCURVE SMOOTH",
"130 326 OFFCURVE",
"126 310 QCURVE",
"92 136 LINE SMOOTH",
"88 115 OFFCURVE",
"88 88 QCURVE SMOOTH",
"88 47 OFFCURVE",
"136 -2 OFFCURVE",
"174 -2 QCURVE SMOOTH",
"235 -2 OFFCURVE",
"314 87 QCURVE",
"315 45 OFFCURVE",
"363 -2 OFFCURVE",
"402 -2 QCURVE SMOOTH",
"448 -2 OFFCURVE",
"572 109 OFFCURVE",
"666 289 OFFCURVE",
"666 374 QCURVE SMOOTH",
"666 412 OFFCURVE",
"654 432 QCURVE",
"642 442 OFFCURVE",
"618 442 QCURVE SMOOTH",
"596 442 OFFCURVE",
"562 415 OFFCURVE",
"562 392 QCURVE SMOOTH",
"562 374 OFFCURVE",
"596 321 OFFCURVE",
"596 298 QCURVE SMOOTH",
"596 257 OFFCURVE",
"546 151 OFFCURVE",
"474 75 OFFCURVE",
"446 75 QCURVE SMOOTH",
"425 75 OFFCURVE",
"411 105 OFFCURVE",
"411 148 QCURVE SMOOTH",
"411 164 OFFCURVE",
"416 196 QCURVE",
"455 321 OFFCURVE",
"455 384 QCURVE SMOOTH",
"455 442 OFFCURVE",
"408 442 QCURVE SMOOTH",
"372 442 OFFCURVE",
"340 318 OFFCURVE",
"322 160 QCURVE",
"298 120 OFFCURVE",
"242 75 OFFCURVE",
"218 75 QCURVE SMOOTH",
"184 75 OFFCURVE",
"184 121 QCURVE SMOOTH",
"184 141 OFFCURVE",
"190 171 QCURVE SMOOTH",
"221 329 LINE SMOOTH",
"228 363 OFFCURVE",
"228 388 QCURVE SMOOTH",
"228 413 OFFCURVE",
"203 442 OFFCURVE",
"184 442 QCURVE SMOOTH"
);
}
);
width = 659;
}
);
note = w;
unicode = 0077;
},
{
glyphname = x;
layers = (
{
layerId = "3968EB47-B6D1-4984-BCC6-AA3E1527005D";
paths = (
{
closed = 1;
nodes = (
"179 442 OFFCURVE",
"84 363 OFFCURVE",
"77 341 QCURVE",
"77 337 OFFCURVE",
"91 319 OFFCURVE",
"94 319 QCURVE",
"101 331 OFFCURVE",
"144 368 OFFCURVE",
"159 368 QCURVE SMOOTH",
"175 368 OFFCURVE",
"184 336 QCURVE SMOOTH",
"223 207 LINE",
"150 84 LINE",
"138 62 OFFCURVE",
"122 62 QCURVE SMOOTH",
"110 62 OFFCURVE",
"77 87 OFFCURVE",
"62 87 QCURVE SMOOTH",
"43 87 OFFCURVE",
"20 59 OFFCURVE",
"20 40 QCURVE SMOOTH",
"20 26 OFFCURVE",
"27 13 QCURVE",
"54 -6 OFFCURVE",
"92 -6 QCURVE SMOOTH",
"144 -6 OFFCURVE",
"181 54 QCURVE SMOOTH",
"239 151 LINE",
"260 78 LINE SMOOTH",
"284 -5 OFFCURVE",
"322 -5 QCURVE SMOOTH",
"359 -5 OFFCURVE",
"453 74 OFFCURVE",
"460 96 QCURVE",
"460 100 OFFCURVE",
"446 118 OFFCURVE",
"443 118 QCURVE",
"436 106 OFFCURVE",
"393 70 OFFCURVE",
"378 70 QCURVE SMOOTH",
"371 70 OFFCURVE",
"357 88 OFFCURVE",
"353 100 QCURVE",
"312 241 LINE",
"376 352 LINE SMOOTH",
"388 374 OFFCURVE",
"405 374 QCURVE SMOOTH",
"417 374 OFFCURVE",
"449 349 OFFCURVE",
"464 349 QCURVE SMOOTH",
"483 349 OFFCURVE",
"507 377 OFFCURVE",
"507 396 QCURVE SMOOTH",
"507 409 OFFCURVE",
"500 423 QCURVE",
"472 442 OFFCURVE",
"435 442 QCURVE SMOOTH",
"382 442 OFFCURVE",
"346 382 QCURVE SMOOTH",
"295 298 LINE",
"277 360 LINE SMOOTH",
"253 442 OFFCURVE",
"215 442 QCURVE SMOOTH"
);
}
);
width = 489;
}
);
note = x;
unicode = 0078;
},
{
glyphname = y;
layers = (
{
layerId = "3968EB47-B6D1-4984-BCC6-AA3E1527005D";
paths = (
{
closed = 1;
nodes = (
"191 442 OFFCURVE",
"124 387 OFFCURVE",
"80 333 OFFCURVE",
"78 328 QCURVE",
"79 328 OFFCURVE",
"90 333 OFFCURVE",
"103 339 OFFCURVE",
"117 343 OFFCURVE",
"122 343 QCURVE",
"151 359 OFFCURVE",
"161 352 QCURVE",
"189 311 OFFCURVE",
"218 121 OFFCURVE",
"218 35 QCURVE SMOOTH",
"218 -46 OFFCURVE",
"196 -76 QCURVE SMOOTH",
"145 -146 OFFCURVE",
"66 -146 QCURVE SMOOTH",
"27 -146 OFFCURVE",
"-6 -134 QCURVE",
"-26 -150 OFFCURVE",
"-26 -178 QCURVE SMOOTH",
"-26 -201 OFFCURVE",
"8 -226 OFFCURVE",
"34 -226 QCURVE SMOOTH",
"78 -226 OFFCURVE",
"199 -153 OFFCURVE",
"320 -27 OFFCURVE",
"425 123 OFFCURVE",
"490 299 OFFCURVE",
"490 375 QCURVE SMOOTH",
"490 399 OFFCURVE",
"465 442 OFFCURVE",
"440 442 QCURVE SMOOTH",
"419 442 OFFCURVE",
"386 412 OFFCURVE",
"383 390 QCURVE",
"414 338 OFFCURVE",
"414 279 QCURVE SMOOTH",
"414 226 OFFCURVE",
"340 81 OFFCURVE",
"312 47 QCURVE",
"312 64 OFFCURVE",
"309 117 OFFCURVE",
"301 215 OFFCURVE",
"287 305 OFFCURVE",
"266 390 OFFCURVE",
"233 442 OFFCURVE",
"213 442 QCURVE SMOOTH"
);
}
);
width = 484;
}
);
note = y;
unicode = 0079;
},
{
glyphname = z;
layers = (
{
layerId = "3968EB47-B6D1-4984-BCC6-AA3E1527005D";
paths = (
{
closed = 1;
nodes = (
"157 442 OFFCURVE",
"91 359 OFFCURVE",
"78 325 QCURVE",
"81 316 OFFCURVE",
"92 300 OFFCURVE",
"98 302 QCURVE",
"101 304 OFFCURVE",
"122 335 OFFCURVE",
"151 362 OFFCURVE",
"165 362 QCURVE SMOOTH",
"185 362 OFFCURVE",
"257 333 OFFCURVE",
"282 333 QCURVE SMOOTH",
"288 333 OFFCURVE",
"304 339 OFFCURVE",
"319 347 OFFCURVE",
"320 347 QCURVE",
"320 347 OFFCURVE",
"169 189 OFFCURVE",
"18 28 OFFCURVE",
"18 24 QCURVE",
"19 16 OFFCURVE",
"28 -2 OFFCURVE",
"36 -2 QCURVE SMOOTH",
"47 -2 OFFCURVE",
"96 23 OFFCURVE",
"112 23 QCURVE SMOOTH",
"146 23 OFFCURVE",
"254 -2 OFFCURVE",
"276 -2 QCURVE SMOOTH",
"296 -2 OFFCURVE",
"336 26 OFFCURVE",
"366 68 OFFCURVE",
"384 101 OFFCURVE",
"390 114 QCURVE",
"388 124 OFFCURVE",
"378 140 OFFCURVE",
"372 138 QCURVE",
"370 137 OFFCURVE",
"348 106 OFFCURVE",
"319 79 OFFCURVE",
"306 79 QCURVE SMOOTH",
"286 79 OFFCURVE",
"207 108 OFFCURVE",
"181 108 QCURVE SMOOTH",
"171 108 OFFCURVE",
"140 94 OFFCURVE",
"137 94 QCURVE SMOOTH",
"137 94 OFFCURVE",
"288 250 OFFCURVE",
"438 409 OFFCURVE",
"438 412 QCURVE SMOOTH",
"438 442 OFFCURVE",
"423 442 QCURVE SMOOTH",
"409 442 OFFCURVE",
"367 418 OFFCURVE",
"352 418 QCURVE SMOOTH",
"318 418 OFFCURVE",
"211 442 OFFCURVE",
"188 442 QCURVE SMOOTH"
);
}
);
width = 419;
}
);
note = z;
unicode = 007A;
},
{
glyphname = braceleft;
layers = (
{
layerId = "3968EB47-B6D1-4984-BCC6-AA3E1527005D";
paths = (
{
closed = 1;
nodes = (
"15 -41 OFFCURVE",
"98 -125 OFFCURVE",
"152 -125 QCURVE SMOOTH",
"158 -125 OFFCURVE",
"160 -96 OFFCURVE",
"154 -94 QCURVE",
"132 -92 OFFCURVE",
"89 -41 OFFCURVE",
"89 -4 QCURVE SMOOTH",
"89 32 OFFCURVE",
"159 173 OFFCURVE",
"159 220 QCURVE SMOOTH",
"159 257 OFFCURVE",
"124 308 OFFCURVE",
"102 308 QCURVE",
"132 308 OFFCURVE",
"207 403 OFFCURVE",
"207 483 QCURVE SMOOTH",
"207 499 OFFCURVE",
"202 554 OFFCURVE",
"202 569 QCURVE SMOOTH",
"202 611 OFFCURVE",
"231 675 OFFCURVE",
"273 705 OFFCURVE",
"304 718 OFFCURVE",
"312 719 QCURVE",
"317 720 OFFCURVE",
"325 739 OFFCURVE",
"325 745 QCURVE SMOOTH",
"325 750 OFFCURVE",
"322 750 QCURVE SMOOTH",
"246 750 OFFCURVE",
"112 629 OFFCURVE",
"112 532 QCURVE SMOOTH",
"112 515 OFFCURVE",
"118 453 OFFCURVE",
"118 438 QCURVE SMOOTH",
"118 386 OFFCURVE",
"73 342 OFFCURVE",
"19 328 QCURVE",
"14 321 OFFCURVE",
"10 296 OFFCURVE",
"11 292 QCURVE",
"14 291 OFFCURVE",
"40 282 OFFCURVE",
"48 278 OFFCURVE",
"67 268 OFFCURVE",
"74 259 OFFCURVE",
"81 243 OFFCURVE",
"81 234 QCURVE SMOOTH",
"81 208 OFFCURVE",
"15 67 OFFCURVE",
"15 22 QCURVE SMOOTH"
);
}
);
width = 312;
}
);
note = braceleft;
unicode = 007B;
},
{
glyphname = bar;
layers = (
{
layerId = "3968EB47-B6D1-4984-BCC6-AA3E1527005D";
paths = (
{
closed = 1;
nodes = (
"128 587 OFFCURVE",
"-7 -115 QCURVE",
"-8 -119 OFFCURVE",
"1 -124 OFFCURVE",
"6 -124 QCURVE SMOOTH",
"21 -124 OFFCURVE",
"58 -112 OFFCURVE",
"65 -106 QCURVE",
"233 766 LINE",
"234 775 OFFCURVE",
"215 775 QCURVE SMOOTH",
"182 775 OFFCURVE",
"163 757 QCURVE"
);
}
);
width = 229;
}
);
note = bar;
unicode = 007C;
},
{
glyphname = braceright;
layers = (
{
layerId = "3968EB47-B6D1-4984-BCC6-AA3E1527005D";
paths = (
{
closed = 1;
nodes = (
"32 -125 OFFCURVE",
"126 -74 OFFCURVE",
"199 32 OFFCURVE",
"199 97 QCURVE SMOOTH",
"199 112 OFFCURVE",
"194 170 OFFCURVE",
"194 198 OFFCURVE",
"197 221 OFFCURVE",
"205 240 OFFCURVE",
"210 253 OFFCURVE",
"225 265 OFFCURVE",
"233 271 OFFCURVE",
"254 280 OFFCURVE",
"262 283 OFFCURVE",
"289 291 OFFCURVE",
"293 292 QCURVE",
"300 300 OFFCURVE",
"300 321 QCURVE SMOOTH",
"300 326 OFFCURVE",
"299 328 QCURVE",
"266 337 OFFCURVE",
"231 363 OFFCURVE",
"231 417 OFFCURVE",
"302 564 OFFCURVE",
"302 611 QCURVE SMOOTH",
"302 676 OFFCURVE",
"217 750 OFFCURVE",
"160 750 QCURVE SMOOTH",
"155 750 OFFCURVE",
"153 720 OFFCURVE",
"159 719 QCURVE",
"181 717 OFFCURVE",
"225 670 OFFCURVE",
"225 634 QCURVE SMOOTH",
"225 599 OFFCURVE",
"153 445 OFFCURVE",
"153 399 QCURVE SMOOTH",
"153 361 OFFCURVE",
"187 308 OFFCURVE",
"209 308 QCURVE",
"177 308 OFFCURVE",
"105 216 OFFCURVE",
"105 141 QCURVE SMOOTH",
"105 125 OFFCURVE",
"111 73 OFFCURVE",
"111 59 QCURVE SMOOTH",
"111 27 OFFCURVE",
"92 -27 OFFCURVE",
"64 -60 OFFCURVE",
"31 -84 OFFCURVE",
"7 -94 OFFCURVE",
"0 -94 QCURVE",
"-5 -95 OFFCURVE",
"-13 -115 OFFCURVE",
"-13 -125 OFFCURVE",
"-10 -125 QCURVE SMOOTH"
);
}
);
width = 317;
}
);
note = braceright;
unicode = 007D;
},
{
glyphname = asciitilde;
layers = (
{
layerId = "3968EB47-B6D1-4984-BCC6-AA3E1527005D";
paths = (
{
closed = 1;
nodes = (
"146 356 OFFCURVE",
"48 300 OFFCURVE",
"48 269 QCURVE SMOOTH",
"48 262 OFFCURVE",
"54 256 QCURVE",
"55 257 OFFCURVE",
"73 270 OFFCURVE",
"76 272 OFFCURVE",
"91 283 OFFCURVE",
"96 285 OFFCURVE",
"109 293 OFFCURVE",
"117 295 OFFCURVE",
"129 299 OFFCURVE",
"140 300 OFFCURVE",
"146 300 QCURVE SMOOTH",
"190 300 OFFCURVE",
"314 248 OFFCURVE",
"358 248 QCURVE SMOOTH",
"406 248 OFFCURVE",
"493 306 OFFCURVE",
"493 335 QCURVE SMOOTH",
"493 343 OFFCURVE",
"488 348 QCURVE",
"467 332 OFFCURVE",
"447 319 OFFCURVE",
"411 304 OFFCURVE",
"394 304 QCURVE SMOOTH",
"350 304 OFFCURVE",
"230 356 OFFCURVE",
"186 356 QCURVE SMOOTH"
);
}
);
width = 534;
}
);
note = asciitilde;
unicode = 007E;
},
{
glyphname = exclamdown;
layers = (
{
layerId = "3968EB47-B6D1-4984-BCC6-AA3E1527005D";
paths = (
{
closed = 1;
nodes = (
"212 405 OFFCURVE",
"183 441 OFFCURVE",
"160 441 QCURVE SMOOTH",
"132 441 OFFCURVE",
"90 398 OFFCURVE",
"87 368 QCURVE SMOOTH",
"84 344 OFFCURVE",
"112 308 OFFCURVE",
"136 308 QCURVE SMOOTH",
"163 308 OFFCURVE",
"206 348 OFFCURVE",
"209 378 QCURVE SMOOTH"
);
},
{
closed = 1;
nodes = (
"56 -208 OFFCURVE",
"94 -171 OFFCURVE",
"99 -147 QCURVE",
"110 -81 OFFCURVE",
"139 203 OFFCURVE",
"141 240 QCURVE",
"141 260 OFFCURVE",
"135 260 QCURVE SMOOTH",
"127 260 OFFCURVE",
"106 246 OFFCURVE",
"103 234 QCURVE SMOOTH",
"90 187 OFFCURVE",
"31 -13 OFFCURVE",
"-5 -140 OFFCURVE",
"-6 -152 QCURVE",
"-9 -176 OFFCURVE",
"13 -208 OFFCURVE",
"32 -208 QCURVE SMOOTH"
);
}
);
width = 224;
}
);
note = exclamdown;
unicode = 00A1;
},
{
glyphname = cent;
layers = (
{
layerId = "3968EB47-B6D1-4984-BCC6-AA3E1527005D";
paths = (
{
closed = 1;
nodes = (
"14 104 OFFCURVE",
"73 15 OFFCURVE",
"125 0 QCURVE",
"105 -54 LINE SMOOTH",
"104 -57 OFFCURVE",
"113 -63 OFFCURVE",
"116 -63 QCURVE SMOOTH",
"145 -63 OFFCURVE",
"155 -58 QCURVE",
"158 -47 OFFCURVE",
"172 -7 QCURVE",
"180 -7 LINE SMOOTH",
"232 -7 OFFCURVE",
"331 52 OFFCURVE",
"343 72 QCURVE",
"346 79 OFFCURVE",
"346 96 QCURVE SMOOTH",
"346 103 OFFCURVE",
"337 103 QCURVE",
"324 90 LINE",
"311 76 OFFCURVE",
"257 48 OFFCURVE",
"229 48 QCURVE SMOOTH",
"207 48 OFFCURVE",
"193 53 QCURVE",
"305 366 LINE",
"308 362 OFFCURVE",
"327 334 OFFCURVE",
"342 321 OFFCURVE",
"352 321 QCURVE SMOOTH",
"374 321 OFFCURVE",
"403 350 OFFCURVE",
"410 375 OFFCURVE",
"410 382 QCURVE",
"409 402 OFFCURVE",
"358 434 OFFCURVE",
"331 440 QCURVE",
"350 491 LINE",
"352 495 OFFCURVE",
"344 502 OFFCURVE",
"337 502 QCURVE SMOOTH",
"312 502 OFFCURVE",
"300 496 QCURVE",
"297 486 OFFCURVE",
"283 446 QCURVE",
"270 446 LINE SMOOTH",
"173 446 OFFCURVE",
"14 274 OFFCURVE",
"14 165 QCURVE SMOOTH"
);
},
{
closed = 1;
nodes = (
"122 214 OFFCURVE",
"149 315 OFFCURVE",
"209 398 OFFCURVE",
"247 398 QCURVE SMOOTH",
"255 398 OFFCURVE",
"265 396 QCURVE",
"152 81 LINE",
"122 111 OFFCURVE",
"122 173 QCURVE SMOOTH"
);
}
);
width = 415;
}
);
note = cent;
unicode = 00A2;
},
{
glyphname = sterling;
layers = (
{
layerId = "3968EB47-B6D1-4984-BCC6-AA3E1527005D";
paths = (
{
closed = 1;
nodes = (
"265 636 OFFCURVE",
"135 517 OFFCURVE",
"126 412 QCURVE",
"122 386 OFFCURVE",
"122 363 QCURVE SMOOTH",
"122 359 OFFCURVE",
"119 359 QCURVE SMOOTH",
"62 359 LINE SMOOTH",
"55 359 OFFCURVE",
"42 332 OFFCURVE",
"42 320 QCURVE SMOOTH",
"42 310 OFFCURVE",
"45 304 QCURVE",
"117 304 LINE SMOOTH",
"121 304 OFFCURVE",
"121 300 QCURVE SMOOTH",
"121 282 OFFCURVE",
"115 238 QCURVE SMOOTH",
"105 168 OFFCURVE",
"37 53 OFFCURVE",
"-3 22 QCURVE",
"-8 17 LINE",
"-8 11 OFFCURVE",
"8 -4 OFFCURVE",
"21 -7 QCURVE",
"23 -6 OFFCURVE",
"52 10 OFFCURVE",
"69 18 OFFCURVE",
"103 26 OFFCURVE",
"120 26 QCURVE SMOOTH",
"141 26 OFFCURVE",
"249 -5 OFFCURVE",
"281 -5 QCURVE SMOOTH",
"314 -5 OFFCURVE",
"378 49 OFFCURVE",
"409 97 OFFCURVE",
"419 118 QCURVE",
"420 119 OFFCURVE",
"420 123 QCURVE SMOOTH",
"420 128 OFFCURVE",
"410 138 OFFCURVE",
"407 138 QCURVE",
"405 135 OFFCURVE",
"380 109 OFFCURVE",
"374 103 OFFCURVE",
"353 85 OFFCURVE",
"340 79 OFFCURVE",
"320 73 OFFCURVE",
"309 73 QCURVE SMOOTH",
"295 73 OFFCURVE",
"222 106 OFFCURVE",
"195 106 QCURVE SMOOTH",
"148 106 OFFCURVE",
"117 89 QCURVE",
"188 172 OFFCURVE",
"205 256 QCURVE SMOOTH",
"210 279 OFFCURVE",
"210 301 QCURVE SMOOTH",
"210 304 OFFCURVE",
"215 304 QCURVE SMOOTH",
"354 304 LINE",
"371 321 OFFCURVE",
"371 345 QCURVE SMOOTH",
"371 359 OFFCURVE",
"364 359 QCURVE SMOOTH",
"213 359 LINE SMOOTH",
"210 359 OFFCURVE",
"210 362 QCURVE",
"208 397 OFFCURVE",
"211 423 QCURVE SMOOTH",
"217 488 OFFCURVE",
"276 586 OFFCURVE",
"329 586 QCURVE SMOOTH",
"347 586 OFFCURVE",
"385 529 OFFCURVE",
"405 529 QCURVE SMOOTH",
"445 529 OFFCURVE",
"458 600 QCURVE",
"451 617 OFFCURVE",
"396 636 OFFCURVE",
"363 636 QCURVE SMOOTH"
);
}
);
width = 457;
}
);
note = sterling;
unicode = 00A3;
},
{
glyphname = currency;
layers = (
{
layerId = "3968EB47-B6D1-4984-BCC6-AA3E1527005D";
paths = (
{
closed = 1;
nodes = (
"290 458 OFFCURVE",
"327 399 OFFCURVE",
"327 354 QCURVE SMOOTH",
"327 288 OFFCURVE",
"265 158 OFFCURVE",
"217 158 QCURVE SMOOTH",
"184 158 OFFCURVE",
"148 215 OFFCURVE",
"148 260 QCURVE SMOOTH",
"148 326 OFFCURVE",
"209 458 OFFCURVE",
"257 458 QCURVE SMOOTH"
);
},
{
closed = 1;
nodes = (
"221 497 OFFCURVE",
"171 466 QCURVE",
"135 520 LINE",
"119 516 OFFCURVE",
"84 488 OFFCURVE",
"84 480 QCURVE SMOOTH",
"84 479 OFFCURVE",
"85 478 QCURVE",
"121 424 LINE",
"58 354 OFFCURVE",
"58 269 QCURVE SMOOTH",
"58 232 OFFCURVE",
"70 204 QCURVE",
"11 155 LINE",
"12 140 OFFCURVE",
"31 108 OFFCURVE",
"39 108 QCURVE SMOOTH",
"42 108 OFFCURVE",
"43 109 QCURVE",
"101 158 LINE",
"141 120 OFFCURVE",
"201 120 QCURVE SMOOTH",
"255 120 OFFCURVE",
"306 152 QCURVE",
"341 99 LINE",
"357 103 OFFCURVE",
"393 131 OFFCURVE",
"393 139 QCURVE SMOOTH",
"393 141 OFFCURVE",
"392 142 QCURVE",
"356 194 LINE",
"416 261 OFFCURVE",
"416 346 QCURVE SMOOTH",
"416 380 OFFCURVE",
"403 413 QCURVE",
"464 464 LINE",
"463 479 OFFCURVE",
"445 511 OFFCURVE",
"437 511 QCURVE SMOOTH",
"434 511 OFFCURVE",
"433 510 QCURVE",
"372 458 LINE",
"333 497 OFFCURVE",
"275 497 QCURVE SMOOTH"
);
}
);
width = 475;
}
);
note = currency;
unicode = 00A4;
},
{
glyphname = yen;
layers = (
{
layerId = "3968EB47-B6D1-4984-BCC6-AA3E1527005D";
paths = (
{
closed = 1;
nodes = (
"145 108 LINE",
"138 73 OFFCURVE",
"125 50 QCURVE",
"120 42 OFFCURVE",
"75 26 OFFCURVE",
"65 26 QCURVE SMOOTH",
"63 26 OFFCURVE",
"57 10 OFFCURVE",
"57 3 QCURVE SMOOTH",
"57 -2 OFFCURVE",
"59 -4 QCURVE",
"73 -3 OFFCURVE",
"123 0 OFFCURVE",
"164 2 OFFCURVE",
"183 2 QCURVE SMOOTH",
"201 2 OFFCURVE",
"236 0 OFFCURVE",
"277 -3 OFFCURVE",
"289 -4 QCURVE",
"295 8 OFFCURVE",
"295 22 QCURVE SMOOTH",
"295 26 OFFCURVE",
"293 26 QCURVE SMOOTH",
"285 26 OFFCURVE",
"243 42 OFFCURVE",
"243 53 QCURVE SMOOTH",
"243 76 OFFCURVE",
"249 108 QCURVE",
"356 108 LINE",
"362 112 OFFCURVE",
"373 139 OFFCURVE",
"373 148 QCURVE SMOOTH",
"373 158 OFFCURVE",
"369 158 QCURVE SMOOTH",
"259 158 LINE",
"268 206 LINE",
"373 206 LINE",
"379 210 OFFCURVE",
"390 237 OFFCURVE",
"390 246 QCURVE SMOOTH",
"390 256 OFFCURVE",
"386 256 QCURVE SMOOTH",
"277 256 LINE",
"281 276 LINE SMOOTH",
"285 299 OFFCURVE",
"492 558 OFFCURVE",
"513 579 QCURVE SMOOTH",
"525 591 OFFCURVE",
"586 611 OFFCURVE",
"595 611 QCURVE SMOOTH",
"601 611 OFFCURVE",
"601 640 QCURVE",
"508 635 OFFCURVE",
"487 635 QCURVE SMOOTH",
"465 635 OFFCURVE",
"380 640 QCURVE",
"373 635 OFFCURVE",
"373 616 QCURVE SMOOTH",
"373 610 OFFCURVE",
"375 610 QCURVE SMOOTH",
"397 610 OFFCURVE",
"438 596 OFFCURVE",
"438 584 QCURVE SMOOTH",
"438 560 OFFCURVE",
"286 378 QCURVE",
"284 373 OFFCURVE",
"279 373 QCURVE SMOOTH",
"278 373 OFFCURVE",
"276 376 QCURVE",
"220 554 LINE SMOOTH",
"215 569 OFFCURVE",
"215 576 QCURVE SMOOTH",
"215 594 OFFCURVE",
"255 610 OFFCURVE",
"269 610 QCURVE SMOOTH",
"272 610 OFFCURVE",
"277 629 OFFCURVE",
"277 636 QCURVE SMOOTH",
"277 640 LINE",
"184 635 OFFCURVE",
"141 635 QCURVE SMOOTH",
"129 635 OFFCURVE",
"19 640 QCURVE",
"11 634 OFFCURVE",
"11 618 QCURVE SMOOTH",
"11 610 OFFCURVE",
"14 610 QCURVE SMOOTH",
"41 610 OFFCURVE",
"63 594 QCURVE SMOOTH",
"89 575 OFFCURVE",
"103 528 QCURVE SMOOTH",
"175 289 LINE",
"177 281 OFFCURVE",
"177 278 QCURVE SMOOTH",
"177 273 OFFCURVE",
"173 257 OFFCURVE",
"173 256 QCURVE",
"72 256 LINE",
"66 252 OFFCURVE",
"55 225 OFFCURVE",
"55 216 QCURVE SMOOTH",
"55 206 OFFCURVE",
"60 206 QCURVE SMOOTH",
"164 206 LINE",
"155 158 LINE",
"55 158 LINE",
"49 154 OFFCURVE",
"38 127 OFFCURVE",
"38 118 QCURVE SMOOTH",
"38 108 OFFCURVE",
"43 108 QCURVE SMOOTH"
);
}
);
width = 593;
}
);
note = yen;
unicode = 00A5;
},
{
glyphname = brokenbar;
layers = (
{
layerId = "3968EB47-B6D1-4984-BCC6-AA3E1527005D";
paths = (
{
closed = 1;
nodes = (
"127 583 OFFCURVE",
"92 390 QCURVE",
"91 386 OFFCURVE",
"99 380 OFFCURVE",
"104 380 QCURVE SMOOTH",
"119 380 OFFCURVE",
"156 393 OFFCURVE",
"163 399 QCURVE",
"233 762 LINE",
"234 770 OFFCURVE",
"214 770 QCURVE SMOOTH",
"180 770 OFFCURVE",
"162 753 QCURVE"
);
},
{
closed = 1;
nodes = (
"-7 -115 LINE",
"-8 -119 OFFCURVE",
"1 -124 OFFCURVE",
"6 -124 QCURVE SMOOTH",
"21 -124 OFFCURVE",
"58 -112 OFFCURVE",
"65 -106 QCURVE",
"135 257 LINE",
"136 266 OFFCURVE",
"116 266 QCURVE SMOOTH",
"83 266 OFFCURVE",
"64 248 QCURVE"
);
}
);
width = 229;
}
);
note = brokenbar;
unicode = 00A6;
},
{
glyphname = section;
layers = (
{
layerId = "3968EB47-B6D1-4984-BCC6-AA3E1527005D";
paths = (
{
closed = 1;
nodes = (
"216 652 OFFCURVE",
"122 554 OFFCURVE",
"122 480 QCURVE SMOOTH",
"122 469 OFFCURVE",
"123 464 QCURVE",
"81 434 OFFCURVE",
"37 345 OFFCURVE",
"37 300 QCURVE SMOOTH",
"37 265 OFFCURVE",
"73 210 OFFCURVE",
"124 174 OFFCURVE",
"176 141 OFFCURVE",
"212 96 OFFCURVE",
"212 69 QCURVE SMOOTH",
"212 36 OFFCURVE",
"168 -5 OFFCURVE",
"141 -5 QCURVE SMOOTH",
"118 -5 OFFCURVE",
"82 50 OFFCURVE",
"67 50 QCURVE SMOOTH",
"48 50 OFFCURVE",
"26 7 OFFCURVE",
"24 -16 QCURVE",
"29 -30 OFFCURVE",
"69 -52 OFFCURVE",
"102 -52 QCURVE SMOOTH",
"176 -52 OFFCURVE",
"269 46 OFFCURVE",
"269 118 QCURVE SMOOTH",
"269 126 OFFCURVE",
"267 136 QCURVE",
"297 158 OFFCURVE",
"354 248 OFFCURVE",
"354 304 QCURVE SMOOTH",
"354 339 OFFCURVE",
"318 393 OFFCURVE",
"266 428 OFFCURVE",
"214 460 OFFCURVE",
"178 503 OFFCURVE",
"178 530 QCURVE SMOOTH",
"178 564 OFFCURVE",
"221 604 OFFCURVE",
"251 604 QCURVE SMOOTH",
"265 604 OFFCURVE",
"287 587 OFFCURVE",
"298 566 OFFCURVE",
"314 549 OFFCURVE",
"323 549 QCURVE SMOOTH",
"359 549 OFFCURVE",
"366 614 QCURVE",
"360 628 OFFCURVE",
"321 652 OFFCURVE",
"289 652 QCURVE SMOOTH"
);
},
{
closed = 1;
nodes = (
"101 400 OFFCURVE",
"133 426 QCURVE",
"143 397 OFFCURVE",
"198 349 OFFCURVE",
"249 319 OFFCURVE",
"290 270 OFFCURVE",
"290 240 QCURVE SMOOTH",
"290 196 OFFCURVE",
"259 172 QCURVE",
"248 202 OFFCURVE",
"194 251 OFFCURVE",
"142 278 OFFCURVE",
"101 326 OFFCURVE",
"101 357 QCURVE SMOOTH"
);
}
);
width = 386;
}
);
note = section;
unicode = 00A7;
},
{
glyphname = dieresis;
layers = (
{
layerId = "3968EB47-B6D1-4984-BCC6-AA3E1527005D";
paths = (
{
closed = 1;
nodes = (
"267 593 OFFCURVE",
"231 550 OFFCURVE",
"231 521 QCURVE SMOOTH",
"231 500 OFFCURVE",
"254 468 OFFCURVE",
"273 468 QCURVE SMOOTH",
"301 468 OFFCURVE",
"341 510 OFFCURVE",
"341 539 QCURVE SMOOTH",
"341 560 OFFCURVE",
"315 593 OFFCURVE",
"295 593 QCURVE SMOOTH"
);
},
{
closed = 1;
nodes = (
"77 593 OFFCURVE",
"41 550 OFFCURVE",
"41 521 QCURVE SMOOTH",
"41 500 OFFCURVE",
"64 468 OFFCURVE",
"83 468 QCURVE SMOOTH",
"111 468 OFFCURVE",
"151 510 OFFCURVE",
"151 539 QCURVE SMOOTH",
"151 560 OFFCURVE",
"125 593 OFFCURVE",
"105 593 QCURVE SMOOTH"
);
}
);
width = 367;
}
);
note = dieresis;
unicode = 00A8;
},
{
glyphname = copyright;
layers = (
{
layerId = "3968EB47-B6D1-4984-BCC6-AA3E1527005D";
paths = (
{
closed = 1;
nodes = (
"248 481 OFFCURVE",
"154 372 OFFCURVE",
"154 309 QCURVE SMOOTH",
"154 262 OFFCURVE",
"210 199 OFFCURVE",
"254 199 QCURVE SMOOTH",
"309 199 OFFCURVE",
"346 219 QCURVE SMOOTH",
"353 223 OFFCURVE",
"372 261 OFFCURVE",
"373 268 QCURVE",
"370 273 OFFCURVE",
"361 273 QCURVE SMOOTH",
"360 273 OFFCURVE",
"358 272 OFFCURVE",
"357 272 QCURVE",
"356 270 LINE",
"354 268 OFFCURVE",
"349 262 OFFCURVE",
"343 255 OFFCURVE",
"335 247 OFFCURVE",
"331 244 QCURVE",
"313 229 OFFCURVE",
"278 229 QCURVE SMOOTH",
"248 229 OFFCURVE",
"219 271 OFFCURVE",
"219 305 QCURVE SMOOTH",
"219 357 OFFCURVE",
"270 451 OFFCURVE",
"309 451 QCURVE SMOOTH",
"345 451 OFFCURVE",
"375 417 OFFCURVE",
"376 399 QCURVE",
"382 397 OFFCURVE",
"388 397 QCURVE SMOOTH",
"395 397 OFFCURVE",
"396 401 QCURVE",
"401 416 OFFCURVE",
"401 462 QCURVE SMOOTH",
"401 469 OFFCURVE",
"400 469 QCURVE",
"357 481 OFFCURVE",
"313 481 QCURVE SMOOTH"
);
},
{
closed = 1;
nodes = (
"405 569 OFFCURVE",
"501 467 OFFCURVE",
"501 388 QCURVE SMOOTH",
"501 281 OFFCURVE",
"340 113 OFFCURVE",
"240 113 QCURVE SMOOTH",
"164 113 OFFCURVE",
"68 216 OFFCURVE",
"68 295 QCURVE SMOOTH",
"68 402 OFFCURVE",
"229 569 OFFCURVE",
"329 569 QCURVE SMOOTH"
);
},
{
closed = 1;
nodes = (
"218 615 OFFCURVE",
"26 415 OFFCURVE",
"26 286 QCURVE SMOOTH",
"26 192 OFFCURVE",
"140 69 OFFCURVE",
"231 69 QCURVE SMOOTH",
"351 69 OFFCURVE",
"545 269 OFFCURVE",
"545 398 QCURVE SMOOTH",
"545 492 OFFCURVE",
"429 615 OFFCURVE",
"338 615 QCURVE SMOOTH"
);
}
);
width = 567;
}
);
note = copyright;
unicode = 00A9;
},
{
glyphname = ordfeminine;
layers = (
{
layerId = "3968EB47-B6D1-4984-BCC6-AA3E1527005D";
paths = (
{
closed = 1;
nodes = (
"168 555 OFFCURVE",
"27 393 OFFCURVE",
"27 320 QCURVE SMOOTH",
"27 248 OFFCURVE",
"93 248 QCURVE SMOOTH",
"120 248 OFFCURVE",
"180 299 OFFCURVE",
"197 324 QCURVE",
"199 326 LINE",
"199 324 LINE SMOOTH",
"199 323 OFFCURVE",
"198 310 OFFCURVE",
"198 300 OFFCURVE",
"198 293 QCURVE",
"204 249 OFFCURVE",
"241 249 QCURVE SMOOTH",
"270 249 OFFCURVE",
"319 304 OFFCURVE",
"328 326 QCURVE",
"327 332 OFFCURVE",
"317 343 OFFCURVE",
"314 343 QCURVE",
"298 321 LINE SMOOTH",
"283 299 OFFCURVE",
"275 299 QCURVE SMOOTH",
"260 299 OFFCURVE",
"260 320 QCURVE SMOOTH",
"260 327 OFFCURVE",
"263 342 QCURVE SMOOTH",
"301 543 LINE",
"296 547 OFFCURVE",
"252 555 OFFCURVE",
"232 555 QCURVE SMOOTH"
);
},
{
closed = 1;
nodes = (
"228 521 OFFCURVE",
"228 511 QCURVE SMOOTH",
"228 507 OFFCURVE",
"226 499 QCURVE",
"215 435 LINE SMOOTH",
"206 386 OFFCURVE",
"146 294 OFFCURVE",
"124 294 QCURVE SMOOTH",
"100 294 OFFCURVE",
"100 338 QCURVE SMOOTH",
"100 388 OFFCURVE",
"183 521 OFFCURVE",
"217 521 QCURVE SMOOTH"
);
}
);
width = 348;
}
);
note = ordfeminine;
unicode = 00AA;
},
{
glyphname = guillemotleft;
layers = (
{
layerId = "3968EB47-B6D1-4984-BCC6-AA3E1527005D";
paths = (
{
closed = 1;
nodes = (
"352 350 OFFCURVE",
"209 268 QCURVE",
"196 255 OFFCURVE",
"196 237 QCURVE SMOOTH",
"196 229 OFFCURVE",
"201 227 QCURVE",
"246 192 OFFCURVE",
"327 117 OFFCURVE",
"362 80 OFFCURVE",
"367 73 QCURVE",
"399 81 OFFCURVE",
"399 95 QCURVE SMOOTH",
"399 98 OFFCURVE",
"395 106 OFFCURVE",
"385 120 OFFCURVE",
"376 132 OFFCURVE",
"356 158 OFFCURVE",
"349 167 QCURVE",
"291 248 LINE",
"382 328 LINE SMOOTH",
"420 360 OFFCURVE",
"454 392 OFFCURVE",
"459 399 OFFCURVE",
"459 403 QCURVE SMOOTH",
"459 410 OFFCURVE",
"442 422 OFFCURVE",
"436 423 QCURVE"
);
},
{
closed = 1;
nodes = (
"256 418 OFFCURVE",
"204 378 OFFCURVE",
"91 301 OFFCURVE",
"33 268 QCURVE",
"20 255 OFFCURVE",
"20 237 QCURVE SMOOTH",
"20 230 OFFCURVE",
"25 227 QCURVE",
"70 192 OFFCURVE",
"151 117 OFFCURVE",
"186 80 OFFCURVE",
"191 73 QCURVE",
"223 84 OFFCURVE",
"223 96 QCURVE SMOOTH",
"223 99 OFFCURVE",
"219 107 OFFCURVE",
"210 120 OFFCURVE",
"200 133 OFFCURVE",
"181 157 OFFCURVE",
"173 167 QCURVE",
"115 248 LINE",
"206 328 LINE SMOOTH",
"244 360 OFFCURVE",
"278 392 OFFCURVE",
"283 399 OFFCURVE",
"283 403 QCURVE SMOOTH",
"283 408 OFFCURVE",
"269 421 OFFCURVE",
"261 423 QCURVE"
);
}
);
width = 470;
}
);
note = guillemotleft;
unicode = 00AB;
},
{
glyphname = logicalnot;
layers = (
{
layerId = "3968EB47-B6D1-4984-BCC6-AA3E1527005D";
paths = (
{
closed = 1;
nodes = (
"46 424 OFFCURVE",
"29 382 OFFCURVE",
"29 374 QCURVE",
"32 360 OFFCURVE",
"32 360 QCURVE",
"396 360 LINE SMOOTH",
"405 360 OFFCURVE",
"405 351 QCURVE",
"404 350 LINE",
"368 165 LINE",
"367 161 OFFCURVE",
"377 156 OFFCURVE",
"383 156 QCURVE SMOOTH",
"414 156 OFFCURVE",
"430 166 QCURVE",
"477 412 LINE SMOOTH",
"479 424 OFFCURVE",
"468 424 QCURVE SMOOTH",
"52 424 OFFCURVE",
"52 424 QCURVE SMOOTH"
);
}
);
width = 510;
}
);
note = logicalnot;
unicode = 00AC;
},
{
glyphname = registered;
layers = (
{
layerId = "3968EB47-B6D1-4984-BCC6-AA3E1527005D";
paths = (
{
closed = 1;
nodes = (
"411 636 OFFCURVE",
"507 534 OFFCURVE",
"507 455 QCURVE SMOOTH",
"507 348 OFFCURVE",
"346 180 OFFCURVE",
"246 180 QCURVE SMOOTH",
"170 180 OFFCURVE",
"74 283 OFFCURVE",
"74 362 QCURVE SMOOTH",
"74 469 OFFCURVE",
"235 636 OFFCURVE",
"335 636 QCURVE SMOOTH"
);
},
{
closed = 1;
nodes = (
"224 682 OFFCURVE",
"32 482 OFFCURVE",
"32 353 QCURVE SMOOTH",
"32 259 OFFCURVE",
"146 136 OFFCURVE",
"237 136 QCURVE SMOOTH",
"357 136 OFFCURVE",
"551 336 OFFCURVE",
"551 465 QCURVE SMOOTH",
"551 559 OFFCURVE",
"435 682 OFFCURVE",
"344 682 QCURVE SMOOTH"
);
},
{
closed = 1;
nodes = (
"336 530 OFFCURVE",
"336 493 QCURVE SMOOTH",
"336 468 OFFCURVE",
"310 427 OFFCURVE",
"288 427 QCURVE SMOOTH",
"262 427 OFFCURVE",
"262 436 QCURVE SMOOTH",
"262 440 OFFCURVE",
"263 442 QCURVE",
"278 519 LINE",
"280 527 OFFCURVE",
"285 528 QCURVE",
"290 530 OFFCURVE",
"303 530 QCURVE SMOOTH"
);
},
{
closed = 1;
nodes = (
"302 554 OFFCURVE",
"264 552 OFFCURVE",
"252 552 QCURVE SMOOTH",
"234 552 OFFCURVE",
"200 554 QCURVE",
"198 550 OFFCURVE",
"198 544 QCURVE SMOOTH",
"198 540 OFFCURVE",
"199 540 QCURVE SMOOTH",
"205 540 OFFCURVE",
"221 533 OFFCURVE",
"221 528 QCURVE SMOOTH",
"221 520 OFFCURVE",
"216 498 QCURVE",
"185 331 LINE SMOOTH",
"181 309 OFFCURVE",
"175 298 QCURVE",
"169 290 OFFCURVE",
"148 286 QCURVE",
"146 284 OFFCURVE",
"146 280 QCURVE SMOOTH",
"146 272 LINE",
"153 272 OFFCURVE",
"193 276 OFFCURVE",
"215 276 OFFCURVE",
"251 272 OFFCURVE",
"256 272 QCURVE",
"259 278 OFFCURVE",
"259 284 QCURVE SMOOTH",
"259 286 OFFCURVE",
"258 286 QCURVE SMOOTH",
"249 286 OFFCURVE",
"240 294 QCURVE",
"237 296 OFFCURVE",
"237 302 QCURVE SMOOTH",
"237 311 OFFCURVE",
"238 314 QCURVE",
"254 396 LINE",
"255 403 OFFCURVE",
"263 403 QCURVE SMOOTH",
"274 403 OFFCURVE",
"276 396 QCURVE",
"279 390 OFFCURVE",
"293 352 OFFCURVE",
"300 337 QCURVE SMOOTH",
"316 303 OFFCURVE",
"352 272 OFFCURVE",
"392 272 QCURVE SMOOTH",
"404 272 OFFCURVE",
"407 274 QCURVE",
"410 280 OFFCURVE",
"410 287 QCURVE",
"385 287 OFFCURVE",
"359 337 QCURVE SMOOTH",
"338 375 OFFCURVE",
"330 405 QCURVE",
"330 407 LINE SMOOTH",
"330 408 OFFCURVE",
"332 410 QCURVE",
"358 422 OFFCURVE",
"392 468 OFFCURVE",
"392 495 QCURVE SMOOTH",
"392 525 OFFCURVE",
"345 554 OFFCURVE",
"315 554 QCURVE SMOOTH"
);
}
);
width = 566;
}
);
note = registered;
unicode = 00AE;
},
{
glyphname = macron;
layers = (
{
layerId = "3968EB47-B6D1-4984-BCC6-AA3E1527005D";
paths = (
{
closed = 1;
nodes = (
"61 591 OFFCURVE",
"48 562 OFFCURVE",
"48 553 QCURVE SMOOTH",
"48 534 OFFCURVE",
"55 534 QCURVE SMOOTH",
"269 534 LINE",
"277 539 OFFCURVE",
"290 575 OFFCURVE",
"290 582 QCURVE SMOOTH",
"290 597 OFFCURVE",
"284 597 QCURVE SMOOTH",
"68 597 LINE"
);
}
);
width = 321;
}
);
note = macron;
unicode = 00AF;
},
{
glyphname = degree;
layers = (
{
layerId = "3968EB47-B6D1-4984-BCC6-AA3E1527005D";
paths = (
{
closed = 1;
nodes = (
"165 594 OFFCURVE",
"187 568 OFFCURVE",
"187 548 QCURVE SMOOTH",
"187 521 OFFCURVE",
"149 478 OFFCURVE",
"123 478 QCURVE SMOOTH",
"103 478 OFFCURVE",
"80 504 OFFCURVE",
"80 524 QCURVE SMOOTH",
"80 551 OFFCURVE",
"118 594 OFFCURVE",
"145 594 QCURVE SMOOTH"
);
},
{
closed = 1;
nodes = (
"112 634 OFFCURVE",
"40 564 OFFCURVE",
"40 517 QCURVE SMOOTH",
"40 483 OFFCURVE",
"82 437 OFFCURVE",
"115 437 QCURVE SMOOTH",
"157 437 OFFCURVE",
"227 509 OFFCURVE",
"227 555 QCURVE SMOOTH",
"227 589 OFFCURVE",
"186 634 OFFCURVE",
"153 634 QCURVE SMOOTH"
);
}
);
width = 249;
}
);
note = degree;
unicode = 00B0;
},
{
glyphname = plusminus;
layers = (
{
layerId = "3968EB47-B6D1-4984-BCC6-AA3E1527005D";
paths = (
{
closed = 1;
nodes = (
"-5 74 OFFCURVE",
"-5 51 QCURVE SMOOTH",
"-5 38 OFFCURVE",
"-1 38 QCURVE SMOOTH",
"427 38 LINE",
"450 63 OFFCURVE",
"450 88 QCURVE SMOOTH",
"450 102 OFFCURVE",
"446 102 QCURVE SMOOTH",
"19 102 OFFCURVE",
"19 102 QCURVE"
);
},
{
closed = 1;
nodes = (
"53 376 OFFCURVE",
"53 354 QCURVE SMOOTH",
"53 340 OFFCURVE",
"58 340 QCURVE SMOOTH",
"233 340 LINE SMOOTH",
"237 340 OFFCURVE",
"237 336 QCURVE",
"201 144 LINE",
"200 141 OFFCURVE",
"208 134 OFFCURVE",
"216 134 QCURVE SMOOTH",
"232 134 OFFCURVE",
"273 145 OFFCURVE",
"274 152 QCURVE",
"309 336 LINE",
"309 340 OFFCURVE",
"313 340 QCURVE SMOOTH",
"485 340 LINE",
"509 366 OFFCURVE",
"509 391 QCURVE SMOOTH",
"509 404 OFFCURVE",
"505 404 QCURVE SMOOTH",
"328 404 LINE SMOOTH",
"323 404 OFFCURVE",
"325 410 QCURVE",
"337 472 OFFCURVE",
"360 602 QCURVE",
"361 605 OFFCURVE",
"356 610 OFFCURVE",
"350 610 QCURVE SMOOTH",
"338 610 OFFCURVE",
"288 601 OFFCURVE",
"286 592 QCURVE SMOOTH",
"279 556 OFFCURVE",
"259 437 OFFCURVE",
"253 408 QCURVE",
"253 404 OFFCURVE",
"249 404 QCURVE SMOOTH",
"77 404 OFFCURVE",
"77 404 QCURVE"
);
},
{
closed = 1;
nodes = (
"446 102 OFFCURVE",
"446 102 QCURVE",
"450 102 OFFCURVE",
"450 88 QCURVE SMOOTH",
"450 63 OFFCURVE",
"427 38 QCURVE",
"-1 38 LINE SMOOTH",
"-5 38 OFFCURVE",
"-5 51 QCURVE SMOOTH",
"-5 74 OFFCURVE",
"19 102 QCURVE"
);
},
{
closed = 1;
nodes = (
"249 404 LINE SMOOTH",
"253 404 OFFCURVE",
"253 408 QCURVE",
"259 437 OFFCURVE",
"279 556 OFFCURVE",
"286 592 QCURVE SMOOTH",
"288 601 OFFCURVE",
"338 610 OFFCURVE",
"350 610 QCURVE SMOOTH",
"356 610 OFFCURVE",
"361 605 OFFCURVE",
"360 602 QCURVE",
"325 410 OFFCURVE",
"325 410 QCURVE",
"323 404 OFFCURVE",
"328 404 QCURVE SMOOTH",
"505 404 LINE SMOOTH",
"509 404 OFFCURVE",
"509 391 QCURVE SMOOTH",
"509 366 OFFCURVE",
"485 340 QCURVE",
"313 340 LINE SMOOTH",
"309 340 OFFCURVE",
"309 336 QCURVE",
"296 264 OFFCURVE",
"274 152 QCURVE",
"273 145 OFFCURVE",
"232 134 OFFCURVE",
"216 134 QCURVE SMOOTH",
"208 134 OFFCURVE",
"200 141 OFFCURVE",
"201 144 QCURVE",
"237 336 OFFCURVE",
"237 336 QCURVE",
"237 340 OFFCURVE",
"233 340 QCURVE SMOOTH",
"58 340 OFFCURVE",
"58 340 QCURVE SMOOTH",
"53 340 OFFCURVE",
"53 354 QCURVE SMOOTH",
"53 376 OFFCURVE",
"77 404 QCURVE"
);
}
);
width = 508;
}
);
note = plusminus;
unicode = 00B1;
},
{
glyphname = uni00B2;
layers = (
{
layerId = "3968EB47-B6D1-4984-BCC6-AA3E1527005D";
paths = (
{
closed = 1;
nodes = (
"174 646 OFFCURVE",
"96 597 OFFCURVE",
"85 579 QCURVE SMOOTH",
"82 574 OFFCURVE",
"82 567 QCURVE SMOOTH",
"82 562 OFFCURVE",
"90 546 OFFCURVE",
"94 546 OFFCURVE",
"122 568 OFFCURVE",
"161 590 OFFCURVE",
"175 590 QCURVE SMOOTH",
"196 590 OFFCURVE",
"216 562 OFFCURVE",
"216 542 QCURVE SMOOTH",
"216 472 OFFCURVE",
"17 288 QCURVE",
"13 278 OFFCURVE",
"13 274 QCURVE SMOOTH",
"13 260 OFFCURVE",
"19 254 QCURVE",
"140 254 LINE",
"243 254 LINE",
"269 323 OFFCURVE",
"286 353 QCURVE",
"281 358 OFFCURVE",
"270 358 QCURVE SMOOTH",
"266 358 OFFCURVE",
"253 336 OFFCURVE",
"229 314 OFFCURVE",
"211 314 QCURVE SMOOTH",
"95 314 LINE SMOOTH",
"94 314 OFFCURVE",
"94 315 QCURVE SMOOTH",
"94 317 OFFCURVE",
"95 318 QCURVE SMOOTH",
"97 320 OFFCURVE",
"175 378 OFFCURVE",
"237 433 OFFCURVE",
"295 522 OFFCURVE",
"295 562 QCURVE SMOOTH",
"295 599 OFFCURVE",
"251 646 OFFCURVE",
"213 646 QCURVE SMOOTH"
);
}
);
width = 316;
}
);
note = uni00B2;
unicode = 00B2;
},
{
glyphname = uni00B3;
layers = (
{
layerId = "3968EB47-B6D1-4984-BCC6-AA3E1527005D";
paths = (
{
closed = 1;
nodes = (
"90 282 OFFCURVE",
"62 316 OFFCURVE",
"50 316 QCURVE SMOOTH",
"35 316 OFFCURVE",
"11 288 OFFCURVE",
"11 273 QCURVE",
"12 262 OFFCURVE",
"58 246 OFFCURVE",
"80 246 QCURVE SMOOTH",
"160 246 OFFCURVE",
"271 343 OFFCURVE",
"271 401 QCURVE SMOOTH",
"271 437 OFFCURVE",
"217 478 OFFCURVE",
"194 478 QCURVE",
"226 495 OFFCURVE",
"278 552 OFFCURVE",
"278 586 QCURVE SMOOTH",
"278 615 OFFCURVE",
"237 646 OFFCURVE",
"214 646 QCURVE SMOOTH",
"180 646 OFFCURVE",
"111 611 OFFCURVE",
"90 586 QCURVE",
"87 583 OFFCURVE",
"95 559 OFFCURVE",
"100 559 QCURVE SMOOTH",
"102 559 OFFCURVE",
"151 596 OFFCURVE",
"172 596 QCURVE SMOOTH",
"185 596 OFFCURVE",
"205 578 OFFCURVE",
"205 563 QCURVE SMOOTH",
"205 554 OFFCURVE",
"198 532 OFFCURVE",
"181 501 OFFCURVE",
"139 475 OFFCURVE",
"110 469 QCURVE",
"102 465 OFFCURVE",
"102 454 QCURVE SMOOTH",
"102 447 OFFCURVE",
"106 439 QCURVE",
"128 442 OFFCURVE",
"141 442 QCURVE SMOOTH",
"196 442 OFFCURVE",
"196 391 QCURVE SMOOTH",
"196 352 OFFCURVE",
"146 282 OFFCURVE",
"106 282 QCURVE SMOOTH"
);
}
);
width = 294;
}
);
note = uni00B3;
unicode = 00B3;
},
{
glyphname = acute;
layers = (
{
layerId = "3968EB47-B6D1-4984-BCC6-AA3E1527005D";
paths = (
{
closed = 1;
nodes = (
"160 686 OFFCURVE",
"147 674 QCURVE SMOOTH",
"128 656 OFFCURVE",
"41 547 OFFCURVE",
"41 541 QCURVE SMOOTH",
"41 537 OFFCURVE",
"48 524 OFFCURVE",
"52 524 QCURVE SMOOTH",
"64 524 OFFCURVE",
"223 641 OFFCURVE",
"223 664 QCURVE SMOOTH",
"223 686 OFFCURVE",
"188 686 QCURVE SMOOTH"
);
}
);
width = 239;
}
);
note = acute;
unicode = 00B4;
},
{
glyphname = paragraph;
layers = (
{
layerId = "3968EB47-B6D1-4984-BCC6-AA3E1527005D";
paths = (
{
closed = 1;
nodes = (
"176 277 OFFCURVE",
"197 284 OFFCURVE",
"201 284 QCURVE",
"213 286 OFFCURVE",
"215 284 QCURVE",
"199 187 OFFCURVE",
"191 160 QCURVE",
"175 76 OFFCURVE",
"159 47 QCURVE",
"148 38 OFFCURVE",
"141 45 QCURVE",
"138 45 OFFCURVE",
"132 50 OFFCURVE",
"133 53 QCURVE",
"175 274 LINE"
);
},
{
closed = 1;
nodes = (
"143 652 OFFCURVE",
"62 544 OFFCURVE",
"25 411 OFFCURVE",
"41 376 QCURVE",
"38 333 OFFCURVE",
"76 275 OFFCURVE",
"115 274 QCURVE",
"118 272 OFFCURVE",
"104 164 OFFCURVE",
"98 150 QCURVE SMOOTH",
"96 145 OFFCURVE",
"64 103 OFFCURVE",
"61 103 QCURVE",
"58 91 OFFCURVE",
"49 55 OFFCURVE",
"43 29 OFFCURVE",
"41 24 QCURVE",
"40 20 OFFCURVE",
"19 12 OFFCURVE",
"15 12 QCURVE",
"24 13 OFFCURVE",
"57 0 OFFCURVE",
"67 -1 QCURVE",
"132 0 OFFCURVE",
"199 -1 QCURVE",
"216 0 OFFCURVE",
"262 6 OFFCURVE",
"276 7 QCURVE",
"279 13 OFFCURVE",
"279 20 QCURVE SMOOTH",
"279 21 OFFCURVE",
"251 33 OFFCURVE",
"250 38 QCURVE SMOOTH",
"246 56 OFFCURVE",
"247 157 OFFCURVE",
"249 178 QCURVE",
"249 187 OFFCURVE",
"268 286 OFFCURVE",
"272 300 QCURVE",
"272 301 OFFCURVE",
"286 305 OFFCURVE",
"287 305 QCURVE",
"306 311 OFFCURVE",
"312 325 QCURVE",
"323 333 OFFCURVE",
"323 344 QCURVE SMOOTH",
"323 345 OFFCURVE",
"303 348 OFFCURVE",
"303 349 QCURVE",
"281 344 LINE",
"279 344 OFFCURVE",
"279 348 QCURVE SMOOTH",
"279 349 OFFCURVE",
"290 408 OFFCURVE",
"302 472 OFFCURVE",
"316 539 OFFCURVE",
"319 552 QCURVE SMOOTH",
"324 573 OFFCURVE",
"352 609 OFFCURVE",
"360 614 QCURVE",
"363 617 OFFCURVE",
"375 625 OFFCURVE",
"389 633 OFFCURVE",
"391 634 QCURVE",
"393 636 OFFCURVE",
"396 652 OFFCURVE",
"395 654 QCURVE",
"382 652 LINE",
"368 651 OFFCURVE",
"313 648 OFFCURVE",
"285 648 QCURVE SMOOTH",
"258 648 OFFCURVE",
"210 652 OFFCURVE",
"183 652 QCURVE SMOOTH"
);
},
{
closed = 1;
nodes = (
"241 608 OFFCURVE",
"260 608 QCURVE SMOOTH",
"266 608 OFFCURVE",
"276 601 OFFCURVE",
"276 598 QCURVE",
"273 569 OFFCURVE",
"229 342 QCURVE SMOOTH",
"228 337 OFFCURVE",
"222 335 QCURVE",
"214 330 OFFCURVE",
"193 330 QCURVE SMOOTH",
"186 330 OFFCURVE",
"186 334 QCURVE",
"189 350 OFFCURVE",
"202 414 OFFCURVE",
"216 485 OFFCURVE",
"229 550 OFFCURVE",
"234 573 QCURVE SMOOTH",
"239 596 LINE"
);
}
);
width = 389;
}
);
note = paragraph;
unicode = 00B6;
},
{
glyphname = periodcentered;
layers = (
{
layerId = "3968EB47-B6D1-4984-BCC6-AA3E1527005D";
paths = (
{
closed = 1;
nodes = (
"31 228 OFFCURVE",
"59 196 OFFCURVE",
"81 196 QCURVE SMOOTH",
"109 196 OFFCURVE",
"156 247 OFFCURVE",
"156 278 QCURVE SMOOTH",
"156 300 OFFCURVE",
"128 330 OFFCURVE",
"107 330 QCURVE SMOOTH",
"78 330 OFFCURVE",
"31 282 OFFCURVE",
"31 251 QCURVE SMOOTH"
);
}
);
width = 197;
}
);
note = periodcentered;
unicode = 00B7;
},
{
glyphname = cedilla;
layers = (
{
layerId = "3968EB47-B6D1-4984-BCC6-AA3E1527005D";
paths = (
{
closed = 1;
nodes = (
"117 -14 OFFCURVE",
"86 -56 OFFCURVE",
"83 -62 QCURVE",
"82 -65 OFFCURVE",
"90 -77 OFFCURVE",
"92 -77 QCURVE",
"111 -70 OFFCURVE",
"122 -70 QCURVE SMOOTH",
"132 -70 OFFCURVE",
"145 -84 OFFCURVE",
"145 -95 QCURVE SMOOTH",
"145 -112 OFFCURVE",
"117 -137 OFFCURVE",
"95 -137 QCURVE SMOOTH",
"85 -137 OFFCURVE",
"60 -120 OFFCURVE",
"53 -120 QCURVE SMOOTH",
"47 -120 OFFCURVE",
"35 -132 OFFCURVE",
"35 -142 QCURVE SMOOTH",
"35 -153 OFFCURVE",
"37 -159 QCURVE",
"50 -168 OFFCURVE",
"78 -168 QCURVE SMOOTH",
"134 -168 OFFCURVE",
"194 -104 OFFCURVE",
"194 -73 QCURVE SMOOTH",
"194 -54 OFFCURVE",
"171 -29 OFFCURVE",
"153 -29 QCURVE SMOOTH",
"149 -29 OFFCURVE",
"131 -30 QCURVE",
"152 -3 LINE",
"125 -3 LINE"
);
}
);
width = 245;
}
);
note = cedilla;
unicode = 00B8;
},
{
glyphname = uni00B9;
layers = (
{
layerId = "3968EB47-B6D1-4984-BCC6-AA3E1527005D";
paths = (
{
closed = 1;
nodes = (
"52 571 OFFCURVE",
"52 562 QCURVE SMOOTH",
"52 557 OFFCURVE",
"58 546 OFFCURVE",
"61 545 QCURVE",
"113 564 OFFCURVE",
"119 564 QCURVE SMOOTH",
"129 564 OFFCURVE",
"129 552 QCURVE SMOOTH",
"129 549 OFFCURVE",
"125 521 QCURVE",
"89 335 LINE SMOOTH",
"84 309 OFFCURVE",
"73 294 QCURVE",
"69 289 OFFCURVE",
"30 279 OFFCURVE",
"21 279 QCURVE SMOOTH",
"19 279 OFFCURVE",
"14 263 OFFCURVE",
"14 257 QCURVE SMOOTH",
"14 253 OFFCURVE",
"15 252 QCURVE",
"23 252 OFFCURVE",
"98 256 OFFCURVE",
"132 256 OFFCURVE",
"197 252 OFFCURVE",
"207 252 QCURVE",
"213 258 OFFCURVE",
"213 274 QCURVE SMOOTH",
"213 280 OFFCURVE",
"211 280 QCURVE SMOOTH",
"204 280 OFFCURVE",
"172 289 OFFCURVE",
"168 294 QCURVE",
"163 301 OFFCURVE",
"163 311 QCURVE SMOOTH",
"163 316 OFFCURVE",
"167 336 QCURVE SMOOTH",
"207 546 LINE SMOOTH",
"209 556 OFFCURVE",
"233 628 QCURVE",
"233 632 OFFCURVE",
"227 650 OFFCURVE",
"224 650 QCURVE SMOOTH",
"223 650 OFFCURVE",
"56 573 QCURVE SMOOTH"
);
}
);
width = 252;
}
);
note = uni00B9;
unicode = 00B9;
},
{
glyphname = ordmasculine;
layers = (
{
layerId = "3968EB47-B6D1-4984-BCC6-AA3E1527005D";
paths = (
{
closed = 1;
nodes = (
"225 520 OFFCURVE",
"225 437 QCURVE SMOOTH",
"225 383 OFFCURVE",
"168 283 OFFCURVE",
"142 283 QCURVE SMOOTH",
"102 283 OFFCURVE",
"102 367 QCURVE SMOOTH",
"102 423 OFFCURVE",
"159 520 OFFCURVE",
"186 520 QCURVE SMOOTH"
);
},
{
closed = 1;
nodes = (
"136 555 OFFCURVE",
"29 436 OFFCURVE",
"29 362 QCURVE SMOOTH",
"29 317 OFFCURVE",
"86 248 OFFCURVE",
"128 248 QCURVE SMOOTH",
"200 248 OFFCURVE",
"299 366 OFFCURVE",
"299 443 QCURVE SMOOTH",
"299 487 OFFCURVE",
"241 555 OFFCURVE",
"200 555 QCURVE SMOOTH"
);
}
);
width = 314;
}
);
note = ordmasculine;
unicode = 00BA;
},
{
glyphname = guillemotright;
layers = (
{
layerId = "3968EB47-B6D1-4984-BCC6-AA3E1527005D";
paths = (
{
closed = 1;
nodes = (
"67 411 OFFCURVE",
"67 399 QCURVE SMOOTH",
"67 391 OFFCURVE",
"115 329 QCURVE SMOOTH",
"175 248 LINE",
"85 167 LINE SMOOTH",
"30 119 OFFCURVE",
"8 98 OFFCURVE",
"8 86 OFFCURVE",
"25 74 OFFCURVE",
"31 73 QCURVE",
"31 74 OFFCURVE",
"79 112 OFFCURVE",
"191 189 OFFCURVE",
"257 228 QCURVE",
"269 233 OFFCURVE",
"269 254 QCURVE SMOOTH",
"269 260 OFFCURVE",
"265 268 QCURVE",
"209 310 OFFCURVE",
"110 407 OFFCURVE",
"98 423 QCURVE"
);
},
{
closed = 1;
nodes = (
"243 415 OFFCURVE",
"243 399 QCURVE SMOOTH",
"243 391 OFFCURVE",
"292 329 QCURVE",
"351 248 LINE",
"261 167 LINE SMOOTH",
"206 119 OFFCURVE",
"184 98 OFFCURVE",
"184 86 OFFCURVE",
"201 74 OFFCURVE",
"207 73 QCURVE",
"207 74 OFFCURVE",
"257 113 OFFCURVE",
"369 190 OFFCURVE",
"432 228 QCURVE",
"445 233 OFFCURVE",
"445 255 QCURVE SMOOTH",
"445 263 OFFCURVE",
"441 268 QCURVE",
"402 297 OFFCURVE",
"322 371 OFFCURVE",
"280 415 OFFCURVE",
"274 423 QCURVE"
);
}
);
width = 470;
}
);
note = guillemotright;
unicode = 00BB;
},
{
glyphname = onequarter;
layers = (
{
layerId = "3968EB47-B6D1-4984-BCC6-AA3E1527005D";
paths = (
{
closed = 1;
nodes = (
"43 570 OFFCURVE",
"43 562 QCURVE SMOOTH",
"43 558 OFFCURVE",
"50 546 OFFCURVE",
"53 545 QCURVE",
"105 564 OFFCURVE",
"111 564 QCURVE SMOOTH",
"120 564 OFFCURVE",
"120 552 QCURVE SMOOTH",
"120 549 OFFCURVE",
"116 521 QCURVE",
"80 335 LINE SMOOTH",
"75 309 OFFCURVE",
"64 294 QCURVE",
"60 289 OFFCURVE",
"21 279 OFFCURVE",
"12 279 QCURVE SMOOTH",
"6 279 OFFCURVE",
"6 257 QCURVE SMOOTH",
"6 252 LINE",
"14 252 OFFCURVE",
"88 256 OFFCURVE",
"106 256 QCURVE SMOOTH",
"123 256 OFFCURVE",
"190 252 OFFCURVE",
"199 252 QCURVE",
"205 258 OFFCURVE",
"205 274 QCURVE SMOOTH",
"205 280 OFFCURVE",
"202 280 QCURVE SMOOTH",
"195 280 OFFCURVE",
"163 289 OFFCURVE",
"155 299 OFFCURVE",
"155 311 QCURVE SMOOTH",
"155 321 OFFCURVE",
"158 336 QCURVE SMOOTH",
"198 546 LINE",
"201 559 OFFCURVE",
"210 589 OFFCURVE",
"218 609 OFFCURVE",
"225 627 OFFCURVE",
"225 628 QCURVE SMOOTH",
"225 632 OFFCURVE",
"219 650 OFFCURVE",
"216 650 QCURVE SMOOTH",
"215 650 OFFCURVE",
"48 573 QCURVE"
);
},
{
closed = 1;
nodes = (
"572 618 OFFCURVE",
"572 623 QCURVE SMOOTH",
"572 630 OFFCURVE",
"542 644 OFFCURVE",
"538 643 QCURVE",
"93 11 LINE",
"91 9 OFFCURVE",
"91 5 QCURVE SMOOTH",
"91 -2 OFFCURVE",
"120 -14 OFFCURVE",
"126 -14 QCURVE",
"571 617 LINE"
);
},
{
closed = 1;
nodes = (
"298 132 LINE",
"297 115 OFFCURVE",
"304 108 QCURVE",
"446 108 LINE SMOOTH",
"450 108 OFFCURVE",
"450 105 QCURVE",
"449 104 LINE",
"430 4 LINE",
"430 3 OFFCURVE",
"433 1 OFFCURVE",
"439 -1 OFFCURVE",
"448 -3 OFFCURVE",
"461 -4 OFFCURVE",
"468 -4 QCURVE SMOOTH",
"493 -4 OFFCURVE",
"503 1 QCURVE",
"524 102 LINE",
"526 108 OFFCURVE",
"528 108 QCURVE SMOOTH",
"556 108 LINE",
"567 117 OFFCURVE",
"567 145 QCURVE SMOOTH",
"567 158 OFFCURVE",
"560 158 QCURVE SMOOTH",
"538 158 LINE SMOOTH",
"534 158 OFFCURVE",
"534 160 QCURVE SMOOTH",
"534 161 LINE",
"580 390 LINE",
"581 397 OFFCURVE",
"560 397 QCURVE SMOOTH",
"551 397 OFFCURVE",
"543 389 QCURVE SMOOTH"
);
},
{
closed = 1;
nodes = (
"369 158 OFFCURVE",
"369 162 QCURVE SMOOTH",
"369 164 OFFCURVE",
"370 165 QCURVE SMOOTH",
"480 281 LINE",
"482 282 LINE",
"484 282 OFFCURVE",
"484 276 QCURVE",
"460 162 LINE",
"459 158 OFFCURVE",
"454 158 QCURVE SMOOTH",
"372 158 LINE SMOOTH"
);
}
);
width = 603;
}
);
note = onequarter;
unicode = 00BC;
},
{
glyphname = onehalf;
layers = (
{
layerId = "3968EB47-B6D1-4984-BCC6-AA3E1527005D";
paths = (
{
closed = 1;
nodes = (
"426 322 OFFCURVE",
"426 314 QCURVE SMOOTH",
"426 309 OFFCURVE",
"434 292 OFFCURVE",
"438 292 OFFCURVE",
"466 314 OFFCURVE",
"504 337 OFFCURVE",
"518 337 QCURVE SMOOTH",
"539 337 OFFCURVE",
"560 308 OFFCURVE",
"560 288 QCURVE SMOOTH",
"560 219 OFFCURVE",
"360 34 QCURVE",
"356 24 OFFCURVE",
"356 21 QCURVE SMOOTH",
"356 7 OFFCURVE",
"363 0 QCURVE",
"365 0 OFFCURVE",
"483 1 QCURVE SMOOTH",
"587 0 LINE",
"614 72 OFFCURVE",
"630 100 QCURVE",
"627 104 OFFCURVE",
"613 104 QCURVE SMOOTH",
"609 104 OFFCURVE",
"597 82 OFFCURVE",
"573 59 OFFCURVE",
"555 59 QCURVE SMOOTH",
"439 59 LINE SMOOTH",
"437 59 OFFCURVE",
"437 63 OFFCURVE",
"441 67 OFFCURVE",
"519 125 OFFCURVE",
"581 180 OFFCURVE",
"639 269 OFFCURVE",
"639 309 QCURVE SMOOTH",
"639 346 OFFCURVE",
"594 393 OFFCURVE",
"518 393 OFFCURVE",
"440 345 OFFCURVE",
"429 326 QCURVE"
);
},
{
closed = 1;
nodes = (
"43 570 OFFCURVE",
"43 562 QCURVE SMOOTH",
"43 558 OFFCURVE",
"50 546 OFFCURVE",
"53 545 QCURVE",
"105 564 OFFCURVE",
"111 564 QCURVE SMOOTH",
"120 564 OFFCURVE",
"120 552 QCURVE SMOOTH",
"120 549 OFFCURVE",
"116 521 QCURVE",
"80 335 LINE SMOOTH",
"75 309 OFFCURVE",
"64 294 QCURVE",
"60 289 OFFCURVE",
"21 279 OFFCURVE",
"12 279 QCURVE SMOOTH",
"6 279 OFFCURVE",
"6 257 QCURVE SMOOTH",
"6 252 LINE",
"14 252 OFFCURVE",
"88 256 OFFCURVE",
"106 256 QCURVE SMOOTH",
"123 256 OFFCURVE",
"190 252 OFFCURVE",
"199 252 QCURVE",
"205 258 OFFCURVE",
"205 274 QCURVE SMOOTH",
"205 280 OFFCURVE",
"202 280 QCURVE SMOOTH",
"195 280 OFFCURVE",
"163 289 OFFCURVE",
"155 299 OFFCURVE",
"155 311 QCURVE SMOOTH",
"155 321 OFFCURVE",
"158 336 QCURVE SMOOTH",
"198 546 LINE",
"201 559 OFFCURVE",
"210 589 OFFCURVE",
"218 609 OFFCURVE",
"225 627 OFFCURVE",
"225 628 QCURVE SMOOTH",
"225 632 OFFCURVE",
"219 650 OFFCURVE",
"216 650 QCURVE SMOOTH",
"215 650 OFFCURVE",
"48 573 QCURVE"
);
},
{
closed = 1;
nodes = (
"572 618 OFFCURVE",
"572 623 QCURVE SMOOTH",
"572 630 OFFCURVE",
"542 644 OFFCURVE",
"538 643 QCURVE",
"93 11 LINE",
"91 9 OFFCURVE",
"91 5 QCURVE SMOOTH",
"91 -2 OFFCURVE",
"120 -14 OFFCURVE",
"126 -14 QCURVE",
"571 617 LINE"
);
}
);
width = 662;
}
);
note = onehalf;
unicode = 00BD;
},
{
glyphname = threequarters;
layers = (
{
layerId = "3968EB47-B6D1-4984-BCC6-AA3E1527005D";
paths = (
{
closed = 1;
nodes = (
"84 282 OFFCURVE",
"56 316 OFFCURVE",
"43 316 QCURVE SMOOTH",
"28 316 OFFCURVE",
"5 288 OFFCURVE",
"5 273 QCURVE",
"6 262 OFFCURVE",
"52 246 OFFCURVE",
"74 246 QCURVE SMOOTH",
"154 246 OFFCURVE",
"265 343 OFFCURVE",
"265 401 QCURVE SMOOTH",
"265 437 OFFCURVE",
"211 478 OFFCURVE",
"188 478 QCURVE",
"220 495 OFFCURVE",
"272 552 OFFCURVE",
"272 586 QCURVE SMOOTH",
"272 615 OFFCURVE",
"231 646 OFFCURVE",
"208 646 QCURVE SMOOTH",
"174 646 OFFCURVE",
"105 611 OFFCURVE",
"84 586 QCURVE",
"82 583 OFFCURVE",
"89 559 OFFCURVE",
"94 559 QCURVE SMOOTH",
"96 559 OFFCURVE",
"145 596 OFFCURVE",
"166 596 QCURVE SMOOTH",
"179 596 OFFCURVE",
"199 578 OFFCURVE",
"199 563 QCURVE SMOOTH",
"199 554 OFFCURVE",
"192 532 OFFCURVE",
"175 501 OFFCURVE",
"133 475 OFFCURVE",
"104 469 QCURVE",
"96 465 OFFCURVE",
"96 454 QCURVE SMOOTH",
"96 447 OFFCURVE",
"100 439 QCURVE",
"122 442 OFFCURVE",
"135 442 QCURVE SMOOTH",
"190 442 OFFCURVE",
"190 391 QCURVE SMOOTH",
"190 352 OFFCURVE",
"140 282 OFFCURVE",
"100 282 QCURVE SMOOTH"
);
},
{
closed = 1;
nodes = (
"587 618 OFFCURVE",
"587 623 QCURVE SMOOTH",
"587 630 OFFCURVE",
"557 644 OFFCURVE",
"553 643 QCURVE",
"108 11 LINE",
"106 9 OFFCURVE",
"106 5 QCURVE SMOOTH",
"106 -2 OFFCURVE",
"135 -14 OFFCURVE",
"141 -14 QCURVE",
"586 617 LINE"
);
},
{
closed = 1;
nodes = (
"313 132 LINE",
"312 115 OFFCURVE",
"319 108 QCURVE",
"461 108 LINE SMOOTH",
"465 108 OFFCURVE",
"465 105 QCURVE",
"464 104 LINE",
"445 4 LINE",
"445 3 OFFCURVE",
"448 1 OFFCURVE",
"454 -1 OFFCURVE",
"463 -3 OFFCURVE",
"476 -4 OFFCURVE",
"483 -4 QCURVE SMOOTH",
"508 -4 OFFCURVE",
"518 1 QCURVE",
"539 102 LINE",
"541 108 OFFCURVE",
"543 108 QCURVE SMOOTH",
"571 108 LINE",
"582 117 OFFCURVE",
"582 145 QCURVE SMOOTH",
"582 158 OFFCURVE",
"575 158 QCURVE SMOOTH",
"553 158 LINE SMOOTH",
"549 158 OFFCURVE",
"549 160 QCURVE SMOOTH",
"549 161 LINE",
"595 390 LINE",
"596 397 OFFCURVE",
"575 397 QCURVE SMOOTH",
"566 397 OFFCURVE",
"558 389 QCURVE SMOOTH"
);
},
{
closed = 1;
nodes = (
"384 158 OFFCURVE",
"384 162 QCURVE SMOOTH",
"384 164 OFFCURVE",
"385 165 QCURVE SMOOTH",
"495 281 LINE",
"497 282 LINE",
"499 282 OFFCURVE",
"499 276 QCURVE",
"475 162 LINE",
"474 158 OFFCURVE",
"469 158 QCURVE SMOOTH",
"387 158 LINE SMOOTH"
);
}
);
width = 618;
}
);
note = threequarters;
unicode = 00BE;
},
{
glyphname = questiondown;
layers = (
{
layerId = "3968EB47-B6D1-4984-BCC6-AA3E1527005D";
paths = (
{
closed = 1;
nodes = (
"317 411 OFFCURVE",
"288 442 OFFCURVE",
"267 442 QCURVE SMOOTH",
"239 442 OFFCURVE",
"192 392 OFFCURVE",
"192 361 QCURVE SMOOTH",
"192 338 OFFCURVE",
"221 309 OFFCURVE",
"243 309 QCURVE SMOOTH",
"271 309 OFFCURVE",
"317 356 OFFCURVE",
"317 388 QCURVE SMOOTH"
);
},
{
closed = 1;
nodes = (
"163 220 OFFCURVE",
"185 203 OFFCURVE",
"207 177 OFFCURVE",
"207 164 QCURVE SMOOTH",
"207 133 OFFCURVE",
"171 113 QCURVE SMOOTH",
"94 70 OFFCURVE",
"61 48 QCURVE SMOOTH",
"2 11 OFFCURVE",
"2 -72 QCURVE SMOOTH",
"2 -128 OFFCURVE",
"93 -209 OFFCURVE",
"155 -209 QCURVE SMOOTH",
"209 -209 OFFCURVE",
"233 -164 QCURVE",
"238 -138 OFFCURVE",
"216 -96 OFFCURVE",
"192 -96 QCURVE SMOOTH",
"178 -96 OFFCURVE",
"138 -143 OFFCURVE",
"120 -143 QCURVE SMOOTH",
"93 -143 OFFCURVE",
"65 -111 OFFCURVE",
"65 -86 QCURVE SMOOTH",
"65 -46 OFFCURVE",
"117 -18 QCURVE SMOOTH",
"227 46 LINE SMOOTH",
"282 77 OFFCURVE",
"282 140 QCURVE SMOOTH",
"282 177 OFFCURVE",
"199 242 OFFCURVE",
"175 242 QCURVE",
"163 235 OFFCURVE",
"163 224 QCURVE SMOOTH"
);
}
);
width = 334;
}
);
note = questiondown;
unicode = 00BF;
},
{
glyphname = AE;
layers = (
{
layerId = "3968EB47-B6D1-4984-BCC6-AA3E1527005D";
paths = (
{
closed = 1;
nodes = (
"539 657 OFFCURVE",
"496 658 OFFCURVE",
"480 658 QCURVE SMOOTH",
"464 658 LINE",
"456 653 OFFCURVE",
"456 632 QCURVE SMOOTH",
"456 624 OFFCURVE",
"461 624 QCURVE SMOOTH",
"474 624 OFFCURVE",
"490 613 OFFCURVE",
"489 600 QCURVE SMOOTH",
"487 582 OFFCURVE",
"449 540 QCURVE",
"135 136 LINE SMOOTH",
"94 83 OFFCURVE",
"67 56 QCURVE SMOOTH",
"54 43 OFFCURVE",
"6 26 OFFCURVE",
"-5 26 QCURVE SMOOTH",
"-7 26 OFFCURVE",
"-13 11 OFFCURVE",
"-13 6 QCURVE SMOOTH",
"-13 0 OFFCURVE",
"-11 -4 QCURVE",
"2 -3 OFFCURVE",
"74 2 OFFCURVE",
"99 2 QCURVE SMOOTH",
"123 2 OFFCURVE",
"187 -3 OFFCURVE",
"196 -4 QCURVE",
"204 9 OFFCURVE",
"204 24 QCURVE SMOOTH",
"204 27 OFFCURVE",
"203 27 QCURVE SMOOTH",
"179 27 OFFCURVE",
"155 40 QCURVE",
"145 46 OFFCURVE",
"145 55 QCURVE SMOOTH",
"145 58 OFFCURVE",
"147 65 OFFCURVE",
"152 74 OFFCURVE",
"158 83 OFFCURVE",
"167 97 OFFCURVE",
"175 107 OFFCURVE",
"189 125 OFFCURVE",
"193 131 QCURVE",
"220 163 OFFCURVE",
"281 248 QCURVE",
"285 252 OFFCURVE",
"289 252 QCURVE SMOOTH",
"349 254 OFFCURVE",
"369 254 QCURVE SMOOTH",
"416 254 OFFCURVE",
"446 252 QCURVE",
"454 252 OFFCURVE",
"452 246 QCURVE",
"442 137 OFFCURVE",
"442 134 QCURVE",
"436 74 OFFCURVE",
"425 52 QCURVE",
"421 45 OFFCURVE",
"374 32 OFFCURVE",
"363 32 QCURVE SMOOTH",
"361 32 OFFCURVE",
"355 15 OFFCURVE",
"355 8 QCURVE SMOOTH",
"355 0 OFFCURVE",
"357 -4 QCURVE",
"485 2 LINE",
"526 2 OFFCURVE",
"728 -3 OFFCURVE",
"780 -3 QCURVE",
"798 49 OFFCURVE",
"854 166 QCURVE",
"850 172 OFFCURVE",
"830 172 QCURVE SMOOTH",
"818 172 OFFCURVE",
"815 166 QCURVE SMOOTH",
"779 90 OFFCURVE",
"744 72 QCURVE SMOOTH",
"698 49 OFFCURVE",
"631 49 QCURVE SMOOTH",
"611 49 LINE SMOOTH",
"551 49 OFFCURVE",
"547 83 OFFCURVE",
"553 148 QCURVE SMOOTH",
"567 290 LINE SMOOTH",
"568 300 OFFCURVE",
"622 300 QCURVE SMOOTH",
"697 300 OFFCURVE",
"708 292 QCURVE",
"710 290 LINE",
"713 288 OFFCURVE",
"714 287 OFFCURVE",
"718 283 OFFCURVE",
"719 278 OFFCURVE",
"722 269 OFFCURVE",
"724 258 OFFCURVE",
"726 242 OFFCURVE",
"727 231 QCURVE",
"728 224 OFFCURVE",
"740 224 QCURVE SMOOTH",
"754 224 OFFCURVE",
"758 228 QCURVE",
"760 261 OFFCURVE",
"775 397 OFFCURVE",
"780 418 QCURVE",
"777 423 OFFCURVE",
"763 423 QCURVE SMOOTH",
"750 423 OFFCURVE",
"747 416 QCURVE",
"728 366 OFFCURVE",
"704 350 OFFCURVE",
"650 350 QCURVE SMOOTH",
"609 350 LINE SMOOTH",
"573 350 OFFCURVE",
"573 357 QCURVE SMOOTH",
"573 358 LINE",
"589 512 LINE SMOOTH",
"595 574 OFFCURVE",
"603 600 QCURVE SMOOTH",
"607 613 OFFCURVE",
"675 613 QCURVE SMOOTH",
"730 613 LINE SMOOTH",
"766 613 OFFCURVE",
"823 572 OFFCURVE",
"827 525 QCURVE",
"827 518 OFFCURVE",
"839 518 QCURVE SMOOTH",
"854 518 OFFCURVE",
"859 523 QCURVE",
"859 543 OFFCURVE",
"861 590 OFFCURVE",
"864 648 OFFCURVE",
"865 664 QCURVE",
"813 664 OFFCURVE",
"594 657 OFFCURVE",
"553 657 QCURVE SMOOTH"
);
},
{
closed = 1;
nodes = (
"461 313 LINE",
"461 312 OFFCURVE",
"457 308 OFFCURVE",
"456 308 QCURVE",
"431 306 OFFCURVE",
"392 306 QCURVE SMOOTH",
"349 306 OFFCURVE",
"331 308 QCURVE",
"331 312 LINE",
"357 349 OFFCURVE",
"483 508 QCURVE"
);
}
);
width = 873;
}
);
note = AE;
unicode = 00C6;
},
{
glyphname = Eth;
layers = (
{
layerId = "3968EB47-B6D1-4984-BCC6-AA3E1527005D";
paths = (
{
closed = 1;
nodes = (
"488 608 OFFCURVE",
"562 477 OFFCURVE",
"552 377 QCURVE SMOOTH",
"537 231 OFFCURVE",
"403 48 OFFCURVE",
"302 48 QCURVE SMOOTH",
"205 48 OFFCURVE",
"192 64 QCURVE",
"183 73 OFFCURVE",
"196 138 QCURVE SMOOTH",
"226 298 LINE",
"338 298 LINE",
"344 303 OFFCURVE",
"360 338 OFFCURVE",
"360 351 QCURVE SMOOTH",
"360 366 OFFCURVE",
"354 366 QCURVE SMOOTH",
"239 366 LINE",
"270 522 LINE",
"277 570 OFFCURVE",
"295 592 QCURVE SMOOTH",
"309 608 OFFCURVE",
"403 608 QCURVE SMOOTH"
);
},
{
closed = 1;
nodes = (
"244 658 LINE SMOOTH",
"182 658 OFFCURVE",
"128 662 QCURVE",
"119 653 OFFCURVE",
"119 632 QCURVE SMOOTH",
"119 628 OFFCURVE",
"120 628 QCURVE SMOOTH",
"130 628 OFFCURVE",
"173 611 OFFCURVE",
"174 603 QCURVE",
"176 579 OFFCURVE",
"164 518 QCURVE SMOOTH",
"134 366 LINE",
"69 366 LINE",
"63 361 OFFCURVE",
"47 325 OFFCURVE",
"47 312 QCURVE SMOOTH",
"47 298 OFFCURVE",
"53 298 QCURVE SMOOTH",
"121 298 LINE",
"90 138 LINE SMOOTH",
"80 82 OFFCURVE",
"66 52 QCURVE SMOOTH",
"62 44 OFFCURVE",
"16 32 OFFCURVE",
"4 32 QCURVE SMOOTH",
"2 32 OFFCURVE",
"-4 13 OFFCURVE",
"-4 6 QCURVE SMOOTH",
"-4 -2 OFFCURVE",
"-2 -4 QCURVE",
"119 2 LINE",
"153 2 OFFCURVE",
"259 -3 OFFCURVE",
"277 -3 QCURVE SMOOTH",
"369 -3 OFFCURVE",
"523 74 OFFCURVE",
"619 195 OFFCURVE",
"672 336 OFFCURVE",
"672 404 QCURVE SMOOTH",
"672 514 OFFCURVE",
"538 658 OFFCURVE",
"407 658 QCURVE SMOOTH"
);
}
);
width = 690;
}
);
note = Eth;
unicode = 00D0;
},
{
glyphname = multiply;
layers = (
{
layerId = "3968EB47-B6D1-4984-BCC6-AA3E1527005D";
paths = (
{
closed = 1;
nodes = (
"42 57 OFFCURVE",
"45 60 QCURVE",
"201 198 LINE",
"203 200 OFFCURVE",
"207 200 OFFCURVE",
"209 198 QCURVE",
"309 62 LINE",
"311 58 OFFCURVE",
"315 58 QCURVE SMOOTH",
"321 58 OFFCURVE",
"356 100 OFFCURVE",
"356 110 QCURVE",
"259 244 LINE",
"258 245 OFFCURVE",
"258 246 QCURVE SMOOTH",
"258 248 OFFCURVE",
"259 249 QCURVE",
"409 383 LINE",
"409 396 OFFCURVE",
"392 436 OFFCURVE",
"387 436 QCURVE SMOOTH",
"385 436 OFFCURVE",
"381 432 QCURVE",
"227 295 LINE",
"226 294 OFFCURVE",
"225 294 QCURVE SMOOTH",
"223 294 OFFCURVE",
"221 296 QCURVE",
"120 432 LINE",
"116 436 OFFCURVE",
"113 436 QCURVE SMOOTH",
"108 436 OFFCURVE",
"71 394 OFFCURVE",
"71 384 QCURVE",
"169 251 LINE",
"171 249 OFFCURVE",
"171 246 QCURVE SMOOTH",
"171 245 OFFCURVE",
"169 243 QCURVE",
"16 108 LINE",
"16 96 OFFCURVE",
"32 57 OFFCURVE",
"38 57 QCURVE SMOOTH"
);
}
);
width = 410;
}
);
note = multiply;
unicode = 00D7;
},
{
glyphname = Oslash;
layers = (
{
layerId = "3968EB47-B6D1-4984-BCC6-AA3E1527005D";
paths = (
{
closed = 1;
nodes = (
"438 618 OFFCURVE",
"475 571 QCURVE",
"167 132 LINE",
"144 184 OFFCURVE",
"144 252 QCURVE SMOOTH",
"144 399 OFFCURVE",
"280 618 OFFCURVE",
"374 618 QCURVE SMOOTH"
);
},
{
closed = 1;
nodes = (
"307 667 OFFCURVE",
"135 553 OFFCURVE",
"26 362 OFFCURVE",
"26 258 QCURVE SMOOTH",
"26 126 OFFCURVE",
"108 50 QCURVE",
"88 20 LINE",
"85 17 OFFCURVE",
"85 13 QCURVE SMOOTH",
"85 6 OFFCURVE",
"113 -5 OFFCURVE",
"120 -5 QCURVE",
"141 25 LINE",
"197 -10 OFFCURVE",
"264 -10 QCURVE SMOOTH",
"359 -10 OFFCURVE",
"532 106 OFFCURVE",
"638 298 OFFCURVE",
"638 404 QCURVE SMOOTH",
"638 531 OFFCURVE",
"553 608 QCURVE",
"576 641 LINE",
"577 643 OFFCURVE",
"577 647 QCURVE SMOOTH",
"577 654 OFFCURVE",
"547 669 OFFCURVE",
"543 668 QCURVE",
"519 634 LINE",
"464 667 OFFCURVE",
"398 667 QCURVE SMOOTH"
);
},
{
closed = 1;
nodes = (
"225 40 OFFCURVE",
"188 91 QCURVE",
"497 530 LINE",
"520 481 OFFCURVE",
"520 415 QCURVE SMOOTH",
"520 336 OFFCURVE",
"468 168 OFFCURVE",
"359 40 OFFCURVE",
"290 40 QCURVE SMOOTH"
);
}
);
width = 656;
}
);
note = Oslash;
unicode = 00D8;
},
{
glyphname = Thorn;
layers = (
{
layerId = "3968EB47-B6D1-4984-BCC6-AA3E1527005D";
paths = (
{
closed = 1;
nodes = (
"323 524 OFFCURVE",
"291 522 OFFCURVE",
"271 520 OFFCURVE",
"269 520 QCURVE SMOOTH",
"266 520 OFFCURVE",
"266 525 QCURVE",
"280 588 OFFCURVE",
"289 608 QCURVE SMOOTH",
"292 615 OFFCURVE",
"342 632 OFFCURVE",
"350 632 QCURVE SMOOTH",
"357 632 OFFCURVE",
"357 652 QCURVE SMOOTH",
"357 662 LINE",
"262 657 OFFCURVE",
"241 657 QCURVE SMOOTH",
"228 657 OFFCURVE",
"123 662 QCURVE",
"116 655 OFFCURVE",
"116 641 QCURVE SMOOTH",
"116 632 OFFCURVE",
"117 632 QCURVE SMOOTH",
"128 632 OFFCURVE",
"168 615 OFFCURVE",
"169 606 QCURVE",
"171 579 OFFCURVE",
"160 520 QCURVE SMOOTH",
"85 138 LINE SMOOTH",
"76 85 OFFCURVE",
"61 50 QCURVE SMOOTH",
"56 38 OFFCURVE",
"13 27 OFFCURVE",
"-1 27 QCURVE SMOOTH",
"-7 27 OFFCURVE",
"-7 8 QCURVE SMOOTH",
"-7 -1 OFFCURVE",
"-6 -3 QCURVE",
"3 -3 OFFCURVE",
"88 3 OFFCURVE",
"113 3 QCURVE SMOOTH",
"116 3 OFFCURVE",
"227 -3 QCURVE",
"233 9 OFFCURVE",
"233 17 QCURVE SMOOTH",
"233 27 OFFCURVE",
"231 27 QCURVE SMOOTH",
"223 27 OFFCURVE",
"181 42 OFFCURVE",
"181 52 QCURVE SMOOTH",
"181 94 OFFCURVE",
"191 138 QCURVE",
"191 142 OFFCURVE",
"193 148 QCURVE",
"195 152 OFFCURVE",
"198 152 QCURVE SMOOTH",
"200 152 OFFCURVE",
"241 144 OFFCURVE",
"263 144 QCURVE SMOOTH",
"351 144 OFFCURVE",
"496 267 OFFCURVE",
"503 352 QCURVE SMOOTH",
"510 425 OFFCURVE",
"414 524 OFFCURVE",
"337 524 QCURVE SMOOTH"
);
},
{
closed = 1;
nodes = (
"366 481 OFFCURVE",
"404 396 OFFCURVE",
"397 335 QCURVE",
"393 278 OFFCURVE",
"324 190 OFFCURVE",
"282 190 QCURVE SMOOTH",
"207 190 OFFCURVE",
"207 209 QCURVE SMOOTH",
"207 211 OFFCURVE",
"205 216 OFFCURVE",
"206 218 QCURVE",
"252 454 LINE SMOOTH",
"256 472 OFFCURVE",
"283 481 OFFCURVE",
"319 481 QCURVE SMOOTH"
);
}
);
width = 520;
}
);
note = Thorn;
unicode = 00DE;
},
{
glyphname = germandbls;
layers = (
{
layerId = "3968EB47-B6D1-4984-BCC6-AA3E1527005D";
paths = (
{
closed = 1;
nodes = (
"327 695 OFFCURVE",
"205 541 OFFCURVE",
"184 431 QCURVE",
"181 418 OFFCURVE",
"177 418 QCURVE SMOOTH",
"154 418 LINE SMOOTH",
"136 418 OFFCURVE",
"101 382 OFFCURVE",
"101 373 QCURVE SMOOTH",
"101 366 OFFCURVE",
"105 366 QCURVE SMOOTH",
"167 366 LINE SMOOTH",
"171 366 OFFCURVE",
"171 362 QCURVE",
"170 360 LINE",
"170 358 LINE",
"102 5 LINE",
"101 2 OFFCURVE",
"100 -4 QCURVE SMOOTH",
"65 -179 OFFCURVE",
"24 -179 QCURVE SMOOTH",
"10 -179 OFFCURVE",
"-8 -157 OFFCURVE",
"-15 -130 OFFCURVE",
"-31 -108 OFFCURVE",
"-43 -108 QCURVE SMOOTH",
"-87 -108 OFFCURVE",
"-92 -185 QCURVE",
"-87 -200 OFFCURVE",
"-41 -226 OFFCURVE",
"-6 -226 QCURVE SMOOTH",
"149 -226 OFFCURVE",
"199 34 QCURVE SMOOTH",
"284 474 LINE SMOOTH",
"318 649 OFFCURVE",
"386 649 QCURVE SMOOTH",
"472 649 OFFCURVE",
"454 489 OFFCURVE",
"393 440 QCURVE SMOOTH",
"389 437 OFFCURVE",
"359 413 OFFCURVE",
"353 407 OFFCURVE",
"331 388 OFFCURVE",
"326 379 OFFCURVE",
"313 361 OFFCURVE",
"310 347 OFFCURVE",
"306 326 OFFCURVE",
"306 315 QCURVE SMOOTH",
"306 305 OFFCURVE",
"309 289 OFFCURVE",
"317 272 OFFCURVE",
"322 262 OFFCURVE",
"338 245 OFFCURVE",
"343 240 OFFCURVE",
"363 221 OFFCURVE",
"365 220 QCURVE",
"370 216 OFFCURVE",
"398 192 OFFCURVE",
"411 179 OFFCURVE",
"429 157 OFFCURVE",
"437 135 OFFCURVE",
"437 109 OFFCURVE",
"431 77 OFFCURVE",
"404 42 OFFCURVE",
"382 42 QCURVE SMOOTH",
"366 42 OFFCURVE",
"345 65 OFFCURVE",
"335 92 OFFCURVE",
"315 115 OFFCURVE",
"300 115 QCURVE SMOOTH",
"259 115 OFFCURVE",
"252 39 QCURVE",
"257 25 OFFCURVE",
"331 -4 OFFCURVE",
"378 -4 QCURVE SMOOTH",
"438 -4 OFFCURVE",
"525 91 OFFCURVE",
"525 148 QCURVE SMOOTH",
"525 187 OFFCURVE",
"482 244 OFFCURVE",
"442 276 QCURVE SMOOTH",
"383 321 OFFCURVE",
"383 356 QCURVE SMOOTH",
"383 365 OFFCURVE",
"386 379 OFFCURVE",
"395 392 OFFCURVE",
"401 400 OFFCURVE",
"417 412 OFFCURVE",
"424 416 OFFCURVE",
"444 428 OFFCURVE",
"447 430 QCURVE SMOOTH",
"468 443 OFFCURVE",
"491 459 OFFCURVE",
"531 496 OFFCURVE",
"553 544 OFFCURVE",
"556 573 QCURVE SMOOTH",
"562 630 OFFCURVE",
"472 695 OFFCURVE",
"411 695 QCURVE SMOOTH"
);
}
);
width = 565;
}
);
note = germandbls;
unicode = 00DF;
},
{
glyphname = ae;
layers = (
{
layerId = "3968EB47-B6D1-4984-BCC6-AA3E1527005D";
paths = (
{
closed = 1;
nodes = (
"477 394 OFFCURVE",
"477 354 QCURVE SMOOTH",
"477 313 OFFCURVE",
"393 252 OFFCURVE",
"349 252 QCURVE SMOOTH",
"344 252 OFFCURVE",
"344 256 QCURVE SMOOTH",
"344 282 OFFCURVE",
"358 315 QCURVE SMOOTH",
"371 345 OFFCURVE",
"428 394 OFFCURVE",
"453 394 QCURVE SMOOTH"
);
},
{
closed = 1;
nodes = (
"407 442 OFFCURVE",
"347 393 QCURVE",
"329 443 OFFCURVE",
"262 443 QCURVE SMOOTH",
"197 443 OFFCURVE",
"67 347 OFFCURVE",
"67 306 QCURVE SMOOTH",
"67 280 OFFCURVE",
"101 280 QCURVE SMOOTH",
"120 280 OFFCURVE",
"151 297 OFFCURVE",
"154 311 QCURVE",
"160 347 OFFCURVE",
"205 394 OFFCURVE",
"229 394 QCURVE SMOOTH",
"245 394 OFFCURVE",
"266 368 OFFCURVE",
"266 349 QCURVE SMOOTH",
"266 334 OFFCURVE",
"263 324 QCURVE",
"251 258 LINE SMOOTH",
"249 246 OFFCURVE",
"240 243 QCURVE",
"235 242 OFFCURVE",
"178 228 OFFCURVE",
"151 219 OFFCURVE",
"97 200 OFFCURVE",
"67 178 OFFCURVE",
"33 148 OFFCURVE",
"17 107 OFFCURVE",
"17 83 QCURVE SMOOTH",
"17 42 OFFCURVE",
"82 -8 OFFCURVE",
"129 -8 QCURVE SMOOTH",
"219 -8 OFFCURVE",
"261 68 QCURVE",
"277 36 OFFCURVE",
"338 -6 OFFCURVE",
"377 -6 QCURVE SMOOTH",
"424 -6 OFFCURVE",
"513 76 OFFCURVE",
"521 100 QCURVE",
"521 104 OFFCURVE",
"509 125 OFFCURVE",
"507 126 QCURVE",
"506 126 OFFCURVE",
"477 91 OFFCURVE",
"434 56 OFFCURVE",
"415 56 QCURVE SMOOTH",
"384 56 OFFCURVE",
"337 120 OFFCURVE",
"337 187 QCURVE SMOOTH",
"337 202 OFFCURVE",
"345 202 QCURVE SMOOTH",
"378 202 OFFCURVE",
"479 237 OFFCURVE",
"569 311 OFFCURVE",
"569 355 QCURVE SMOOTH",
"569 388 OFFCURVE",
"521 442 OFFCURVE",
"477 442 QCURVE SMOOTH"
);
},
{
closed = 1;
nodes = (
"222 102 OFFCURVE",
"183 59 OFFCURVE",
"157 59 QCURVE SMOOTH",
"116 59 OFFCURVE",
"116 99 QCURVE SMOOTH",
"116 164 OFFCURVE",
"238 189 QCURVE",
"227 128 LINE SMOOTH"
);
}
);
width = 577;
}
);
note = ae;
unicode = 00E6;
},
{
glyphname = eth;
layers = (
{
layerId = "3968EB47-B6D1-4984-BCC6-AA3E1527005D";
paths = (
{
closed = 1;
nodes = (
"269 350 OFFCURVE",
"300 316 OFFCURVE",
"300 292 QCURVE SMOOTH",
"300 266 OFFCURVE",
"289 207 QCURVE SMOOTH",
"274 132 OFFCURVE",
"212 44 OFFCURVE",
"169 44 QCURVE SMOOTH",
"145 44 OFFCURVE",
"114 83 OFFCURVE",
"114 123 QCURVE SMOOTH",
"114 175 OFFCURVE",
"142 276 OFFCURVE",
"206 350 OFFCURVE",
"249 350 QCURVE SMOOTH"
);
},
{
closed = 1;
nodes = (
"152 398 OFFCURVE",
"18 247 OFFCURVE",
"18 153 QCURVE SMOOTH",
"18 84 OFFCURVE",
"99 -6 OFFCURVE",
"163 -6 QCURVE SMOOTH",
"202 -6 OFFCURVE",
"284 35 OFFCURVE",
"358 114 OFFCURVE",
"406 248 OFFCURVE",
"406 331 QCURVE SMOOTH",
"406 500 OFFCURVE",
"282 616 QCURVE",
"378 710 LINE",
"381 714 OFFCURVE",
"381 728 OFFCURVE",
"360 747 OFFCURVE",
"355 749 QCURVE",
"248 645 LINE",
"231 658 OFFCURVE",
"170 692 QCURVE",
"159 690 OFFCURVE",
"143 668 OFFCURVE",
"143 658 QCURVE",
"183 636 OFFCURVE",
"211 609 QCURVE",
"113 514 LINE SMOOTH",
"110 511 OFFCURVE",
"110 506 QCURVE SMOOTH",
"110 498 OFFCURVE",
"128 479 OFFCURVE",
"137 476 QCURVE",
"241 576 LINE",
"307 491 OFFCURVE",
"307 389 QCURVE SMOOTH",
"307 372 OFFCURVE",
"303 372 QCURVE",
"301 373 LINE",
"276 398 OFFCURVE",
"233 398 QCURVE SMOOTH"
);
}
);
width = 420;
}
);
note = eth;
unicode = 00F0;
},
{
glyphname = divide;
layers = (
{
layerId = "3968EB47-B6D1-4984-BCC6-AA3E1527005D";
paths = (
{
closed = 1;
nodes = (
"249 494 OFFCURVE",
"214 455 OFFCURVE",
"214 430 QCURVE SMOOTH",
"214 410 OFFCURVE",
"238 381 OFFCURVE",
"256 381 QCURVE SMOOTH",
"281 381 OFFCURVE",
"316 422 OFFCURVE",
"316 448 QCURVE SMOOTH",
"316 468 OFFCURVE",
"292 494 OFFCURVE",
"273 494 QCURVE SMOOTH"
);
},
{
closed = 1;
nodes = (
"176 115 OFFCURVE",
"141 76 OFFCURVE",
"141 51 QCURVE SMOOTH",
"141 31 OFFCURVE",
"165 2 OFFCURVE",
"183 2 QCURVE SMOOTH",
"208 2 OFFCURVE",
"243 43 OFFCURVE",
"243 69 QCURVE SMOOTH",
"243 89 OFFCURVE",
"219 115 OFFCURVE",
"200 115 QCURVE SMOOTH"
);
},
{
closed = 1;
nodes = (
"3 254 OFFCURVE",
"3 228 QCURVE SMOOTH",
"3 214 OFFCURVE",
"7 214 QCURVE SMOOTH",
"435 214 LINE",
"458 239 OFFCURVE",
"458 268 QCURVE SMOOTH",
"458 282 OFFCURVE",
"454 282 QCURVE SMOOTH",
"27 282 LINE"
);
}
);
width = 459;
}
);
note = divide;
unicode = 00F7;
},
{
glyphname = oslash;
layers = (
{
layerId = "3968EB47-B6D1-4984-BCC6-AA3E1527005D";
paths = (
{
closed = 1;
nodes = (
"148 44 OFFCURVE",
"133 80 QCURVE",
"293 306 LINE",
"294 296 OFFCURVE",
"294 276 QCURVE SMOOTH",
"294 192 OFFCURVE",
"223 44 OFFCURVE",
"178 44 QCURVE SMOOTH"
);
},
{
closed = 1;
nodes = (
"267 392 OFFCURVE",
"281 362 QCURVE",
"122 136 LINE",
"121 145 OFFCURVE",
"121 162 QCURVE SMOOTH",
"121 244 OFFCURVE",
"195 392 OFFCURVE",
"240 392 QCURVE SMOOTH"
);
},
{
closed = 1;
nodes = (
"164 442 OFFCURVE",
"24 271 OFFCURVE",
"24 162 QCURVE SMOOTH",
"24 94 OFFCURVE",
"59 45 QCURVE",
"40 18 LINE",
"37 15 OFFCURVE",
"37 12 QCURVE SMOOTH",
"37 5 OFFCURVE",
"65 -6 OFFCURVE",
"72 -6 QCURVE",
"88 15 LINE",
"117 -6 OFFCURVE",
"154 -6 QCURVE SMOOTH",
"250 -6 OFFCURVE",
"391 165 OFFCURVE",
"391 278 QCURVE SMOOTH",
"391 344 OFFCURVE",
"355 393 QCURVE",
"371 415 LINE",
"372 416 OFFCURVE",
"372 421 QCURVE SMOOTH",
"372 428 OFFCURVE",
"342 443 OFFCURVE",
"338 442 QCURVE",
"324 423 LINE",
"296 442 OFFCURVE",
"260 442 QCURVE SMOOTH"
);
}
);
width = 406;
}
);
note = oslash;
unicode = 00F8;
},
{
glyphname = thorn;
layers = (
{
layerId = "3968EB47-B6D1-4984-BCC6-AA3E1527005D";
paths = (
{
closed = 1;
nodes = (
"349 371 OFFCURVE",
"376 339 OFFCURVE",
"376 312 QCURVE SMOOTH",
"376 200 OFFCURVE",
"283 38 OFFCURVE",
"230 38 QCURVE SMOOTH",
"210 38 OFFCURVE",
"184 70 OFFCURVE",
"184 94 QCURVE SMOOTH",
"184 106 OFFCURVE",
"189 130 QCURVE SMOOTH",
"227 324 LINE SMOOTH",
"228 329 OFFCURVE",
"257 351 OFFCURVE",
"307 371 OFFCURVE",
"331 371 QCURVE SMOOTH"
);
},
{
closed = 1;
nodes = (
"331 435 OFFCURVE",
"254 399 OFFCURVE",
"238 382 QCURVE",
"278 587 LINE SMOOTH",
"289 643 OFFCURVE",
"307 678 QCURVE",
"307 694 OFFCURVE",
"299 694 QCURVE SMOOTH",
"295 694 LINE",
"278 685 OFFCURVE",
"171 656 OFFCURVE",
"145 656 QCURVE SMOOTH",
"143 656 OFFCURVE",
"135 640 OFFCURVE",
"135 628 OFFCURVE",
"139 628 QCURVE SMOOTH",
"188 628 OFFCURVE",
"188 606 QCURVE SMOOTH",
"188 589 OFFCURVE",
"179 550 QCURVE",
"138 334 LINE",
"119 322 OFFCURVE",
"72 287 QCURVE",
"67 284 OFFCURVE",
"67 278 QCURVE SMOOTH",
"67 264 OFFCURVE",
"76 250 QCURVE",
"127 280 LINE",
"48 -125 LINE",
"35 -178 OFFCURVE",
"29 -186 QCURVE",
"19 -198 OFFCURVE",
"-9 -198 QCURVE SMOOTH",
"-14 -198 OFFCURVE",
"-14 -214 QCURVE SMOOTH",
"-14 -226 OFFCURVE",
"-10 -228 QCURVE",
"84 -218 OFFCURVE",
"155 -218 QCURVE SMOOTH",
"199 -218 LINE",
"203 -212 OFFCURVE",
"203 -199 QCURVE SMOOTH",
"203 -188 OFFCURVE",
"197 -188 QCURVE SMOOTH",
"174 -188 OFFCURVE",
"165 -186 QCURVE SMOOTH",
"138 -180 OFFCURVE",
"138 -154 QCURVE SMOOTH",
"138 -139 OFFCURVE",
"140 -125 QCURVE",
"163 -4 LINE",
"166 8 OFFCURVE",
"169 8 QCURVE SMOOTH",
"171 8 OFFCURVE",
"177 4 QCURVE",
"194 -6 OFFCURVE",
"223 -6 QCURVE SMOOTH",
"283 -6 OFFCURVE",
"405 88 OFFCURVE",
"486 243 OFFCURVE",
"486 322 QCURVE SMOOTH",
"486 367 OFFCURVE",
"430 435 OFFCURVE",
"383 435 QCURVE SMOOTH"
);
}
);
width = 498;
}
);
note = thorn;
unicode = 00FE;
},
{
glyphname = Aogonek;
layers = (
{
layerId = "3968EB47-B6D1-4984-BCC6-AA3E1527005D";
paths = (
{
closed = 1;
nodes = (
"300 285 OFFCURVE",
"270 288 QCURVE",
"269 288 OFFCURVE",
"269 290 QCURVE",
"385 492 LINE",
"387 478 OFFCURVE",
"414 312 OFFCURVE",
"417 292 QCURVE",
"417 288 OFFCURVE",
"413 288 QCURVE",
"370 285 OFFCURVE",
"342 285 QCURVE SMOOTH"
);
},
{
closed = 1;
nodes = (
"117 136 LINE SMOOTH",
"100 108 OFFCURVE",
"98 105 QCURVE",
"83 80 OFFCURVE",
"25 38 QCURVE SMOOTH",
"-7 14 LINE",
"-9 12 OFFCURVE",
"-9 0 QCURVE",
"51 0 LINE SMOOTH",
"83 1 OFFCURVE",
"154 -1 QCURVE",
"166 0 OFFCURVE",
"197 11 OFFCURVE",
"204 12 QCURVE",
"205 16 OFFCURVE",
"205 24 QCURVE",
"204 24 OFFCURVE",
"193 28 OFFCURVE",
"182 31 OFFCURVE",
"172 39 OFFCURVE",
"172 44 QCURVE SMOOTH",
"172 45 OFFCURVE",
"160 60 OFFCURVE",
"156 76 OFFCURVE",
"161 93 QCURVE",
"161 101 OFFCURVE",
"196 167 OFFCURVE",
"231 225 OFFCURVE",
"232 226 QCURVE",
"232 229 OFFCURVE",
"237 229 QCURVE",
"271 231 OFFCURVE",
"329 231 QCURVE SMOOTH",
"413 231 OFFCURVE",
"424 228 QCURVE",
"429 226 OFFCURVE",
"429 223 QCURVE",
"451 76 OFFCURVE",
"451 66 QCURVE SMOOTH",
"451 41 OFFCURVE",
"417 12 QCURVE",
"293 -102 OFFCURVE",
"293 -167 QCURVE SMOOTH",
"293 -191 OFFCURVE",
"324 -223 OFFCURVE",
"347 -223 QCURVE SMOOTH",
"402 -223 OFFCURVE",
"461 -157 QCURVE",
"464 -154 OFFCURVE",
"472 -126 OFFCURVE",
"467 -125 QCURVE",
"466 -125 OFFCURVE",
"445 -141 OFFCURVE",
"408 -157 OFFCURVE",
"387 -157 QCURVE SMOOTH",
"358 -157 OFFCURVE",
"358 -130 QCURVE SMOOTH",
"358 -90 OFFCURVE",
"465 2 OFFCURVE",
"517 2 QCURVE SMOOTH",
"523 2 OFFCURVE",
"616 -4 QCURVE",
"622 8 OFFCURVE",
"622 22 QCURVE SMOOTH",
"622 27 OFFCURVE",
"620 27 QCURVE SMOOTH",
"610 27 OFFCURVE",
"564 48 OFFCURVE",
"561 63 QCURVE SMOOTH",
"555 94 OFFCURVE",
"548 136 QCURVE SMOOTH",
"454 660 LINE",
"450 664 OFFCURVE",
"444 664 QCURVE SMOOTH",
"433 664 OFFCURVE",
"402 629 OFFCURVE",
"391 610 QCURVE SMOOTH"
);
}
);
width = 649;
}
);
note = Aogonek;
unicode = 0104;
},
{
glyphname = aogonek;
layers = (
{
layerId = "3968EB47-B6D1-4984-BCC6-AA3E1527005D";
paths = (
{
closed = 1;
nodes = (
"301 392 OFFCURVE",
"301 378 QCURVE SMOOTH",
"301 376 OFFCURVE",
"299 362 OFFCURVE",
"299 360 QCURVE",
"282 266 LINE SMOOTH",
"270 199 OFFCURVE",
"183 60 OFFCURVE",
"151 60 QCURVE SMOOTH",
"117 60 OFFCURVE",
"117 124 QCURVE SMOOTH",
"117 171 OFFCURVE",
"173 299 OFFCURVE",
"255 392 OFFCURVE",
"288 392 QCURVE SMOOTH"
);
},
{
closed = 1;
nodes = (
"254 442 OFFCURVE",
"114 331 OFFCURVE",
"17 167 OFFCURVE",
"17 98 QCURVE SMOOTH",
"17 46 OFFCURVE",
"59 -8 OFFCURVE",
"109 -8 QCURVE SMOOTH",
"173 -8 OFFCURVE",
"249 103 QCURVE",
"251 105 LINE",
"253 103 LINE",
"252 86 LINE",
"250 68 OFFCURVE",
"251 58 QCURVE",
"259 4 OFFCURVE",
"295 -3 QCURVE",
"199 -103 OFFCURVE",
"199 -168 QCURVE SMOOTH",
"199 -191 OFFCURVE",
"230 -223 OFFCURVE",
"253 -223 QCURVE SMOOTH",
"282 -223 OFFCURVE",
"345 -183 OFFCURVE",
"368 -157 QCURVE",
"371 -154 OFFCURVE",
"378 -126 OFFCURVE",
"373 -125 QCURVE",
"372 -125 OFFCURVE",
"351 -141 OFFCURVE",
"314 -157 OFFCURVE",
"293 -157 QCURVE SMOOTH",
"264 -157 OFFCURVE",
"264 -128 QCURVE SMOOTH",
"264 -110 OFFCURVE",
"289 -68 OFFCURVE",
"313 -42 OFFCURVE",
"365 6 OFFCURVE",
"371 12 QCURVE SMOOTH",
"429 72 OFFCURVE",
"443 106 QCURVE",
"441 114 OFFCURVE",
"425 132 OFFCURVE",
"422 132 QCURVE",
"398 100 LINE SMOOTH",
"375 67 OFFCURVE",
"364 67 QCURVE SMOOTH",
"343 67 OFFCURVE",
"343 98 QCURVE SMOOTH",
"343 108 OFFCURVE",
"345 118 QCURVE SMOOTH",
"403 424 LINE",
"396 430 OFFCURVE",
"341 442 OFFCURVE",
"311 442 QCURVE SMOOTH"
);
}
);
width = 465;
}
);
note = aogonek;
unicode = 0105;
},
{
glyphname = dcroat;
layers = (
{
layerId = "3968EB47-B6D1-4984-BCC6-AA3E1527005D";
paths = (
{
closed = 1;
nodes = (
"18 51 OFFCURVE",
"72 -8 OFFCURVE",
"120 -8 QCURVE SMOOTH",
"161 -8 OFFCURVE",
"251 70 OFFCURVE",
"270 99 QCURVE",
"272 103 OFFCURVE",
"273 103 QCURVE SMOOTH",
"275 103 OFFCURVE",
"275 99 QCURVE",
"274 84 LINE SMOOTH",
"273 68 OFFCURVE",
"273 57 QCURVE SMOOTH",
"273 30 OFFCURVE",
"307 -8 OFFCURVE",
"335 -8 QCURVE SMOOTH",
"377 -8 OFFCURVE",
"450 72 OFFCURVE",
"463 107 QCURVE",
"461 115 OFFCURVE",
"445 132 OFFCURVE",
"442 132 QCURVE",
"420 100 LINE SMOOTH",
"397 67 OFFCURVE",
"386 67 QCURVE SMOOTH",
"363 67 OFFCURVE",
"363 101 QCURVE SMOOTH",
"363 110 OFFCURVE",
"367 126 QCURVE",
"440 504 LINE",
"442 510 OFFCURVE",
"446 510 QCURVE SMOOTH",
"495 510 LINE",
"496 510 LINE SMOOTH",
"497 510 OFFCURVE",
"501 513 OFFCURVE",
"502 516 QCURVE SMOOTH",
"505 525 OFFCURVE",
"512 558 QCURVE",
"513 566 OFFCURVE",
"508 566 QCURVE SMOOTH",
"457 566 LINE SMOOTH",
"453 566 OFFCURVE",
"453 572 QCURVE SMOOTH",
"453 574 OFFCURVE",
"456 588 QCURVE SMOOTH",
"466 643 OFFCURVE",
"486 678 QCURVE",
"486 694 OFFCURVE",
"478 694 QCURVE SMOOTH",
"476 694 OFFCURVE",
"474 693 QCURVE SMOOTH",
"455 684 OFFCURVE",
"351 656 OFFCURVE",
"324 656 QCURVE SMOOTH",
"322 656 OFFCURVE",
"314 641 OFFCURVE",
"314 634 QCURVE SMOOTH",
"314 628 OFFCURVE",
"318 628 QCURVE SMOOTH",
"367 628 OFFCURVE",
"367 606 QCURVE SMOOTH",
"367 594 OFFCURVE",
"362 572 QCURVE",
"359 566 OFFCURVE",
"358 566 QCURVE SMOOTH",
"260 566 LINE",
"254 562 LINE",
"250 554 OFFCURVE",
"241 518 QCURVE",
"240 513 OFFCURVE",
"241 511 QCURVE",
"244 510 OFFCURVE",
"244 510 QCURVE",
"346 510 LINE SMOOTH",
"349 510 OFFCURVE",
"349 504 QCURVE SMOOTH",
"349 503 OFFCURVE",
"334 432 QCURVE",
"334 428 OFFCURVE",
"332 428 QCURVE",
"330 429 LINE",
"328 430 LINE SMOOTH",
"308 440 OFFCURVE",
"286 440 QCURVE SMOOTH",
"229 440 OFFCURVE",
"102 332 OFFCURVE",
"18 173 OFFCURVE",
"18 102 QCURVE SMOOTH"
);
},
{
closed = 1;
nodes = (
"296 395 OFFCURVE",
"321 372 OFFCURVE",
"321 354 QCURVE SMOOTH",
"321 344 OFFCURVE",
"318 334 QCURVE",
"302 262 LINE SMOOTH",
"288 197 OFFCURVE",
"200 60 OFFCURVE",
"164 60 QCURVE SMOOTH",
"124 60 OFFCURVE",
"124 122 QCURVE SMOOTH",
"124 213 OFFCURVE",
"228 395 OFFCURVE",
"277 395 QCURVE SMOOTH"
);
}
);
width = 508;
}
);
note = dcroat;
unicode = 0111;
},
{
glyphname = Eogonek;
layers = (
{
layerId = "3968EB47-B6D1-4984-BCC6-AA3E1527005D";
paths = (
{
closed = 1;
nodes = (
"436 17 OFFCURVE",
"461 70 OFFCURVE",
"508 156 OFFCURVE",
"513 166 QCURVE",
"509 172 OFFCURVE",
"489 172 QCURVE SMOOTH",
"477 172 OFFCURVE",
"474 166 QCURVE SMOOTH",
"456 131 OFFCURVE",
"409 78 OFFCURVE",
"393 70 QCURVE SMOOTH",
"351 49 OFFCURVE",
"277 49 QCURVE SMOOTH",
"243 49 LINE SMOOTH",
"200 49 OFFCURVE",
"183 57 OFFCURVE",
"183 74 QCURVE SMOOTH",
"183 106 OFFCURVE",
"191 146 QCURVE SMOOTH",
"221 298 LINE",
"223 306 OFFCURVE",
"289 306 QCURVE SMOOTH",
"362 306 OFFCURVE",
"375 296 QCURVE",
"386 285 OFFCURVE",
"388 238 QCURVE",
"389 230 OFFCURVE",
"401 230 QCURVE SMOOTH",
"415 230 OFFCURVE",
"419 234 QCURVE",
"455 424 LINE",
"451 430 OFFCURVE",
"439 430 QCURVE SMOOTH",
"426 430 OFFCURVE",
"423 422 QCURVE",
"402 374 OFFCURVE",
"379 356 OFFCURVE",
"334 356 QCURVE SMOOTH",
"272 356 LINE SMOOTH",
"264 356 OFFCURVE",
"251 357 OFFCURVE",
"239 358 OFFCURVE",
"234 361 OFFCURVE",
"234 363 QCURVE",
"265 528 LINE SMOOTH",
"270 560 OFFCURVE",
"284 600 QCURVE",
"288 613 OFFCURVE",
"353 613 QCURVE SMOOTH",
"398 613 LINE SMOOTH",
"491 613 OFFCURVE",
"503 524 QCURVE",
"503 517 OFFCURVE",
"515 517 QCURVE SMOOTH",
"530 517 OFFCURVE",
"535 522 QCURVE",
"535 599 LINE SMOOTH",
"535 653 OFFCURVE",
"536 664 QCURVE",
"486 664 OFFCURVE",
"290 657 OFFCURVE",
"239 657 QCURVE SMOOTH",
"183 657 OFFCURVE",
"120 660 QCURVE",
"113 653 OFFCURVE",
"113 635 QCURVE SMOOTH",
"113 630 OFFCURVE",
"115 630 QCURVE SMOOTH",
"125 630 OFFCURVE",
"168 611 OFFCURVE",
"169 603 QCURVE",
"169 592 OFFCURVE",
"158 518 QCURVE",
"85 142 LINE SMOOTH",
"73 78 OFFCURVE",
"60 52 QCURVE",
"55 43 OFFCURVE",
"7 26 OFFCURVE",
"-3 26 QCURVE SMOOTH",
"-9 26 OFFCURVE",
"-9 5 QCURVE SMOOTH",
"-9 -3 OFFCURVE",
"-8 -4 QCURVE",
"-1 -4 OFFCURVE",
"35 0 OFFCURVE",
"80 2 OFFCURVE",
"107 2 QCURVE SMOOTH",
"138 2 OFFCURVE",
"291 -2 OFFCURVE",
"324 -2 QCURVE",
"287 -21 OFFCURVE",
"207 -129 OFFCURVE",
"207 -168 QCURVE SMOOTH",
"207 -192 OFFCURVE",
"238 -223 OFFCURVE",
"261 -223 QCURVE SMOOTH",
"316 -223 OFFCURVE",
"375 -157 QCURVE",
"378 -154 OFFCURVE",
"386 -126 OFFCURVE",
"381 -125 QCURVE",
"380 -125 OFFCURVE",
"359 -141 OFFCURVE",
"322 -157 OFFCURVE",
"301 -157 QCURVE SMOOTH",
"272 -157 OFFCURVE",
"272 -130 QCURVE SMOOTH",
"272 -89 OFFCURVE",
"369 -3 OFFCURVE",
"429 -3 QCURVE"
);
}
);
width = 542;
}
);
note = Eogonek;
unicode = 0118;
},
{
glyphname = eogonek;
layers = (
{
layerId = "3968EB47-B6D1-4984-BCC6-AA3E1527005D";
paths = (
{
closed = 1;
nodes = (
"122 -73 OFFCURVE",
"241 29 QCURVE SMOOTH",
"264 49 OFFCURVE",
"300 92 OFFCURVE",
"302 100 QCURVE",
"302 107 OFFCURVE",
"289 124 OFFCURVE",
"286 124 QCURVE SMOOTH",
"285 124 OFFCURVE",
"257 90 OFFCURVE",
"215 57 OFFCURVE",
"196 57 QCURVE SMOOTH",
"164 57 OFFCURVE",
"119 110 OFFCURVE",
"119 172 QCURVE SMOOTH",
"119 181 OFFCURVE",
"122 181 QCURVE SMOOTH",
"154 181 OFFCURVE",
"259 226 OFFCURVE",
"350 311 OFFCURVE",
"350 355 QCURVE SMOOTH",
"350 388 OFFCURVE",
"302 442 OFFCURVE",
"258 442 QCURVE SMOOTH",
"170 442 OFFCURVE",
"21 270 OFFCURVE",
"21 161 QCURVE SMOOTH",
"21 92 OFFCURVE",
"93 -2 OFFCURVE",
"151 -5 QCURVE",
"57 -103 OFFCURVE",
"57 -168 QCURVE SMOOTH",
"57 -191 OFFCURVE",
"88 -223 OFFCURVE",
"111 -223 QCURVE SMOOTH",
"140 -223 OFFCURVE",
"203 -183 OFFCURVE",
"226 -157 QCURVE",
"229 -154 OFFCURVE",
"237 -126 OFFCURVE",
"232 -125 QCURVE",
"231 -125 OFFCURVE",
"210 -141 OFFCURVE",
"173 -157 OFFCURVE",
"152 -157 QCURVE SMOOTH",
"122 -157 OFFCURVE",
"122 -128 QCURVE SMOOTH"
);
},
{
closed = 1;
nodes = (
"258 395 OFFCURVE",
"258 354 QCURVE SMOOTH",
"258 311 OFFCURVE",
"171 225 OFFCURVE",
"130 225 QCURVE SMOOTH",
"124 225 OFFCURVE",
"124 230 QCURVE SMOOTH",
"124 240 OFFCURVE",
"142 297 OFFCURVE",
"154 318 QCURVE SMOOTH",
"198 395 OFFCURVE",
"236 395 QCURVE SMOOTH"
);
}
);
width = 368;
}
);
note = eogonek;
unicode = 0119;
},
{
glyphname = Hbar;
layers = (
{
layerId = "3968EB47-B6D1-4984-BCC6-AA3E1527005D";
paths = (
{
closed = 1;
nodes = (
"406 467 OFFCURVE",
"501 466 OFFCURVE",
"508 466 QCURVE",
"487 354 LINE SMOOTH",
"486 349 OFFCURVE",
"360 349 QCURVE SMOOTH",
"233 349 OFFCURVE",
"233 354 QCURVE SMOOTH",
"233 356 LINE",
"254 466 LINE",
"262 466 OFFCURVE",
"357 467 OFFCURVE",
"382 467 QCURVE SMOOTH"
);
},
{
closed = 1;
nodes = (
"213 654 OFFCURVE",
"130 660 OFFCURVE",
"122 660 QCURVE",
"116 654 OFFCURVE",
"116 638 QCURVE SMOOTH",
"116 630 LINE",
"128 630 OFFCURVE",
"169 615 OFFCURVE",
"170 603 QCURVE",
"170 580 OFFCURVE",
"158 516 QCURVE",
"154 516 OFFCURVE",
"123 517 QCURVE",
"112 512 LINE",
"101 501 OFFCURVE",
"94 472 QCURVE SMOOTH",
"93 468 OFFCURVE",
"97 465 OFFCURVE",
"99 465 OFFCURVE",
"100 465 QCURVE SMOOTH",
"150 466 LINE",
"85 134 LINE SMOOTH",
"71 69 OFFCURVE",
"60 48 QCURVE",
"55 40 OFFCURVE",
"9 26 OFFCURVE",
"-2 26 QCURVE SMOOTH",
"-8 26 OFFCURVE",
"-8 7 QCURVE SMOOTH",
"-8 -4 LINE",
"0 -4 OFFCURVE",
"87 2 OFFCURVE",
"112 2 QCURVE SMOOTH",
"118 2 OFFCURVE",
"229 -4 QCURVE",
"235 6 OFFCURVE",
"235 22 QCURVE SMOOTH",
"235 26 OFFCURVE",
"234 26 QCURVE SMOOTH",
"225 26 OFFCURVE",
"182 43 OFFCURVE",
"182 52 QCURVE SMOOTH",
"182 81 OFFCURVE",
"192 138 QCURVE SMOOTH",
"221 289 LINE",
"223 296 OFFCURVE",
"350 296 QCURVE SMOOTH",
"474 296 OFFCURVE",
"474 292 QCURVE SMOOTH",
"474 289 LINE",
"444 134 LINE SMOOTH",
"429 67 OFFCURVE",
"420 49 QCURVE",
"415 41 OFFCURVE",
"367 26 OFFCURVE",
"356 26 QCURVE SMOOTH",
"350 26 OFFCURVE",
"350 2 QCURVE SMOOTH",
"350 -2 OFFCURVE",
"352 -4 QCURVE",
"360 -4 OFFCURVE",
"447 2 OFFCURVE",
"472 2 QCURVE SMOOTH",
"475 2 OFFCURVE",
"586 -4 QCURVE",
"593 5 OFFCURVE",
"593 18 QCURVE SMOOTH",
"593 26 OFFCURVE",
"592 26 QCURVE SMOOTH",
"583 26 OFFCURVE",
"540 43 OFFCURVE",
"540 52 QCURVE SMOOTH",
"540 81 OFFCURVE",
"550 138 QCURVE SMOOTH",
"614 466 LINE",
"650 465 LINE",
"661 469 LINE",
"673 481 OFFCURVE",
"680 510 QCURVE SMOOTH",
"681 514 OFFCURVE",
"677 517 OFFCURVE",
"674 517 OFFCURVE",
"673 517 QCURVE SMOOTH",
"624 516 LINE",
"638 588 OFFCURVE",
"648 607 QCURVE SMOOTH",
"652 614 OFFCURVE",
"700 630 OFFCURVE",
"716 630 OFFCURVE",
"716 650 QCURVE SMOOTH",
"716 660 LINE",
"602 654 LINE",
"583 654 OFFCURVE",
"543 656 OFFCURVE",
"495 659 OFFCURVE",
"480 660 QCURVE",
"473 653 OFFCURVE",
"473 636 QCURVE SMOOTH",
"473 630 OFFCURVE",
"476 630 QCURVE SMOOTH",
"490 630 OFFCURVE",
"527 617 OFFCURVE",
"528 605 QCURVE",
"528 575 OFFCURVE",
"517 516 QCURVE",
"511 516 OFFCURVE",
"415 514 OFFCURVE",
"390 514 QCURVE SMOOTH",
"369 514 OFFCURVE",
"309 515 OFFCURVE",
"265 516 OFFCURVE",
"264 516 QCURVE",
"277 581 OFFCURVE",
"290 607 QCURVE",
"294 614 OFFCURVE",
"342 630 OFFCURVE",
"350 630 QCURVE SMOOTH",
"353 630 OFFCURVE",
"358 649 OFFCURVE",
"358 656 QCURVE SMOOTH",
"358 660 LINE",
"244 654 OFFCURVE",
"238 654 QCURVE SMOOTH"
);
}
);
width = 709;
}
);
note = Hbar;
unicode = 0126;
},
{
glyphname = hbar;
layers = (
{
layerId = "3968EB47-B6D1-4984-BCC6-AA3E1527005D";
paths = (
{
closed = 1;
nodes = (
"304 442 OFFCURVE",
"246 399 OFFCURVE",
"198 336 OFFCURVE",
"169 291 OFFCURVE",
"161 276 QCURVE",
"160 275 LINE",
"159 276 LINE",
"159 277 OFFCURVE",
"203 504 QCURVE SMOOTH",
"204 509 OFFCURVE",
"208 509 QCURVE SMOOTH",
"307 509 LINE",
"308 509 LINE SMOOTH",
"310 509 OFFCURVE",
"314 511 OFFCURVE",
"315 514 QCURVE",
"319 521 OFFCURVE",
"323 540 OFFCURVE",
"324 556 OFFCURVE",
"325 558 QCURVE",
"325 560 OFFCURVE",
"325 561 QCURVE SMOOTH",
"325 565 OFFCURVE",
"320 565 QCURVE SMOOTH",
"220 565 LINE SMOOTH",
"217 565 OFFCURVE",
"217 571 QCURVE",
"218 573 OFFCURVE",
"220 588 OFFCURVE",
"220 590 QCURVE",
"230 638 OFFCURVE",
"249 678 QCURVE",
"249 694 OFFCURVE",
"242 694 QCURVE SMOOTH",
"237 694 LINE",
"218 685 OFFCURVE",
"114 656 OFFCURVE",
"87 656 QCURVE SMOOTH",
"84 656 OFFCURVE",
"77 641 OFFCURVE",
"77 634 QCURVE SMOOTH",
"77 628 OFFCURVE",
"82 628 QCURVE SMOOTH",
"131 628 OFFCURVE",
"131 606 QCURVE SMOOTH",
"131 604 OFFCURVE",
"129 593 OFFCURVE",
"126 577 OFFCURVE",
"125 571 QCURVE",
"123 565 OFFCURVE",
"120 565 QCURVE SMOOTH",
"71 565 LINE",
"65 560 LINE",
"62 552 OFFCURVE",
"53 518 QCURVE",
"52 513 OFFCURVE",
"55 508 OFFCURVE",
"56 508 QCURVE",
"58 509 LINE",
"108 509 LINE SMOOTH",
"112 509 OFFCURVE",
"112 504 QCURVE SMOOTH",
"112 503 OFFCURVE",
"15 0 QCURVE",
"30 -5 OFFCURVE",
"63 -5 QCURVE SMOOTH",
"88 -5 OFFCURVE",
"105 0 QCURVE",
"121 76 LINE SMOOTH",
"142 174 OFFCURVE",
"246 351 OFFCURVE",
"275 351 QCURVE SMOOTH",
"299 351 OFFCURVE",
"299 307 QCURVE SMOOTH",
"299 282 OFFCURVE",
"260 104 OFFCURVE",
"260 77 QCURVE SMOOTH",
"260 34 OFFCURVE",
"296 -8 OFFCURVE",
"325 -8 QCURVE SMOOTH",
"368 -8 OFFCURVE",
"440 73 OFFCURVE",
"453 106 QCURVE",
"451 114 OFFCURVE",
"436 132 OFFCURVE",
"433 132 QCURVE",
"410 99 LINE SMOOTH",
"386 66 OFFCURVE",
"375 66 QCURVE SMOOTH",
"354 66 OFFCURVE",
"354 100 QCURVE SMOOTH",
"354 114 OFFCURVE",
"355 117 QCURVE",
"381 258 LINE SMOOTH",
"395 323 OFFCURVE",
"395 355 QCURVE SMOOTH",
"395 393 OFFCURVE",
"363 442 OFFCURVE",
"329 442 QCURVE SMOOTH"
);
}
);
width = 472;
}
);
note = hbar;
unicode = 0127;
},
{
glyphname = Iogonek;
layers = (
{
layerId = "3968EB47-B6D1-4984-BCC6-AA3E1527005D";
paths = (
{
closed = 1;
nodes = (
"283 579 OFFCURVE",
"295 606 QCURVE",
"299 613 OFFCURVE",
"347 630 OFFCURVE",
"355 630 QCURVE SMOOTH",
"358 630 OFFCURVE",
"363 649 OFFCURVE",
"363 656 QCURVE SMOOTH",
"363 660 LINE",
"249 654 OFFCURVE",
"243 654 QCURVE SMOOTH",
"218 654 OFFCURVE",
"138 660 OFFCURVE",
"129 660 QCURVE",
"121 652 OFFCURVE",
"121 634 QCURVE SMOOTH",
"121 630 OFFCURVE",
"123 630 QCURVE SMOOTH",
"135 630 OFFCURVE",
"175 613 OFFCURVE",
"175 600 QCURVE SMOOTH",
"175 570 OFFCURVE",
"165 518 QCURVE SMOOTH",
"92 138 LINE SMOOTH",
"81 77 OFFCURVE",
"67 49 QCURVE",
"62 40 OFFCURVE",
"16 26 OFFCURVE",
"5 26 QCURVE SMOOTH",
"-1 26 OFFCURVE",
"-1 4 QCURVE SMOOTH",
"-1 -3 OFFCURVE",
"0 -4 QCURVE",
"14 -3 OFFCURVE",
"57 0 OFFCURVE",
"95 2 OFFCURVE",
"114 2 QCURVE",
"76 -13 OFFCURVE",
"-9 -126 OFFCURVE",
"-9 -168 QCURVE SMOOTH",
"-9 -192 OFFCURVE",
"22 -223 OFFCURVE",
"45 -223 QCURVE SMOOTH",
"74 -223 OFFCURVE",
"137 -183 OFFCURVE",
"160 -157 QCURVE",
"163 -154 OFFCURVE",
"170 -126 OFFCURVE",
"165 -125 QCURVE",
"164 -125 OFFCURVE",
"143 -141 OFFCURVE",
"106 -157 OFFCURVE",
"85 -157 QCURVE SMOOTH",
"56 -157 OFFCURVE",
"56 -130 QCURVE SMOOTH",
"56 -97 OFFCURVE",
"142 -14 OFFCURVE",
"187 -6 QCURVE",
"203 -4 OFFCURVE",
"233 -4 QCURVE",
"240 8 OFFCURVE",
"240 22 QCURVE SMOOTH",
"240 26 OFFCURVE",
"238 26 QCURVE SMOOTH",
"230 26 OFFCURVE",
"187 43 OFFCURVE",
"187 54 QCURVE SMOOTH",
"187 84 OFFCURVE",
"197 139 QCURVE SMOOTH",
"269 517 LINE SMOOTH"
);
}
);
width = 356;
}
);
note = Iogonek;
unicode = 012E;
},
{
glyphname = iogonek;
layers = (
{
layerId = "3968EB47-B6D1-4984-BCC6-AA3E1527005D";
paths = (
{
closed = 1;
nodes = (
"100 -94 OFFCURVE",
"152 -25 OFFCURVE",
"199 18 QCURVE SMOOTH",
"221 38 OFFCURVE",
"259 91 OFFCURVE",
"264 106 QCURVE",
"262 114 OFFCURVE",
"247 132 OFFCURVE",
"244 132 QCURVE",
"220 100 LINE SMOOTH",
"197 67 OFFCURVE",
"186 67 QCURVE SMOOTH",
"165 67 OFFCURVE",
"165 100 QCURVE SMOOTH",
"165 106 OFFCURVE",
"167 118 QCURVE",
"168 127 OFFCURVE",
"191 238 OFFCURVE",
"209 341 OFFCURVE",
"209 358 QCURVE SMOOTH",
"209 401 OFFCURVE",
"172 442 OFFCURVE",
"143 442 QCURVE SMOOTH",
"100 442 OFFCURVE",
"28 361 OFFCURVE",
"15 328 QCURVE",
"17 320 OFFCURVE",
"33 302 OFFCURVE",
"36 302 QCURVE",
"58 335 LINE SMOOTH",
"81 368 OFFCURVE",
"91 368 QCURVE SMOOTH",
"115 368 OFFCURVE",
"115 332 QCURVE SMOOTH",
"115 325 OFFCURVE",
"112 310 QCURVE SMOOTH",
"77 126 LINE SMOOTH",
"71 96 OFFCURVE",
"71 77 QCURVE SMOOTH",
"71 5 OFFCURVE",
"121 -5 QCURVE",
"88 -42 OFFCURVE",
"35 -134 OFFCURVE",
"35 -168 QCURVE SMOOTH",
"35 -191 OFFCURVE",
"66 -223 OFFCURVE",
"89 -223 QCURVE SMOOTH",
"118 -223 OFFCURVE",
"181 -183 OFFCURVE",
"204 -157 QCURVE",
"207 -154 OFFCURVE",
"215 -126 OFFCURVE",
"210 -125 QCURVE",
"209 -125 OFFCURVE",
"188 -141 OFFCURVE",
"151 -157 OFFCURVE",
"130 -157 QCURVE SMOOTH",
"100 -157 OFFCURVE",
"100 -128 QCURVE SMOOTH"
);
},
{
closed = 1;
nodes = (
"178 655 OFFCURVE",
"139 612 OFFCURVE",
"139 584 QCURVE SMOOTH",
"139 562 OFFCURVE",
"165 531 OFFCURVE",
"185 531 QCURVE SMOOTH",
"212 531 OFFCURVE",
"251 575 OFFCURVE",
"251 604 QCURVE SMOOTH",
"251 626 OFFCURVE",
"226 655 OFFCURVE",
"205 655 QCURVE SMOOTH"
);
}
);
width = 286;
}
);
note = iogonek;
unicode = 012F;
},
{
glyphname = dotlessi;
layers = (
{
layerId = "3968EB47-B6D1-4984-BCC6-AA3E1527005D";
paths = (
{
closed = 1;
nodes = (
"101 442 OFFCURVE",
"29 361 OFFCURVE",
"16 328 QCURVE",
"18 320 OFFCURVE",
"33 302 OFFCURVE",
"36 302 QCURVE",
"59 335 LINE SMOOTH",
"82 368 OFFCURVE",
"92 368 QCURVE SMOOTH",
"116 368 OFFCURVE",
"116 332 QCURVE SMOOTH",
"116 325 OFFCURVE",
"113 310 QCURVE SMOOTH",
"77 126 LINE SMOOTH",
"72 101 OFFCURVE",
"72 77 QCURVE SMOOTH",
"72 36 OFFCURVE",
"106 -8 OFFCURVE",
"137 -8 QCURVE SMOOTH",
"180 -8 OFFCURVE",
"252 73 OFFCURVE",
"265 106 QCURVE",
"263 114 OFFCURVE",
"247 132 OFFCURVE",
"244 132 QCURVE",
"220 99 LINE SMOOTH",
"197 66 OFFCURVE",
"186 66 QCURVE SMOOTH",
"166 66 OFFCURVE",
"166 100 QCURVE SMOOTH",
"166 113 OFFCURVE",
"167 117 QCURVE",
"210 332 OFFCURVE",
"210 358 QCURVE SMOOTH",
"210 401 OFFCURVE",
"173 442 OFFCURVE",
"144 442 QCURVE SMOOTH"
);
}
);
width = 279;
}
);
note = dotlessi;
unicode = 0131;
},
{
glyphname = kgreenlandic;
layers = (
{
layerId = "3968EB47-B6D1-4984-BCC6-AA3E1527005D";
paths = (
{
closed = 1;
nodes = (
"181 331 OFFCURVE",
"181 336 QCURVE",
"192 391 OFFCURVE",
"210 426 QCURVE",
"210 442 OFFCURVE",
"203 442 QCURVE SMOOTH",
"199 442 LINE",
"182 433 OFFCURVE",
"74 404 OFFCURVE",
"48 404 QCURVE SMOOTH",
"46 404 OFFCURVE",
"39 388 OFFCURVE",
"39 376 OFFCURVE",
"43 376 QCURVE SMOOTH",
"91 376 OFFCURVE",
"91 354 QCURVE SMOOTH",
"91 345 OFFCURVE",
"82 300 QCURVE SMOOTH",
"24 0 LINE",
"48 -6 OFFCURVE",
"72 -6 QCURVE SMOOTH",
"98 -6 OFFCURVE",
"116 0 QCURVE",
"153 193 LINE",
"153 195 OFFCURVE",
"154 195 QCURVE",
"155 194 LINE",
"166 172 LINE SMOOTH",
"177 149 OFFCURVE",
"215 84 OFFCURVE",
"231 65 QCURVE SMOOTH",
"288 -2 OFFCURVE",
"342 -2 QCURVE SMOOTH",
"387 -2 OFFCURVE",
"445 66 OFFCURVE",
"455 97 QCURVE",
"453 102 OFFCURVE",
"441 110 OFFCURVE",
"429 110 OFFCURVE",
"427 108 OFFCURVE",
"414 87 OFFCURVE",
"404 74 OFFCURVE",
"386 61 OFFCURVE",
"377 61 QCURVE SMOOTH",
"355 61 OFFCURVE",
"299 129 OFFCURVE",
"253 204 QCURVE",
"327 215 OFFCURVE",
"432 292 OFFCURVE",
"432 356 QCURVE SMOOTH",
"432 394 OFFCURVE",
"371 442 OFFCURVE",
"330 442 QCURVE SMOOTH",
"252 442 OFFCURVE",
"188 339 QCURVE SMOOTH",
"183 331 OFFCURVE",
"183 331 QCURVE SMOOTH"
);
},
{
closed = 1;
nodes = (
"313 382 OFFCURVE",
"334 352 OFFCURVE",
"334 333 QCURVE SMOOTH",
"334 294 OFFCURVE",
"294 267 QCURVE",
"270 252 OFFCURVE",
"198 235 OFFCURVE",
"185 235 QCURVE SMOOTH",
"167 235 OFFCURVE",
"167 242 QCURVE SMOOTH",
"167 265 OFFCURVE",
"259 382 OFFCURVE",
"295 382 QCURVE SMOOTH"
);
}
);
width = 485;
}
);
note = kgreenlandic;
unicode = 0138;
},
{
glyphname = Lslash;
layers = (
{
layerId = "3968EB47-B6D1-4984-BCC6-AA3E1527005D";
paths = (
{
closed = 1;
nodes = (
"226 654 OFFCURVE",
"186 656 OFFCURVE",
"138 659 OFFCURVE",
"123 660 QCURVE",
"118 655 OFFCURVE",
"116 643 QCURVE SMOOTH",
"114 630 OFFCURVE",
"118 630 QCURVE SMOOTH",
"128 630 OFFCURVE",
"171 613 OFFCURVE",
"173 605 QCURVE",
"175 588 OFFCURVE",
"164 522 QCURVE SMOOTH",
"115 267 LINE",
"36 216 LINE SMOOTH",
"33 214 OFFCURVE",
"32 205 OFFCURVE",
"34 200 QCURVE",
"35 194 LINE SMOOTH",
"36 187 OFFCURVE",
"46 171 OFFCURVE",
"49 171 QCURVE",
"102 206 LINE",
"90 143 LINE SMOOTH",
"76 71 OFFCURVE",
"66 52 QCURVE SMOOTH",
"61 43 OFFCURVE",
"9 27 OFFCURVE",
"-2 27 QCURVE SMOOTH",
"-7 27 OFFCURVE",
"-7 10 QCURVE",
"-9 -1 OFFCURVE",
"-6 -4 QCURVE",
"118 2 LINE",
"169 2 OFFCURVE",
"385 -3 OFFCURVE",
"435 -3 QCURVE",
"444 23 OFFCURVE",
"518 166 QCURVE",
"514 172 OFFCURVE",
"494 172 QCURVE SMOOTH",
"483 172 OFFCURVE",
"480 166 QCURVE SMOOTH",
"463 132 OFFCURVE",
"415 78 OFFCURVE",
"398 70 QCURVE SMOOTH",
"356 49 OFFCURVE",
"283 49 QCURVE SMOOTH",
"249 49 LINE SMOOTH",
"189 49 OFFCURVE",
"188 62 QCURVE SMOOTH",
"186 91 OFFCURVE",
"196 142 QCURVE SMOOTH",
"223 283 LINE",
"418 408 LINE SMOOTH",
"424 412 OFFCURVE",
"424 419 QCURVE SMOOTH",
"424 429 OFFCURVE",
"416 448 QCURVE",
"411 458 OFFCURVE",
"406 458 QCURVE",
"236 346 LINE",
"268 519 LINE SMOOTH",
"276 566 OFFCURVE",
"294 606 QCURVE SMOOTH",
"297 613 OFFCURVE",
"350 630 OFFCURVE",
"358 630 QCURVE SMOOTH",
"362 630 OFFCURVE",
"364 644 QCURVE",
"366 654 OFFCURVE",
"366 660 QCURVE",
"252 654 OFFCURVE",
"245 654 QCURVE SMOOTH"
);
}
);
width = 531;
}
);
note = Lslash;
unicode = 0141;
},
